<mxfile host="www.draw.io" modified="2020-02-13T13:11:17.971Z" agent="Mozilla/5.0 (Windows NT 10.0; Win64; x64) AppleWebKit/537.36 (KHTML, like Gecko) Chrome/78.0.3904.87 Safari/537.36" etag="wj0X6NcDSAhxlTp_yE2R" version="12.7.0" type="github" pages="2">
  <diagram name="FLUXOGRAMA COMPRAS" id="FLUXOGRAMA_COMPRAS">
    <mxGraphModel dx="782" dy="706" grid="1" gridSize="10" guides="1" tooltips="1" connect="1" arrows="1" fold="1" page="1" pageScale="1" pageWidth="1654" pageHeight="1169" math="0" shadow="0">
      <root>
        <mxCell id="0"/>
        <mxCell id="1" value="Fluxograma" parent="0"/>
        <mxCell id="5" style="vsdxID=35;fillColor=none;gradientColor=none;strokeColor=none;labelBackgroundColor=none;rounded=0;html=1;whiteSpace=wrap;" parent="1" vertex="1">
          <mxGeometry x="25" y="71" width="1137" height="762" as="geometry"/>
        </mxCell>
        <mxCell id="6" style="vsdxID=36;fillColor=#5b9bd5;gradientColor=none;fillOpacity=0;shape=stencil(nZBLDoAgDERP0z3SIyjew0SURgSD+Lu9kMZoXLhwN9O+tukAlrNpJg1SzDH4QW/URgNYgZTkjA4UkwJUgGXng+6DX1zLfmoymdXo17xh5zmRJ6Q42BWCfc2oJfdAr+Yv+AP9Cb7OJ3H/2JG1HNGz/84klThPVCc=);strokeColor=#939393;labelBackgroundColor=none;rounded=0;html=1;whiteSpace=wrap;" parent="5" vertex="1">
          <mxGeometry width="1137" height="762" as="geometry"/>
        </mxCell>
        <mxCell id="7" style="vsdxID=37;rotation=270;fillColor=#5b9bd5;gradientColor=none;shape=stencil(rZBLDoAgDERP0z3SI/i5B4kojQgE8Xd7IY3RuHY303lt0gGsF6OCBimWFP2kd+qTAWxASnJGR0pZAbaA9eCjHqNfXc8+qEIWNfutXDh4T5QNKU52lWDfMWrJvdA7/B/+C83i+XMga7mmd/7tJY+4U2wv);strokeColor=#939393;labelBackgroundColor=none;rounded=0;html=1;whiteSpace=wrap;" parent="5" vertex="1">
          <mxGeometry x="-382" y="381" width="762" height="1" as="geometry"/>
        </mxCell>
        <mxCell id="8" style="vsdxID=38;fillColor=#5b9bd5;gradientColor=none;fillOpacity=0;shape=stencil(nZBLDoAgDERP0z3SIyjew0SURgSD+Lu9kMZoXLhwN9N5bdMClrNpJg1SzDH4QW/URgNYgZTkjA4UkwJUgGXng+6DX1zLfmoymdXo1zxh5z6RO6Q42BWCfc2oJfdAr/AX/IH+BF/rk7hv7MjaZ/L+RirxJ1Gd);strokeColor=#939393;labelBackgroundColor=none;rounded=0;html=1;whiteSpace=wrap;" parent="1" vertex="1">
          <mxGeometry x="25" y="71" width="1137" height="762" as="geometry"/>
        </mxCell>
        <mxCell id="9" style="vsdxID=31;fillColor=none;gradientColor=none;strokeColor=none;labelBackgroundColor=none;rounded=0;html=1;whiteSpace=wrap;" parent="1" vertex="1">
          <mxGeometry x="25" y="71" width="1137" height="156" as="geometry"/>
        </mxCell>
        <mxCell id="10" style="vsdxID=32;fillColor=#7030a0;gradientColor=none;fillOpacity=0;shape=stencil(nZBLDoAgDERP0z3SIyjew0SURgSD+Lu9kMZoXLhwN9O+tukAlrNpJg1SzDH4QW/URgNYgZTkjA4UkwJUgGXng+6DX1zLfmoymdXo17xh5zmRJ6Q42BWCfc2oJfdAr+Yv+AP9Cb7OJ3H/2JG1HNGz/84klThPVCc=);strokeColor=#939393;labelBackgroundColor=none;rounded=0;html=1;whiteSpace=wrap;" parent="9" vertex="1">
          <mxGeometry width="1137" height="156" as="geometry"/>
        </mxCell>
        <mxCell id="11" value="&lt;font style=&quot;font-size:16px;font-family:Calibri;color:#feffff;direction:ltr;letter-spacing:0px;line-height:120%;opacity:1&quot;&gt;SPEND AREA&lt;br/&gt;&lt;/font&gt;" style="verticalAlign=middle;align=center;vsdxID=34;rotation=270;fillColor=#7030a0;gradientColor=none;shape=stencil(nZBLDoAgDERP0z3SIyjew0SURgSD+Lu9kMZoXLhwN9O+tukAlrNpJg1SzDH4QW/URgNYgZTkjA4UkwJUgGXng+6DX1zLfmoymdXo17xh5zmRJ6Q42BWCfc2oJfdAr+Yv+AP9Cb7OJ3H/2JG1HNGz/84klThPVCc=);strokeColor=#939393;labelBackgroundColor=none;rounded=0;html=1;whiteSpace=wrap;" parent="9" vertex="1">
          <mxGeometry x="-55" y="54" width="156" height="48" as="geometry"/>
        </mxCell>
        <mxCell id="12" style="vsdxID=120;fillColor=none;gradientColor=none;strokeColor=none;labelBackgroundColor=none;rounded=0;html=1;whiteSpace=wrap;" parent="1" vertex="1">
          <mxGeometry x="25" y="476" width="1137" height="237" as="geometry"/>
        </mxCell>
        <mxCell id="13" style="vsdxID=121;fillColor=#002060;gradientColor=none;fillOpacity=0;shape=stencil(nZBLDoAgDERP0z3SIyjew0SURgSD+Lu9kMZoXLhwN9O+tukAlrNpJg1SzDH4QW/URgNYgZTkjA4UkwJUgGXng+6DX1zLfmoymdXo17xh5zmRJ6Q42BWCfc2oJfdAr+Yv+AP9Cb7OJ3H/2JG1HNGz/84klThPVCc=);strokeColor=#939393;labelBackgroundColor=none;rounded=0;html=1;whiteSpace=wrap;" parent="12" vertex="1">
          <mxGeometry width="1137" height="237" as="geometry"/>
        </mxCell>
        <mxCell id="14" value="&lt;font style=&quot;font-size:16px;font-family:Calibri;color:#feffff;direction:ltr;letter-spacing:0px;line-height:120%;opacity:1&quot;&gt;PENSKE&lt;br/&gt;&lt;/font&gt;" style="verticalAlign=middle;align=center;vsdxID=123;rotation=270;fillColor=#002060;gradientColor=none;shape=stencil(nZBLDoAgDERP0z3SIyjew0SURgSD+Lu9kMZoXLhwN9O+tukAlrNpJg1SzDH4QW/URgNYgZTkjA4UkwJUgGXng+6DX1zLfmoymdXo17xh5zmRJ6Q42BWCfc2oJfdAr+Yv+AP9Cb7OJ3H/2JG1HNGz/84klThPVCc=);strokeColor=#939393;labelBackgroundColor=none;rounded=0;html=1;whiteSpace=wrap;" parent="12" vertex="1">
          <mxGeometry x="-95" y="94" width="237" height="48" as="geometry"/>
        </mxCell>
        <mxCell id="15" style="vsdxID=310;fillColor=none;gradientColor=none;strokeColor=none;labelBackgroundColor=none;rounded=0;html=1;whiteSpace=wrap;" parent="1" vertex="1">
          <mxGeometry x="25" y="713" width="1137" height="120" as="geometry"/>
        </mxCell>
        <mxCell id="16" style="vsdxID=311;fillColor=#7030a0;gradientColor=none;fillOpacity=0;shape=stencil(nZBLDoAgDERP0z3SIyjew0SURgSD+Lu9kMZoXLhwN9O+tukAlrNpJg1SzDH4QW/URgNYgZTkjA4UkwJUgGXng+6DX1zLfmoymdXo17xh5zmRJ6Q42BWCfc2oJfdAr+Yv+AP9Cb7OJ3H/2JG1HNGz/84klThPVCc=);strokeColor=#939393;labelBackgroundColor=none;rounded=0;html=1;whiteSpace=wrap;" parent="15" vertex="1">
          <mxGeometry width="1137" height="120" as="geometry"/>
        </mxCell>
        <mxCell id="17" value="&lt;font style=&quot;direction: ltr ; line-height: 120% ; opacity: 1&quot;&gt;&lt;div&gt;&lt;font color=&quot;#feffff&quot; face=&quot;calibri&quot;&gt;&lt;span style=&quot;font-size: 16px&quot;&gt;LOGISTICS PROCUREMENT&lt;/span&gt;&lt;/font&gt;&lt;/div&gt;&lt;/font&gt;" style="verticalAlign=middle;align=center;vsdxID=313;rotation=270;fillColor=#7030a0;gradientColor=none;shape=stencil(nZBLDoAgDERP0z3SIyjew0SURgSD+Lu9kMZoXLhwN9O+tukAlrNpJg1SzDH4QW/URgNYgZTkjA4UkwJUgGXng+6DX1zLfmoymdXo17xh5zmRJ6Q42BWCfc2oJfdAr+Yv+AP9Cb7OJ3H/2JG1HNGz/84klThPVCc=);strokeColor=#939393;labelBackgroundColor=none;rounded=0;html=1;whiteSpace=wrap;" parent="15" vertex="1">
          <mxGeometry x="-37" y="36" width="120" height="48" as="geometry"/>
        </mxCell>
        <mxCell id="18" style="vsdxID=636;fillColor=none;gradientColor=none;strokeColor=none;labelBackgroundColor=none;rounded=0;html=1;whiteSpace=wrap;" parent="1" vertex="1">
          <mxGeometry x="25" y="340" width="1137" height="136" as="geometry"/>
        </mxCell>
        <mxCell id="19" style="vsdxID=637;fillColor=#7030a0;gradientColor=none;fillOpacity=0;shape=stencil(nZBLDoAgDERP0z3SIyjew0SURgSD+Lu9kMZoXLhwN9O+tukAlrNpJg1SzDH4QW/URgNYgZTkjA4UkwJUgGXng+6DX1zLfmoymdXo17xh5zmRJ6Q42BWCfc2oJfdAr+Yv+AP9Cb7OJ3H/2JG1HNGz/84klThPVCc=);strokeColor=#939393;labelBackgroundColor=none;rounded=0;html=1;whiteSpace=wrap;" parent="18" vertex="1">
          <mxGeometry width="1137" height="136" as="geometry"/>
        </mxCell>
        <mxCell id="20" value="&lt;font style=&quot;direction: ltr ; line-height: 120% ; opacity: 1&quot;&gt;&lt;div&gt;&lt;font color=&quot;#feffff&quot; face=&quot;calibri&quot;&gt;&lt;span style=&quot;font-size: 14px&quot;&gt;TRANSPORT&amp;nbsp;&lt;/span&gt;&lt;/font&gt;&lt;/div&gt;&lt;div&gt;&lt;font color=&quot;#feffff&quot; face=&quot;calibri&quot;&gt;&lt;span style=&quot;font-size: 14px&quot;&gt;PLANNING&lt;/span&gt;&lt;/font&gt;&lt;/div&gt;&lt;/font&gt;" style="verticalAlign=middle;align=center;vsdxID=639;rotation=270;fillColor=#7030a0;gradientColor=none;shape=stencil(nZBLDoAgDERP0z3SIyjew0SURgSD+Lu9kMZoXLhwN9O+tukAlrNpJg1SzDH4QW/URgNYgZTkjA4UkwJUgGXng+6DX1zLfmoymdXo17xh5zmRJ6Q42BWCfc2oJfdAr+Yv+AP9Cb7OJ3H/2JG1HNGz/84klThPVCc=);strokeColor=#939393;labelBackgroundColor=none;rounded=0;html=1;whiteSpace=wrap;" parent="18" vertex="1">
          <mxGeometry x="-44" y="44" width="136" height="48" as="geometry"/>
        </mxCell>
        <mxCell id="21" style="vsdxID=904;fillColor=none;gradientColor=none;strokeColor=none;labelBackgroundColor=none;rounded=0;html=1;whiteSpace=wrap;" parent="1" vertex="1">
          <mxGeometry x="25" y="227" width="1137" height="112" as="geometry"/>
        </mxCell>
        <mxCell id="22" style="vsdxID=905;fillColor=#7030a0;gradientColor=none;fillOpacity=0;shape=stencil(nZBLDoAgDERP0z3SIyjew0SURgSD+Lu9kMZoXLhwN9O+tukAlrNpJg1SzDH4QW/URgNYgZTkjA4UkwJUgGXng+6DX1zLfmoymdXo17xh5zmRJ6Q42BWCfc2oJfdAr+Yv+AP9Cb7OJ3H/2JG1HNGz/84klThPVCc=);strokeColor=#939393;labelBackgroundColor=none;rounded=0;html=1;whiteSpace=wrap;" parent="21" vertex="1">
          <mxGeometry width="1137" height="112" as="geometry"/>
        </mxCell>
        <mxCell id="23" value="&lt;font style=&quot;font-size:14px;font-family:Calibri;color:#feffff;direction:ltr;letter-spacing:0px;line-height:120%;opacity:1&quot;&gt;L.P.S.&lt;br/&gt;&lt;/font&gt;" style="verticalAlign=middle;align=center;vsdxID=907;rotation=270;fillColor=#7030a0;gradientColor=none;shape=stencil(nZBLDoAgDERP0z3SIyjew0SURgSD+Lu9kMZoXLhwN9O+tukAlrNpJg1SzDH4QW/URgNYgZTkjA4UkwJUgGXng+6DX1zLfmoymdXo17xh5zmRJ6Q42BWCfc2oJfdAr+Yv+AP9Cb7OJ3H/2JG1HNGz/84klThPVCc=);strokeColor=#939393;labelBackgroundColor=none;rounded=0;html=1;whiteSpace=wrap;" parent="21" vertex="1">
          <mxGeometry x="-33" y="32" width="112" height="48" as="geometry"/>
        </mxCell>
        <mxCell id="24" style="vsdxID=39;fillColor=#5b9bd5;gradientColor=none;shape=stencil(nZBLDoAgDERP0z3SIyDew0QUooJB/N1eSGM0LFywm2lf23QAxarbRQFna/BuVIfpggasgXNjtfImRAUoAUXvvBq822xHfmkTmdTs9rThpDmWJji7yFWMfEPoZOwHfZpF8A9aCGbno3h/jCYPIJYoPJQ3);strokeColor=#939393;labelBackgroundColor=none;rounded=0;html=1;whiteSpace=wrap;" parent="1" vertex="1">
          <mxGeometry x="73" y="71" width="1089" height="762" as="geometry"/>
        </mxCell>
        <mxCell id="25" style="vsdxID=40;fillColor=none;gradientColor=none;strokeColor=none;labelBackgroundColor=none;rounded=0;html=1;whiteSpace=wrap;" parent="1" vertex="1">
          <mxGeometry x="73" y="71" width="1089" height="762" as="geometry"/>
        </mxCell>
        <mxCell id="27" style="vsdxID=42;fillColor=#5b9bd5;gradientColor=none;shape=stencil(rZBLDoAgDERP0z3SI/i5B4kojQgE8Xd7IY3RuHY303lt0gGsF6OCBimWFP2kd+qTAWxASnJGR0pZAbaA9eCjHqNfXc8+qEIWNfutXDh4T5QNKU52lWDfMWrJvdA7/B/+C83i+XMga7mmd/7tJY+4U2wv);strokeColor=#939393;spacingTop=-1;spacingBottom=-1;spacingLeft=-1;spacingRight=-1;labelBackgroundColor=none;rounded=0;html=1;whiteSpace=wrap;" parent="25" vertex="1">
          <mxGeometry x="-48" width="1137" height="1" as="geometry"/>
        </mxCell>
        <mxCell id="28" style="vsdxID=457;fillColor=none;gradientColor=none;strokeColor=none;spacingTop=-1;spacingBottom=-1;spacingLeft=-1;spacingRight=-1;labelBackgroundColor=none;rounded=1;html=1;whiteSpace=wrap;" parent="1" vertex="1">
          <mxGeometry x="440" y="482" width="565" height="177" as="geometry"/>
        </mxCell>
        <mxCell id="29" style="vsdxID=458;fillColor=#bdd7ee;gradientColor=none;shape=stencil(nZFLDsIwDERP4y0KyQKxLuUCnCAihliEpEpL+ZyetANS6YJFs7JnXmxpTKZqvW2YtGq7nC58F9d5MjvSWqLnLF2pyNRkqlPKfM7pFh36xhZSq1Fhhz/rgdbK5uNBXgxts9r+PjAYck39sPwBVMF6foYp9HugQeIE/ZqL4D/oQnC2vhRjPAhOQkC6U38eZ5FwClO/AQ==);strokeColor=#939393;spacingTop=-1;spacingBottom=-1;spacingLeft=-1;spacingRight=-1;labelBackgroundColor=none;rounded=1;html=1;whiteSpace=wrap;" parent="28" vertex="1">
          <mxGeometry width="565" height="177" as="geometry"/>
        </mxCell>
        <mxCell id="31" value="&lt;p style=&quot;align:center;margin-left:0;margin-right:0;margin-top:0px;margin-bottom:0px;text-indent:0;valign:middle;direction:ltr;&quot;&gt;&lt;/p&gt;" style="verticalAlign=middle;align=center;vsdxID=462;fillColor=none;gradientColor=none;strokeColor=none;spacingTop=-3;spacingBottom=-3;spacingLeft=-3;spacingRight=-3;labelBackgroundColor=none;rounded=0;html=1;whiteSpace=wrap;" parent="28" vertex="1">
          <mxGeometry x="284" y="158" width="16" height="16" as="geometry"/>
        </mxCell>
        <mxCell id="34" value="&lt;p style=&quot;align:center;margin-left:0;margin-right:0;margin-top:0px;margin-bottom:0px;text-indent:0;valign:middle;direction:ltr;&quot;&gt;&lt;/p&gt;" style="verticalAlign=middle;align=center;vsdxID=470;fillColor=none;gradientColor=none;strokeColor=none;spacingTop=-1;spacingBottom=-1;spacingLeft=-1;spacingRight=-1;labelBackgroundColor=none;rounded=0;html=1;whiteSpace=wrap;" parent="28" vertex="1">
          <mxGeometry x="548" y="4" width="14" height="14" as="geometry"/>
        </mxCell>
        <mxCell id="35" value="&lt;p style=&quot;margin-left: 0 ; margin-right: 0 ; margin-top: 0px ; margin-bottom: 0px ; text-indent: 0 ; direction: ltr&quot;&gt;&lt;font style=&quot;font-size: 14px ; font-family: &amp;#34;calibri&amp;#34; ; color: #002060 ; direction: ltr ; letter-spacing: 0px ; line-height: 120% ; opacity: 1&quot;&gt;&lt;b&gt;&lt;/b&gt;&lt;/font&gt;&lt;/p&gt;&lt;p style=&quot;margin: 0px ; direction: ltr&quot;&gt;&lt;font color=&quot;#002060&quot; face=&quot;calibri&quot;&gt;&lt;span style=&quot;font-size: 14px&quot;&gt;&lt;b&gt;STUDY PROCESS&lt;/b&gt;&lt;/span&gt;&lt;/font&gt;&lt;/p&gt;" style="text;vsdxID=457;fillColor=none;gradientColor=none;strokeColor=none;spacingTop=-1;spacingBottom=-1;spacingLeft=-1;spacingRight=-1;labelBackgroundColor=none;rounded=1;html=1;whiteSpace=wrap;verticalAlign=top;align=left;;html=1;" parent="28" vertex="1">
          <mxGeometry x="-4.3" y="5.98" width="565.77" as="geometry"/>
        </mxCell>
        <mxCell id="36" style="vsdxID=1;fillColor=none;gradientColor=none;strokeColor=none;spacingTop=-1;spacingBottom=-1;spacingLeft=-1;spacingRight=-1;labelBackgroundColor=none;rounded=0;html=1;whiteSpace=wrap;" parent="1" vertex="1">
          <mxGeometry x="97" y="142" width="40" height="40" as="geometry"/>
        </mxCell>
        <mxCell id="37" style="vsdxID=2;fillColor=#c5e0b3;gradientColor=none;shape=stencil(vVHLDsIgEPwajiQI6RfU+h8bu22JCGRB2/69kG1iazx58DazM/vIjjBtmiCi0CplCjecbZ8nYc5Ca+snJJsLEqYTph0C4Ujh4XvmEaqzont41gkL96naodXKrGF6YSfQtUi0OXXDVlqPfJNP6usotUhYbJIUMmQb/GGrAxpRljVycDBuc1hKM2LclX8/7H9nFfB+82Cd45T2+mcspcSRmu4F);strokeColor=#939393;spacingTop=-1;spacingBottom=-1;spacingLeft=-1;spacingRight=-1;labelBackgroundColor=none;rounded=0;html=1;whiteSpace=wrap;" parent="36" vertex="1">
          <mxGeometry width="40" height="40" as="geometry"/>
        </mxCell>
        <mxCell id="41" style="vsdxID=46;fillColor=none;gradientColor=none;strokeColor=none;spacingTop=-1;spacingBottom=-1;spacingLeft=-1;spacingRight=-1;labelBackgroundColor=none;rounded=1;html=1;whiteSpace=wrap;" parent="1" vertex="1">
          <mxGeometry x="178" y="130" width="126" height="64" as="geometry"/>
        </mxCell>
        <mxCell id="42" style="vsdxID=47;fillColor=#c7a0e2;gradientColor=none;shape=stencil(nZFLDsIwDERP4y0KyQKxLuUCnCAihliEpEpL+ZyetANS6YJFs7JnXmxpTKZqvW2YtGq7nC58F9d5MjvSWqLnLF2pyNRkqlPKfM7pFh36xhZSq1Fhhz/rgdbK5uNBXgxts9r+PjAYck39sPwBVMF6foYp9HugQeIE/ZqL4D/oQnC2vhRjPAhOQkC6U38eZ5FwClO/AQ==);strokeColor=#939393;spacingTop=-1;spacingBottom=-1;spacingLeft=-1;spacingRight=-1;labelBackgroundColor=none;rounded=1;html=1;whiteSpace=wrap;" parent="41" vertex="1">
          <mxGeometry width="126" height="64" as="geometry"/>
        </mxCell>
        <mxCell id="49" value="&lt;font style=&quot;direction: ltr ; line-height: 120% ; opacity: 1&quot;&gt;&lt;div&gt;&lt;font color=&quot;#feffff&quot; face=&quot;calibri&quot;&gt;&lt;span style=&quot;font-size: 11px&quot;&gt;Negotiation that can impact logistics&lt;/span&gt;&lt;/font&gt;&lt;/div&gt;&lt;div style=&quot;color: rgb(254 , 255 , 255) ; font-family: &amp;#34;calibri&amp;#34; ; font-size: 11px ; letter-spacing: 0px&quot;&gt;&lt;br&gt;&lt;/div&gt;&lt;/font&gt;" style="text;vsdxID=46;fillColor=none;gradientColor=none;strokeColor=none;spacingTop=-1;spacingBottom=-1;spacingLeft=-1;spacingRight=-1;labelBackgroundColor=none;rounded=1;html=1;whiteSpace=wrap;verticalAlign=middle;align=center;;html=1;" parent="41" vertex="1">
          <mxGeometry y="32" width="126" as="geometry"/>
        </mxCell>
        <mxCell id="50" style="vsdxID=95;fillColor=none;gradientColor=none;strokeColor=none;spacingTop=-1;spacingBottom=-1;spacingLeft=-1;spacingRight=-1;labelBackgroundColor=none;rounded=1;html=1;whiteSpace=wrap;" parent="1" vertex="1">
          <mxGeometry x="346" y="268" width="172" height="64" as="geometry"/>
        </mxCell>
        <mxCell id="51" style="vsdxID=96;fillColor=#c7a0e2;gradientColor=none;shape=stencil(nZFLDsIwDERP4y0KyQKxLuUCnCAihliEpEpL+ZyetANS6YJFs7JnXmxpTKZqvW2YtGq7nC58F9d5MjvSWqLnLF2pyNRkqlPKfM7pFh36xhZSq1Fhhz/rgdbK5uNBXgxts9r+PjAYck39sPwBVMF6foYp9HugQeIE/ZqL4D/oQnC2vhRjPAhOQkC6U38eZ5FwClO/AQ==);strokeColor=#939393;spacingTop=-1;spacingBottom=-1;spacingLeft=-1;spacingRight=-1;labelBackgroundColor=none;rounded=1;html=1;whiteSpace=wrap;" parent="50" vertex="1">
          <mxGeometry width="172" height="64" as="geometry"/>
        </mxCell>
        <mxCell id="58" value="&lt;font style=&quot;direction: ltr ; line-height: 120% ; opacity: 1 ; font-size: 11px&quot; color=&quot;#feffff&quot; face=&quot;calibri&quot;&gt;&lt;div&gt;&lt;span&gt;Survey of logistics data with the supplier&lt;/span&gt;&lt;br&gt;&lt;/div&gt;&lt;/font&gt;" style="text;vsdxID=95;fillColor=none;gradientColor=none;strokeColor=none;spacingTop=-1;spacingBottom=-1;spacingLeft=-1;spacingRight=-1;labelBackgroundColor=none;rounded=1;html=1;whiteSpace=wrap;verticalAlign=middle;align=center;;html=1;" parent="50" vertex="1">
          <mxGeometry y="32" width="172.27" as="geometry"/>
        </mxCell>
        <mxCell id="59" style="vsdxID=215;fillColor=none;gradientColor=none;strokeColor=none;spacingTop=-1;spacingBottom=-1;spacingLeft=-1;spacingRight=-1;labelBackgroundColor=none;rounded=0;html=1;whiteSpace=wrap;" parent="1" vertex="1">
          <mxGeometry x="400" y="468" width="27" height="36" as="geometry"/>
        </mxCell>
        <mxCell id="60" value="" style="verticalAlign=top;align=center;vsdxID=216;fillColor=#c7a0e2;gradientColor=none;shape=stencil(rZLbDoMgDIafpremA2O8d+49TEQhY2CQnd5+YLPMkC0Gs7sevpL25wfezLKbBDCcvbNncVe9l8CPwJgyUjjlQwS8Bd4M1onR2avpKZ+6SMboYm/xhQfNHRDjDMMn5awu6qVwIlors6Krcj+Mv0ncB753/4qmh2XB6WEbmlVF+Q8ZstTN+7itlUPwccigtCaDrfupo0KJ3MjbFw==);strokeColor=#939393;spacingTop=-1;spacingBottom=-1;spacingLeft=-1;spacingRight=-1;labelBackgroundColor=none;rounded=0;html=1;whiteSpace=wrap;" parent="59" vertex="1">
          <mxGeometry width="27" height="36" as="geometry"/>
        </mxCell>
        <mxCell id="61" style="vsdxID=281;fillColor=none;gradientColor=none;strokeColor=none;spacingTop=-1;spacingBottom=-1;spacingLeft=-1;spacingRight=-1;labelBackgroundColor=none;rounded=1;html=1;whiteSpace=wrap;" parent="1" vertex="1">
          <mxGeometry x="472" y="571" width="126" height="64" as="geometry"/>
        </mxCell>
        <mxCell id="62" style="vsdxID=282;fillColor=#7da8ff;gradientColor=none;shape=stencil(nZFLDsIwDERP4y0KyQKxLuUCnCAihliEpEpL+ZyetANS6YJFs7JnXmxpTKZqvW2YtGq7nC58F9d5MjvSWqLnLF2pyNRkqlPKfM7pFh36xhZSq1Fhhz/rgdbK5uNBXgxts9r+PjAYck39sPwBVMF6foYp9HugQeIE/ZqL4D/oQnC2vhRjPAhOQkC6U38eZ5FwClO/AQ==);strokeColor=#939393;spacingTop=-1;spacingBottom=-1;spacingLeft=-1;spacingRight=-1;labelBackgroundColor=none;rounded=1;html=1;whiteSpace=wrap;" parent="61" vertex="1">
          <mxGeometry width="126" height="64" as="geometry"/>
        </mxCell>
        <mxCell id="69" value="&lt;font style=&quot;direction: ltr ; line-height: 120% ; opacity: 1&quot;&gt;&lt;div&gt;&lt;font color=&quot;#feffff&quot; face=&quot;calibri&quot;&gt;&lt;span style=&quot;font-size: 11px&quot;&gt;Penske performs the study with the data sent&lt;/span&gt;&lt;/font&gt;&lt;/div&gt;&lt;/font&gt;" style="text;vsdxID=281;fillColor=none;gradientColor=none;strokeColor=none;spacingTop=-1;spacingBottom=-1;spacingLeft=-1;spacingRight=-1;labelBackgroundColor=none;rounded=1;html=1;whiteSpace=wrap;verticalAlign=middle;align=center;;html=1;" parent="61" vertex="1">
          <mxGeometry y="32" width="126" as="geometry"/>
        </mxCell>
        <mxCell id="70" style="vsdxID=385;fillColor=none;gradientColor=none;strokeColor=none;spacingTop=-1;spacingBottom=-1;spacingLeft=-1;spacingRight=-1;labelBackgroundColor=none;rounded=1;html=1;whiteSpace=wrap;" parent="1" vertex="1">
          <mxGeometry x="499" y="746" width="126" height="64" as="geometry"/>
        </mxCell>
        <mxCell id="71" style="vsdxID=386;fillColor=#c7a0e2;gradientColor=none;shape=stencil(nZFLDsIwDERP4y0KyQKxLuUCnCAihliEpEpL+ZyetANS6YJFs7JnXmxpTKZqvW2YtGq7nC58F9d5MjvSWqLnLF2pyNRkqlPKfM7pFh36xhZSq1Fhhz/rgdbK5uNBXgxts9r+PjAYck39sPwBVMF6foYp9HugQeIE/ZqL4D/oQnC2vhRjPAhOQkC6U38eZ5FwClO/AQ==);strokeColor=#939393;spacingTop=-1;spacingBottom=-1;spacingLeft=-1;spacingRight=-1;labelBackgroundColor=none;rounded=1;html=1;whiteSpace=wrap;" parent="70" vertex="1">
          <mxGeometry width="126" height="64" as="geometry"/>
        </mxCell>
        <mxCell id="78" value="&lt;font style=&quot;direction: ltr ; line-height: 120% ; opacity: 1&quot;&gt;&lt;div&gt;&lt;font color=&quot;#feffff&quot; face=&quot;calibri&quot;&gt;&lt;span style=&quot;font-size: 11px&quot;&gt;Performs freight negotiation for this route / material&lt;/span&gt;&lt;/font&gt;&lt;/div&gt;&lt;/font&gt;" style="text;vsdxID=385;fillColor=none;gradientColor=none;strokeColor=none;spacingTop=-1;spacingBottom=-1;spacingLeft=-1;spacingRight=-1;labelBackgroundColor=none;rounded=1;html=1;whiteSpace=wrap;verticalAlign=middle;align=center;;html=1;" parent="70" vertex="1">
          <mxGeometry y="32" width="126" as="geometry"/>
        </mxCell>
        <mxCell id="79" style="vsdxID=497;fillColor=none;gradientColor=none;strokeColor=none;spacingTop=-1;spacingBottom=-1;spacingLeft=-1;spacingRight=-1;labelBackgroundColor=none;rounded=1;html=1;whiteSpace=wrap;" parent="1" vertex="1">
          <mxGeometry x="855" y="572" width="126" height="63" as="geometry"/>
        </mxCell>
        <mxCell id="80" style="vsdxID=498;fillColor=#7da8ff;gradientColor=none;shape=stencil(nZFLDsIwDERP4y0KyQKxLuUCnCAihliEpEpL+ZyetANS6YJFs7JnXmxpTKZqvW2YtGq7nC58F9d5MjvSWqLnLF2pyNRkqlPKfM7pFh36xhZSq1Fhhz/rgdbK5uNBXgxts9r+PjAYck39sPwBVMF6foYp9HugQeIE/ZqL4D/oQnC2vhRjPAhOQkC6U38eZ5FwClO/AQ==);strokeColor=#939393;spacingTop=-1;spacingBottom=-1;spacingLeft=-1;spacingRight=-1;labelBackgroundColor=none;rounded=1;html=1;whiteSpace=wrap;" parent="79" vertex="1">
          <mxGeometry width="126" height="63" as="geometry"/>
        </mxCell>
        <mxCell id="87" value="&lt;font style=&quot;direction: ltr ; line-height: 120% ; opacity: 1&quot;&gt;&lt;div&gt;&lt;font color=&quot;#feffff&quot; face=&quot;calibri&quot;&gt;&lt;span style=&quot;font-size: 11px&quot;&gt;Disclosure Meeting&lt;/span&gt;&lt;/font&gt;&lt;/div&gt;&lt;/font&gt;" style="text;vsdxID=497;fillColor=none;gradientColor=none;strokeColor=none;spacingTop=-1;spacingBottom=-1;spacingLeft=-1;spacingRight=-1;labelBackgroundColor=none;rounded=1;html=1;whiteSpace=wrap;verticalAlign=middle;align=center;;html=1;" parent="79" vertex="1">
          <mxGeometry y="31" width="126" as="geometry"/>
        </mxCell>
        <mxCell id="88" style="vsdxID=546;fillColor=none;gradientColor=none;strokeColor=none;spacingTop=-1;spacingBottom=-1;spacingLeft=-1;spacingRight=-1;labelBackgroundColor=none;rounded=0;html=1;whiteSpace=wrap;" parent="1" vertex="1">
          <mxGeometry x="996" y="572" width="76" height="63" as="geometry"/>
        </mxCell>
        <mxCell id="89" value="" style="verticalAlign=top;align=center;vsdxID=547;fillColor=#7da8ff;gradientColor=none;shape=stencil(nZBNDoUgDIRP0z3SeAKf3sNElEYEg/h3+wdpjIaFC3cz9OukDGC16HZWIMUSvBvVTl3QgD+QkqxWnkJUgDVg1TuvBu9W27Gf20QmNbktJRy8V4q0IsXJthDsG2YN2Qd7DS+4fGGz3Bfyc2Z2axT3J3syhjt6zvNS4hMXivUf);strokeColor=#939393;shadow=1;labelBackgroundColor=none;rounded=0;html=1;whiteSpace=wrap;" parent="88" vertex="1">
          <mxGeometry width="76" height="63" as="geometry"/>
        </mxCell>
        <mxCell id="93" value="&lt;font style=&quot;direction: ltr ; line-height: 120% ; opacity: 1&quot;&gt;&lt;div&gt;&lt;font color=&quot;#feffff&quot; face=&quot;calibri&quot;&gt;&lt;span style=&quot;font-size: 11px&quot;&gt;Approved?&lt;/span&gt;&lt;/font&gt;&lt;/div&gt;&lt;/font&gt;" style="text;vsdxID=546;fillColor=none;gradientColor=none;strokeColor=none;spacingTop=-1;spacingBottom=-1;spacingLeft=-1;spacingRight=-1;labelBackgroundColor=none;rounded=0;html=1;whiteSpace=wrap;verticalAlign=middle;align=center;;html=1;" parent="88" vertex="1">
          <mxGeometry x="-4.03" y="2.43" width="84.66" height="57.15" as="geometry"/>
        </mxCell>
        <UserObject label="" link="data:page/id,PROCESSO IMPLANTAÇÃO" id="94">
          <mxCell style="vsdxID=563;fillColor=none;gradientColor=none;strokeColor=none;spacingTop=-1;spacingBottom=-1;spacingLeft=-1;spacingRight=-1;labelBackgroundColor=none;rounded=1;html=1;whiteSpace=wrap;" parent="1" vertex="1">
            <mxGeometry x="1084" y="564" width="76" height="80" as="geometry"/>
          </mxCell>
        </UserObject>
        <mxCell id="95" style="vsdxID=564;fillColor=#7da8ff;gradientColor=none;shape=stencil(nZFLDsIwDERP4y0KyQKxLuUCnCAihliEpEpL+ZyetANS6YJFs7JnXmxpTKZqvW2YtGq7nC58F9d5MjvSWqLnLF2pyNRkqlPKfM7pFh36xhZSq1Fhhz/rgdbK5uNBXgxts9r+PjAYck39sPwBVMF6foYp9HugQeIE/ZqL4D/oQnC2vhRjPAhOQkC6U38eZ5FwClO/AQ==);strokeColor=#939393;spacingTop=-1;spacingBottom=-1;spacingLeft=-1;spacingRight=-1;labelBackgroundColor=none;rounded=1;html=1;whiteSpace=wrap;" parent="94" vertex="1">
          <mxGeometry width="76" height="80" as="geometry"/>
        </mxCell>
        <mxCell id="98" style="vsdxID=569;fillColor=none;gradientColor=none;strokeColor=none;labelBackgroundColor=none;rounded=0;html=1;whiteSpace=wrap;" parent="94" vertex="1">
          <mxGeometry x="30" y="60" width="16" height="16" as="geometry"/>
        </mxCell>
        <mxCell id="99" style="vsdxID=570;fillColor=#FFFFFF;gradientColor=none;shape=stencil(nZBLDoAgDERP0z3SIyjewwQUogJB/N1eSGM0LFy4m2lf23QA60V3XgFnSwxuVLuRUQM2wLmxWgUTkwIUgHXvghqCW60k77tMZjW7LW84aI7lCc5OchUj3xI6GftC7+Yv+AP9CRbnk3h+pHjevTKPVKIsUVw=);strokeColor=#939393;labelBackgroundColor=none;rounded=0;html=1;whiteSpace=wrap;" parent="98" vertex="1">
          <mxGeometry width="16" height="16" as="geometry"/>
        </mxCell>
        <mxCell id="100" style="vsdxID=571;fillColor=#000000;gradientColor=none;shape=stencil(nZLdDsIgDIWfpvdINT7A3N5jyZgQERaGOt9eSDVuJCMbd6f06w/NAaxG2Q4COBu9szfxUp2XgBfgXBkpnPJBAdaAVW+duDr7MB3FQxvJqO72GTtMVHfEWMLZexE2hGplZigrJE/ndTIZvwM9MLbOfvuUsLkVfn1K2Ny9khV2oJl/JffaTi7HB/H3Tq+0JuvN86nXwhP5FOsP);strokeColor=#939393;labelBackgroundColor=none;rounded=0;html=1;whiteSpace=wrap;" parent="98" vertex="1">
          <mxGeometry x="4" y="4" width="8" height="8" as="geometry"/>
        </mxCell>
        <mxCell id="104" value="&lt;font style=&quot;direction: ltr ; line-height: 120% ; opacity: 1&quot;&gt;&lt;div&gt;&lt;font color=&quot;#feffff&quot; face=&quot;calibri&quot; style=&quot;font-size: 10px&quot;&gt;IMPLEMENTATION PROCESS&lt;/font&gt;&lt;/div&gt;&lt;/font&gt;" style="text;vsdxID=563;fillColor=none;gradientColor=none;strokeColor=none;spacingTop=-1;spacingBottom=-1;spacingLeft=-1;spacingRight=-1;labelBackgroundColor=none;rounded=1;html=1;whiteSpace=wrap;verticalAlign=middle;align=center;;html=1;" parent="94" vertex="1">
          <mxGeometry y="40" width="76.59" as="geometry"/>
        </mxCell>
        <mxCell id="105" value="&lt;font style=&quot;direction: ltr ; line-height: 120% ; opacity: 1&quot;&gt;&lt;div&gt;&lt;font color=&quot;#002060&quot; face=&quot;calibri&quot;&gt;&lt;span style=&quot;font-size: 25px&quot;&gt;IMPLEMENTATION FLOWCHART - INBOUND TRANSPORTATION&lt;/span&gt;&lt;/font&gt;&lt;/div&gt;&lt;/font&gt;" style="verticalAlign=middle;align=center;vsdxID=589;fillColor=none;gradientColor=none;shape=stencil(nZBLDoAgDERP0z3SIyjew0SURgSD+Lu9kMZoXLhwN9O+tukAlrNpJg1SzDH4QW/URgNYgZTkjA4UkwJUgGXng+6DX1zLfmoymdXo17xh5zmRJ6Q42BWCfc2oJfdAr+Yv+AP9Cb7OJ3H/2JG1HNGz/84klThPVCc=);strokeColor=none;labelBackgroundColor=none;rounded=0;html=1;whiteSpace=wrap;" parent="1" vertex="1">
          <mxGeometry x="25" y="25" width="1137" height="40" as="geometry"/>
        </mxCell>
        <mxCell id="106" style="vsdxID=218;fillColor=none;gradientColor=none;image;aspect=fixed;image=data:image/png,iVBORw0KGgoAAAANSUhEUgAAALkAAABGCAYAAACQaTWQAAAAAXNSR0IArs4c6QAAAARnQU1BAACxjwv8YQUAAAAJcEhZcwAADsMAAA7DAcdvqGQAABugSURBVHhe7Z0v7B1HkscDDhw4YHDgwEp+9q1Oq9MBgwUHTkqAwemU2F7JJy04EGDpVqdL5pdVwIKV1pJBQEBAgMECgwCDgAADgwCDgIAAAwMDA4MAAwMDgx8IuPt+qqt6amZ65s37/Z79c5z3lUrvTXd1dXd1dXf1nzfvnQPePHxw/pN/vXLh6MGVzdHLqxe676+e797zqFeGaxc+/q+rm6MvRZ/+7tcf/cqDDxjjdxc//pcrm+7PapibVy4e/UmNc8mjTgzJuOYyb39w4eP/3YfMNxnU7+qm++nqhaP/yyQjfN9Z9g7p9u4gv033/P3zf/yNRx8A3j3/l7+dKKpSd//9f/rj3zvrajCaKO33LZka5b4gT2d9qyAD+7pVZ4X/4Cx7BYNIKz9mEmc5AEgh11uKqqQGevfdv/yNs2+FFH9OBv64KUtEA/znP//P3zn7W4X5enfHzrJXMGCsze+Df/zk1/CL7qyi80d/2KXd33jMjkCVutvOughGaPmi37VlmIG/OMnM8HOB6ve0VW/IWfYKjLGVF+QsBlxRtfHEjdpGuK0u4ucPDK9VyUxr/MorF7rPW2l7WtdZfq54U41cfDMj/jJpwHrkIt4OSBEPWxUNogGX3IxrFz/+t22jxatcgL0JeFONXM83xvFrCPku4u2AKrS1t8Pj7ANg/EsNXKg7flt98cCSDpxlr8AIW3lBzmLAt2aWpXw70J23bjtSC8YPW8oakEZq9oE9SYWmta+a/IlQnLO/taCOrbpDzrJXYIitvCBnOSBjlZGL8NPyqvvK+U9+3+IbEwtST/JKULZCNS3boUj3Gd//4/yn/+DRe8Xc4vlg5PPQ4PjvZz6TrzVyKFbdSrORol+0eCa06b62jBZA5+H0jpkBg9Enp4bHZjzsAKmMrT12Dj/E++M4T9K3dgjKbsPRl3Q8y4cTyvNHf/DoJiwPjGrTPSnyu2PR9zSes5zYyFmrRJ1N7qZ7LvqBMNV59sTUytPIC3KWJk6aH1D8JdqItlhNZeD5SfSZizkb2IlkQ1lt6o7Zd0Ux7fgp0SCeVRN2HK5ZopV2SN1jKW7QEHo+p7TzW5duwHQiFG0Kb/DRGCZwBFtUX+ieNdMYdbeL37ubkTOyKe3MQVym7jFl8GQVuxr5afLz+n3T5l9L3WMXdzZQAW62C9YmVXjdCO40Z+S2t87W4677uDLIPP3hQsjQNfI3eGWgbuBbzgNUzotHv3WRBuvMNmq3+YOon2i1kZPPEv+YrG7nu2ue3ECeLV7IWSpOm5+N3g2+3ejVHIqtxpVN99dxoaSUF/OGs0TTUY8G8awG2L63Pk+U2cUYVNZ7Lb5Ca0YwK+dgB0kyty6q15CLM5SOPWdw5j7MzDQKT/d/0GmTT+Qshn3kJ76dBsE2dd9bgc4KFGBcKCnmgSp5NA5fpu5uS/nI8qwqFHZ5zBck43pkboJcE8mcvSaQR5tWvpkkU367ytfw34NyOc13b/AEiZe1wvNW3JhcpEFlaBqM5D1Ufc6xYG61R6HurotZbeT7yO+kp6aZ8vrltcOm8uaU3N31uBkFDMkaHf+4qfyhP+buRdvYpMx8k04yN+3yGe/z2EVZanTSBx+y2zxQX07lu9TBb8Gz1g0ygcJcXaSLl6M6ty9fSWfOssrI95kf6ybJYhB7MEOzLqzivnExZwP8tXbBus+JX9WLFR+LFSrUiH9OXGDZgLr7zlaxZEhc54VH+S4Z+eBKgXjb03cqJw3a4skND1QXLqUt+u3OOrvAl8yvnMVQrihP+cjHWVYZ+T7zm4PPBAvuYPc4BpgzgxZxnzYLp3Bn2eqThaEBKf9BiwdjcJamexTU2s5T+MLRdPH1lhpdcZdNkGPWyEXOQhmbblJ0/gzJW9x5cDZk3m7F0+mdJRa7czca60yzVF9n2Wt+Y9gsJjkqx8ImxBtg4EC9urn9xkGPs4RL01bEpvuWeGedNXKFV0NjNGzxQDnfAGlbvFCMrEuNrsYYbDuKd24k/8lZZnmanbAcQE14g5xttnMrL3WS7iYjrD7nZ4VknEv1dZa95pfhs/viFrJkP3ojDLz8wKFdSFVw42wG88kmbkv3bFwRKbBt5OlgphVfqXEgQViT1wmepUYfyxRv24AV7iyzPGynOUsFBtPiDXI2OvcJdqtE0jszyGgw2Wrk+8wvIF1e2ypX7uUbc1dprnFyY2cofHCRq7ViLqPDUB6ktHXxIZ6lHY7rzlaxZOTIgmep0U9k5PNlvOEsFauNfMfzBQYRlePeuPxgqb7Ostf8gHhW3Gjsbjr72UMVYSekqQQU6GwD0DsVZwaiz+atRMLH8oxfvT96txSxtGMzMSI6U4PPabtPfkIjb5+iNo6n7ei6xevkbLP5qg6c5H6o+OuUFdr2A5Ol+jrLXvNrz+Q90b6SMziwOnOoou1FCSQFONsEGJyU87A1lYH5lbrI5epzdndFyhqs/IHKOjtSrtpdOYmRz3VW1d1ZKlTm2ZkJcjb42odLMh6MyNlWYam+zrK3/OxAaWn2lf+Nn+7sFQxqvsNjW66nghrxHL6iGvyvGC+LtyWfaOvtwZE/Pgb5+dcJFDd72UsNY4ctjBpSdPsgJe19A1v0zixypNyXce95qdFPYuRK09w7hrJfPrs7lchZF2Uq7xetRTdAB8Tlve2l+sZFtn3lt9SmdBjZnB0CDshmQl/UiifKFLA8LhxdxveH39/o0LY7m8obBqOEHM4MXgOBYBO2NO24IZ4UVp6G3EpeJhnK+814EQpi3x0DLh23zZeNDUW1eIxGRq76+23CKaEjeKwRZkcvux3JAcjiL6qCcqdVmsXtRvJ0nls+aN219lWZXYRBdZqdDfOouo/81tZzkZIB6ztnC/cnPLLLmJkr7FfYiytd9aTkerD91eZLNDKIXcEMQmGbskUoLAxJ5Zt3mbZSf8QNJHf2103jqXmp49BJnW3RkKY0vxVHh3aR1sAq64yvvECj7Tw9X2ryQanNT5ufXa9oxe9IMZL79uPsIAPVbVoMRczbr7vSO/x2HRmpMRavjZrwU0JytlwFKCtwW8guGNwcqWN/NXbHZl0w1X/M6++Gmdv3f8LgAZ/7orPXeAfE1tqcMamdchnodOJdv/Oh9OPpHkjG3JnE0/zztdPkx9ZvH6eObDbXuyd6/lY0O6hB4rOdNbe/mYOnTN2xzUZKOHtAMiEK7aMnPbM9+pd70fCcFspv8XAEpeQRs4wWKyovA6TenmwAcy8ajZ735zNwIebz7LfBSkdcMvTuGBcQXhpGvE0Xh45pAh3kT1iLN5N47s3tfFgdMLJ2ur3khy5M73gBM2sxW2OJT/pvdKTuWQwaJmsS3ybJ+kIJdvwVdprubMpggVr8ym8UdyoXZYz1U1xvTBhpWTzv9sugjDLydn+mTqI7jK4e1YR3jOsif/FO97nSTF5nZyMQI3WUzUbs7nvSZX8biO+cLUZlfM4rf7a7OZ5NAuJ/Dzkiu+RktDl6pE/Kv6pdyvrGRteHSvsd+c8NWLvmh61s03sg6u6yoS8UZr54uRi3cLo6IpXpHkZ+axyxRErEPmZza3DbHulJoAquXKxoATIzQhzw88KcHal9tX5Y46b0RMdbt4hskIzvG9+uuYYfy+gV08k+wajcyr9F1gE3R1/aDHAw+J8tmK2YtbBN3FG1bfy4fNFnb1N3n96xOVniTN2zvPe6T5jrcJKtp033fG5qD9ARREd0UDqGBx/wCuFrGPzu5poosH0Ns5LC61CmJ96CY/R81QayfYtzSlLi5O7KGLZ/bn6x0owWsW8r6Ni+3tiqn1cBG5Gtjba/KMo7xE7uSSZclbqm4IsaeesvU6bU8YL4yQLrVYBF0XpDX7+Fqcauhz+Sf8+D31pg4FVPW06kXwWk737nakX++Oe5jdZT4w667RBcPPrTOkPqnuEre9LXBt/Nme3ZVvaZRfEcBkauBvDgrSizgNycM9DDGsyVT/q5xqyluj5du9uxT+xq5AHOaGxQjbSL1N2dGHiGHXDgp8ofQhGukBf6fEJijEh0pos63AqV7yurdNnzRnG3dlFaQGkHRk5nxzBYVOdVfj4UAfnwae16xLYQtYhioU4+PrD8lk/izQ8t+8h1yxJdj6d1hfHD7Nv6PKKMPss9qid8wlL50NMuBr62XLiVao/PpEe2/Gwbsbgn3ePobN5WxRhP0F62EJVM6iu5fiBpV3sfkbfid7qg9ovA2MhpjPqMoZT9YPPbpcgfaUhrzDyjcGjljWojqO+Di8dO9sL4xFOP921nymWI124kZlfCZy37zaPkvYz1go1og40CybAByOS8gGepfGawyieP8KXz2WKQ/fGXGAyzQBjxmnKVmWN4iJM7WpRNn6cy8gNOACl9YOQ0dn0ul45Gp2/d7dLo+UBCI4qM2WZBv+RmxpIaVN/toKimMUPtZUx9TzPe3pg33beUV5/pFNguQQ3ub1idZsrXx5VwRngz+rx7ZcftNd1jj99aLlzdCENvrS0/4zsY+etHbsDSAAMjtyu4Cu8vbUWjDhurTM0+wkHhkiCjhGlKzXkxyvn1WvHYi0xzvBkJW5zBr5nB8yijv+TyjKtS04gIA63ygUEeCi/uRHmWTDvCZxSvPLgGK8qlz76juFujsMHNRQ87GPnrRm7A0gDJyPUMTyts1FhmRDKSet8EdwSjiWd9v5fzUhq7XoAPGT55jtd320dOz2FMfnmr/JIJQwkeiDAgvlVG3svrrxznjkN8TqPvzXKp89cZBXfJeQan6YSJ/2DkrxujBjyVkauh+/v4+OLwsDXLHRAZtJ4HRk6ajFG8zw7lWXExkvsOQ/eM57Lr4GlEhIFW+cA4D+TGs77b3vmSkc+VS581vzg3yT45NOaTrIORvw7kBiwNsLuRx+1BM2gP43ss3DBwFmw5LzXwiYxcn70LwCUmzRD1WQQPyOWTrPYrKJRHdlf4Do/Knv1+LuBtLRd8lafcaLyhuMF6xvhKXMg6GPnrgBqi+tv6/k1emKnh7C1ceVFFIxGm7/1UXEZw28JUmsE9e3NhtAArNyqTIbSMPI98YUy+eAtj0uf0anTwuJ8O9FzL58Zmv48c50FHVLnS2UP/3cou/3tNuRQ+/ZPd9EwZ4Mv6VdiZnLr+4oD/qMb8zkhTv22/4V/KcGN7zI6XPSwaxhaVLNAIKzspFg4vRkHj07CK/1YGYAsx/G/jlfG0DiswIOSJ+h8bsCtjafqfc4nvQ4VxrfUp25P40sikMzrLbPksjwvdMekjj2LoR7fEk7YQba/bzkPWlgs3R2HlfEVuVakvHUSLbt9GpVw2exQf/vQ/TD7g1YNGj4XjGoSRvC60yhfGe8ABBxxwwAEHHHDAAQcccMABBxxwwAEHHHDAAQf8wsCdZk63uF7KIYK+D16qU04Djz7Nv5gBnJhxN3kcfhIgR/ny66NNnDieBNSDEz9OMT3oVOBAhZNFTuko15WZX5vb6SFH3Jb/0eWWTgi/avdh7E7MjV0Ok950cOrK6eZcndboERuAZ5s9uY1unN4jX7uCwQmtiKsUVYbfX7C3g16x66LcX+juqwB2GcmujXJU299X6P/tgYtA5cjXfjc4/qkVlVKcXcoh3WzlKbCXoXyWn7YRZz9GwPCLYdz2T3utgcJ5rcQ1Op/xbD76yI6WN36P28uFvFAKlVfYF7kDoAM6MYoXD0qqp4JWh1w2bhhKvkcPoDh+/mVvlfL866v1gOTWF2yK5yHlmNOJlaP8SOE5F7w8uIJ62C+MpCeV51HogDqMrw2Qh10SwxD45RLvfHRjEGEkk1NQuy7gVwNUDn5ixi+e7nAsr8/rudyFN786hDs8KvsOeqRsffpC1iFUPrsqwXUDLwP5Kz265u1dtG+6M+RvTCNMeVjGSujvt+ieYQiWIT3SjTxQErogZezBNAb/NmAXdcYQ7/A1dFKqRw2g9OWmW9yEswYur0BWo/Hfjxi15U+5uDNBh7LZxa6fWsXu0HgDeYVuSB4X/bkZ1xtgqq8rrNzck2LEX2/uKaxcdkJhgs02erbIGdAgJQ+V18sEyl2OEh51nYNk1BuGpPPgCsqoOrjRwHP0I0ZAvexZBuqsYYTcspy8Yq3oY/qXkDbSpstpZielrb2tuh/GnSl4Je/ueCRW+Co9Sr7bWXn9H21knVJhplfZht0n8sEOnvJc8g5dwUedR29x7d8pKAZeOmSFCfSZm6DxhaHB/1IGJJN3/SWD6/MI2OgZcv0iEVD+zymHP5K/GaHyqq+O8E5qF4o8yDDIU+XzYEPIGceVkcbCakfU93OS77PC4O8aeZ317B0Q0kQ6fdaXZqpO9ccFCrdfBLUg2Rq9GHz8VuCoLQKqS72VSJ0Jswa30dfqMqy7zdSW94/UlzDyolzGMEIYYpYPStmsXF97kKHFC3bRo9KWwSzrjTKa7O44yo0Nhj318X3eCruk7w/63gXlzFHyaHS2AgWvlO/B8No/CPhjhcLtD1jLSFwLMJgdgMLqHenc+8mfcvhjNc5crpJ3/0/JAfGsM3J1Qg82EBaX/gE6CV46owdPypZBHeAXj13jVWM9Irzow8JtJsHQLEEDlJlGFE9/X7zRqeCLeOrswRih/SqJvLJOE++gbfXc/LdjyU9/Jjb4u/JSt4mNTMsCdtFjklFtBZ4ID9eNekXdcnzO21zS8qvxEonhitkUaQ3V6qUxQojwlS183sh5g+t30eiQCmD3igO+HrDOM250hd0IdwJQ6SzD08pXnE7lVLTmmWYdoLje7YKSko0/uReSX92BobEsvmHW/G7zJz0telW+Pur2Mj3JBNRJ/PI7+x815M4XCN1D1NmDB+2q8DrLpbCmezmG5FcjV5re6FT/Ej78t+XglZ3YvfvALnpMMvp/qUi/gJJe658RBGjDiM96MBSf1oUaDf95IcPjvXIiH/mVgf2nTDZIIN7b+HT+vS4MciVVoOsRLiO3EW8OKDl4S6XMT38RnS2Dilbeke+rOF7p3L9nb+h/82wjf3FfagdsLjRbUPpiGJTRBwXleRl9UcdB2VIHy1C+9gYoyha8cSc7g7LW+NS4Cu8XuKOZxHmrkWfffQylmTPy8qPtkRtVeVNb7qrHJKMOerkc1NmDKxQ2b+RABRi8mUhMzb8dtHgyq7/4KC5LLcCowYhXmL1GDqUm+XXbSDy102QltqBKV8NktBU/0/7krwyB4qoLpO+DSuv5aR5l9Vz/ic3CXImUvcWzDUpnnZ7OrDK7u2GLpLt6LjsULle8k4U4xh35UZbgVdikXXJ87swMOCmdGbR4syGw2LSFWzamMUbrJStTkW07F+xc9W0504kUvkqPdIbB7Ffolu/w1J/NScaD8S5erht69uAetkWXRtoiaNq7La4Yec2QKdTC9D2PqCZTo5g/Ylh5e6kuPhWef362bORpJK/y1MixEMkY8U6MnHS504QrQIMTx/dBR0iL3W0gPWn4bg2EDI14oieK43/k+1dcNIycfEP/c50xEHkVGr4DMqUzgysvBvKwsgjUeqwMMpaggSxfcqJjsJnwdLytKd7ciaqRr9WjuZ+j/EQPSKPPaj88j72G7JGQxoOHYHHoFTdGY06+KbDwYtB1W1AC7ZVgfHc2gxVWncFGgvK9f2mNGlsVfx/jVPrkVrR3EAIUPvH+JApXwF7v5myGEe/AP1ScGbmR84RfH3F8DwMoMvqtzbKt5j/wTa5OwOR6BxdPdccsH/Mte7ljHQPk2qLT94L79N0x/LmBB7JGnTmn43m0U1INQe2+tMtT/95QaR6Gr0+aiXuaR1O1jwfvrMfgzWUcyNB3D65AXiudgYKGgShy0CAUNPdWC0OYTUu+06LGjCnN2ZBzmQ6jz7JRL+O1z5ArYqSaGLlmExdhoKGzIsWbDZd97d6fHxlL5uW7Bxv0bIbMyBEdW2EvqFfEwUcDhAwU6zPeTRrK01xuzSKKYz++jJ6Wpso4pj4mo4YNf+doox5uADOKBgOMKfEig/dR1l2WLEt5No08yqJ0eaRtj3YjKM3EeFSm4oKNOniWD3nwznoM3lzGXE++e3BFq5wVCrQXUPqjGVYvzKg2gj1LWPme3halUZBPY3IoI4wlvyAyTav5BTSDBh8sXukcKM4fB3vMCr9k0xsjup6l+MEfOFHRypu2O4GXrWHI9mPeWu7qakDqVIQBykSYP05AnSSnuhZ9HsVXJD7kim9gmNSfjjds9H7rlk7gwYY5WaabCHcXIcptlHYulqA0vfH4YrL304d6HciHvDPuqsfgVX3mjHzyau5cTsUPfXJL7A0OUO7AmNJJmD2HkWeh7jYYkxBbhtlHzwsYKBqLDpbD88zhBleN3J6D18OleB/pRrNAMnLSebDB5VqdR35qefeh1zGXLQwFhP/njxOg08wPKG8Yruk85I5GHdwZhQ18b4yr5x+ulUayqpEXt6iEa8SMXbBqhOjAGB2hjzHEl16BUYyaeqhMxbVN7ZPl57hd9Vh5Z4w81zOA+9tKZ7AG8W2+gBj7o/i0YrdnNwCAsMon8mA36KHRjRWgtLZT4DsQaS1QpiJb0Op54C4NR3JTYN4PHnWQVUYOUHzwGnkdo7MW6usTHXa8vxsoM9v8HwGQd5I7OIyy+xtJ50D1ri8tol4ebEBfKa42fh/eH5TlNlCd646KtcFIRwF0keTXvPW9HAYl28nyjbyNdtVj8Ob85uoZyDrN6QyWWMaTTwzD/WCEZjQ23zVGBvlh1dVQJSQwTu9s/5M4RhuFc/locMMsCmH8LGJczvBiDlOzva2VS18c67/HyGEjbt5G0uhgymN9EMav+Dpaur/n4U/CDfJOxVtXP4062360lF9ly9cnHOh7XTNEJ6r68UYco6SZ+o2B0ahTjYuFocpmW4yhG5DrorgXg47faHzfgvR2KQdh6CUGjp66m2WQGLpXAWvzvPBFz2p/5Fc9Sm9hpOZqeb5QnskpWw3fosfgU5q+U2U3Ork8QJ3F3+9S0zHj97c79YAfqlGPOxJuXEXQExLDg2sBTxBKscQCRkajRYVcXvmXXY1m5hsWQ7TFp6gon4KkE1Xr1Rgxi67Cw+LtDgrRJ7sM/J8l20m8vIYO9IA0pPVGJU9uRP63KLlbUWnV76Jt3+V6VN+NMtLZqGtVjmDhRWmSZTpiUODfhPkrmUHjYDCl4S3P8scFfk4QoHMpLr3qjV0i33Eoi2nTXRz8KD1lpvzl0pV1UH+zrngU18+mlAsZtQy9axO8RZbx8qIkdHCf/PV9cuXV293+LVkyX+rza4wp9qi9E6CL+85bDRz5IupvOlqjR33yb9SDjQiFXXIb6MOxE9kHaYB40BHl/NrypJyaaeoMgaFYYZWR6EOmHz7HU8gvGdKHGojFUzEIRjH0lhfJa8GAgH7VEJ/RGDaSpgX6LrCBocjCWDic4WX7tjWaR/sMyqx4W7R70GuD8l3Uo+26ePnNUDV6Gw/egY3kzFpOq3X2zjv/D8tvZCt7WK1OAAAAAElFTkSuQmCC;strokeColor=none;labelBackgroundColor=none;rounded=0;html=1;whiteSpace=wrap;" parent="1" vertex="1">
          <mxGeometry x="1056" y="25" width="105" height="40" as="geometry"/>
        </mxCell>
        <mxCell id="107" style="vsdxID=219;fillColor=none;gradientColor=none;image;aspect=fixed;image=data:image/png,iVBORw0KGgoAAAANSUhEUgAAATgAAAB5CAIAAAAibqpAAAAABGdBTUEAALGPC/xhBQAAAAlwSFlzAAAOwwAADsMBx2+oZAAAK69JREFUeF7tnQl4FFX29rurE0CdcWVVJN1V3cAgywCyCH6yKLgg2+CIC6KOA8rqgsswo4KKIlu2Tqe700lYBBWQRRABBVRGUUDAERFcQIUQdmRVENDvvffcFJ2q6upOAkr+ub/nPv1Uqs65t7a3zrlVtyqO3yQSyTnPGRDq/gPHthYeLth5RBZZZGFlhyhbtx+GOoROykZphPrrqV9/2Hbw1TlfZk9Zm5a/pmv/+X/t8lrzbtObd5/RvPt0NiGLLBW4XN1tesuuM67uOqPpza91f2BBet7a4OS1r87d8H3BwVOnfhUqKiElE+r2nUdfn/f14GeXtOwy9ZIGGUnqWJeW6fSGHVqOQws7vSGnFsKELLJU3KLiN8S0gAk1rGg5SZq/kmfshVelN+86bfDIpa/P/2b7ziNCUQmTqFAPHj4WeXVj+9vf+tNfwk4tkOTOSlYDLjWoeCJON9YpqKhZipqheLIUd7YsslToogacmt+hBhxeTKAggAUVDfOz8fun+qEOt78VeXUTNCXUlQDxhYpg/cm6nfc+8e559QIuT67iCaM41Sy+BijZDi3g0PxONd2ppipapqJlySJLhS6q3+XJVDwZLHRBEaqfh7GA4g4pnhyXGk7W8qrUC0BTK9ftTDAZjiPUvft++veopXXbRBTkt74shy8VbSd70h3eTFY0yJUUi1+sUCZ+nV6/LLJU6MK0ClEwOTi8Gbz4Hd4shLRkrl7oCGqCpuq2jQx/YSlUJvQWGzuh7v3x2D+GLTrfPSHZHXSq2Q41hOL0BJ1uxNVsxYMrRNDFSphKkjusyCKLLO4cJ7qESDxZgWQgnKBDYwXaQT+RSQn5sJpdyRM8P2X8/Y8t3Lv/Z6G6GMQUKjzvHbbEiXiNwJ2Sp9R5RYFEtTQkvQ4PustId3GF8EcVdsEwzZRFlgpX0EFFdsnSXRbMUNA7xRw2E9rh3cY0qIlpCsri4fe+YUvstWotVPjc98QSpyeL3cJi9Y5XvOMhWhZOWS801enJxvWAl4BT1VcxCytRtE6yyFJBS1HGy0IX1whPSFkYCyjaBJYSQ0cIgd4JTsiKzUcEDiAu7v0xplYthLrvwE//eHKxQ8vmt5jREgpTYNE0K7xzzFcL1wwuWr4eXKtwlEWWClygHQcPYy4Pez7CS8DFQivTp3Vhz3WC/3jynb0/WvdXjUI9/svJh59eXMkzjjdpqq6osFvPkKU33aFlOHD9gEpZ5h3ECiWn+GWRpSIXKJMrAnLlSmFiCfD7r+kGHZ0uXG7JnvEPP7P42PETQo1RGIU6Z/G3NRtnJqM3jHjNeqSmGllhSTa7bHgiDjWHJeXeCYjpLk8GX0opsSyyVNgCgaSjOLxpDl8aS4NZsgnd2kTUNKcWhO5qNs6YvegbocYoigl1y7aDLbrOdqlhxZ3nRDeX9UvRqqlSld1lZqGcpdos/2ZdU0+my8MTdFlkqdhFUTOTPGn8UWqA380JKp4slyc9yYOIWqwLWVSymdbYIIWIyxtq3nUWlCg0WUQxoY4Jr1F8CNBhpyeHj2qgCGku2Ul1pikpOfwykMZvOE11eCYjz+ZDCGWRpUIXpxrmQ4Mi0BGmnR72wMaVEkpKsYmoGSzseXIc3pDiyxgT/lRosojTQt2y9VDzW+Y4fSGHz8+7wpnsEZChOlGyHL5xDt94pzeTD48KVakfuvivkQsbhy5uHLmkUZ4sslTgkntxw1xMVPGFnG5Eu7BCakIH1aaPypLTTNat9aEjGWx+8+zNPxQLqqeFmpb7eSVcBth44kweoBFOLcM0CoSarnhDyH697V+5fcjCyOvrF37w3VvLtry19LsFS7+XRZYKXha9/31o6vo7Bi9q//eZl1zlrwStItiefoxiLujW8gSWBb9gZU8u9CiUyTkt1CEj31c8+WykkcePdJk9tNWoj4piqDQbndiUa6YNe3HF6s93/XzspKhCIpFEcez4yd37fpoya8PNd8+q4oUU801SopLNxiaw4RC5Ljd6syFFnTR05PuiFo4Q6tbCQ21ue11hXVPoM1NRYYpwik5wkKW4mh8Cdrpz2MAjX6ZLjTS4/vV3/ruNfCUSiT2Q69DnPqjsC7i0COtXagiHECRS1wD6tFxrmZAeU5wYNRFqc9urWwsPC39dqOl5nyZ702gkscMLuyz2wpononiQNI+DPpPcIQidjxAM1Ov4yrKPC8hRIpEkwpGfTgx+9r1kNjo/x+ENu1R/EnuJJcuh5vB7xZAbfqE+zGSviyb70tJyT99SEkJ96N/vcB0HFTaMgYSKuBpQPFA8xJkNxbrUNEULJ6uB1Nx15CWRSBLn8JETvQcucNGb5Wo6FMfeqmG3iPkrLgiwHr+DDdFFVsuU+ODwxcKThPrLiVN9H1vs9AbR31W8WUKo7GYSGyHIXlr3ZjvULJeW5nLnteo284ftpyOyRCJJnHeXb728WR57ZkPvt7B3RYNJKehjBthbojwuKmxEIPteyj2PLYI2yZEJde0Xu73tJiMiK96Qg6ucDflnL4Jnudwsh3Z48et3atmuOvkjxhuf8EgkkgT5+djJ+x5D9hpy+lggZBFVy05OQTeVvabmRE+TjT1EmER6nOttNwXaJEcm1A8+KajWJOLQIk74s4c5/HMqfLSDyx1kqS97DwCpc36NZlPfWS57pxJJ6UnP/4xFTtYXhaxYSXIH2VdaWAIbdLCbwJlQokPLq9Ykd/knQm5MqB+uLKzVDBEVQoU1e4jKXpZjHVz2ZgwbpigeqOa06j5nx+74b6NLJJJYpOV+5nQzQXGJQZAZ0K2438uGA1Iyixw2t2bTiR+uKiQvJtT/riqs1ZwJlZlyI8Wdw19egz+7zcs/2YSkOa1Nr5mFu46Sp0QiKQWpuetcTI38Uag7z8HG4WY51BD/MCB7rVxRJ7BXzL2Rms0nQZvkJYRao9lEhxaGUF0s42WypPu9/GNq2fS9FacvtVXPVwtK/qVDiUSik5q7Fmp0esIu9v2HHAiVvwcHoUK3bOiSi90QzsScms3yiwt15fYazfIcXjZimOsziFjMn+pQugyh86FPWqhFj9cKdspbvhJJ6YFQHexDLYh/If4lNPrgQ5A/nmHqgwYhN4cvWKNp7ocrt5NXiYQalEKVSMpIau4ah5pRJFQkrVKoEsm5hxSqRFIOkEKVSMoBUqgSSTlAClUiKQdIoUok5QApVImkHCCFKpGUA6RQJZJygBSqRFIOkEKVSMoBUqgSSTlAClVyxjh16tQXX3yxevXqNVF8+umn69atO3pUvpBcJsqfUPfv379+/XqcEBvOKKhw06ZNONVEM7YUFBRgHYTnGeLzzz/fvHmzeQV+/vlnLLXfXizF+hQWircQbdi2bZvNmlM9O3bsENYmDh48CLM5c+Y88cQTjz/+OH51/vWvf/Xr1+8vf/lL7dq160Rx5ZVXejyeO++8EwbC9Iknhg0b9sILL6xYsQK17d4tPvATl2PHjn355ZdxDz0MYHbkSPxXoHfu3Jngcfzf//73zTff6Efn8OHDaCXumpQIqjDWapczoUKlffv2TUlJ0TTNe0ZRVfWqq6568MEHR40aBc2I9qzA0vbt27vdbh9H+JcBquSKK6544IEHcAaIZjiHDh3COY11A2RsCfYGJPHII4+cOGHxTzJ19uzZ06tXL1gKNxOoB7qCkMzXC5xD48eP79mzJ8wuueQShwknR/zBMfxpBpuM7ercufPzzz//ySefiJZi8Ouvv44ePRr29oceOxPXhfr167/11lvCMwaI8506dcK5JDyjiD6saK5WrVrYLX6/n3YvdiMuSTgBsPRMnQAAx6VVq1bIR2j1DJQzoU6dOrVKlSpxz4BSw0825zXXXIMrqGiyODiDcR6TGSE8ywDVc9lll82fPx+no2iJE4lEkpOThV08br/9dnuhTpkypXLlyrCMtdq0JuPGjRMORWC3I1TG8opF4vawxGmKC4FNRoPrIzTD1s+2WkVRYAD5rV27Vnia+OWXXyZNmtS8eXNzbTTHAC4oiP979+4l95dffplaIYRnGRAVOZ1IUmL1EcqTUH/88cebb76Z9pHYxDMNakb94Nprr0X6JBqOApdhXNT5XmUItzJAleB36NChBpUiMWvXrh2ZxQU1INz99FPMj8jt27fvxhtv1I1pIhrMBLioIz0WPpxXX321Zs2atFSYxiNxS4Iq/9Of/jR27Fik+qLhKLBnkDmTmfCJAQxw+GBs2Jk6SDIHDhyItmAMS3OFNJOoVKlS7969P/74Y+H822/ffvttkyZNxGKOcCsbqKdhw4bff/+9aMZEeRLqtGnTzj//fMude6ZwuVxUP34nT54sGi4Cx/7JJ58kS1qHsq8J1YB4Ys79EE5LlD4gjHz00UfC2cQrr7xywQUXCFMr0FBSUlJ6erpw4MyePZtUmvhuhxkh/k4AVE71I6lesGCBaDsK9CTr1q1LddrXjHpgadl5QSDFTmjRooVeDzVKjgT+1OdfdNFFTz31lKEzgvQbJ4luSV5lgepBi2PGjBFtWFFuhHrgwIGbbrqJtgqIrTRBiywNuF+cPUs2AAcjPz9ftF3EqlWrkH0J08QqjAtVMmjQIEPWumvXrg4dOugGZGwPosS8efOEf3EonNrUg0U4V1q2bBkdTpHsoTdOZ62Nrw503rZt2/vuu+9eDmIRendimS1UP8Bunzhxomi+CFwf//Of/2CpsI4HwqnwjAL5EXKWP//5z9gcYcfbFVNF0Bz8YlfMmjXr+PHjwp+zZcuWpk2bkgFZ2hPXjAzAX//6182bN4tmrCg3QkUChoAgNiv2xuMwgEaNGuEs+XsR6LwhLaxduzYW2fjqwKZ69epLly4VbXP279/ftWtXe3eqn0DWhNMC4rHnvPPOQ/fPHE5zc3MpnAJRezwuvPDChQsXCv/iUDJiUxUWoTOclpYmHDi4VGH1hIUVVCFbRd7HRudt69atJ4vAWY4Ihj1JBuRiCRkA7DR0pEXzRXzxxRf169cXpjGAL/16vV7D/QUE0unTp0N4dHTM5wDmEDQfu/GRRx7ZtGmT8I8CmXncWwbUBIETALXZnAa0CHkE+ueijRiUD6EinN5yyy3YBbQr6TcW2DVQNc6SY0VgGp03JC3Yy3olNsAAYcHQWcK5rl8phJ0JWoRfnFjhcHj+/Plz44HLNgK1aKOI3bt3d+zYkTfFoMrjAmHn5OSY+2YIp+jb21eFRcgJf/jhB+HDw+kNN9xg76JP4ITz+/3CMwrs9k6dOlGHgowtQQ0ANpUrV546dapw5iQYTqkGTKBvIjw5GzduhOqQxJKBDnkR+BNN0y/0PGPGDGhb+Efx3XffNWvWzOBrgFXNgfyeeOIJJDhvvvmmONIxQOdi0aJFhgTbTPkQ6muvvYYtFzvDFuxrxL2DB4v9g3QCeySRGIUaoGe0KNw4CKc417HU3pcqx1lrONtKCoUyaovqpPrjgtwBFyZRSxGIJ9Q7takHWWtqaqpw4EyaNCluENbp1auX5X2so0ePdunShWQg3GJA9TRp0uTrr78WzhyE03r16tm7ky9Ax+Szzz4jR1ydcRG8+uqrMZ9WAOjG5EjQHFzfH374Ycs7iATCKa44ZCw8TdBS8M9//tP+DnxJKQdC/fHHHymcip1hC/T8+uuvC88osNfQRYk+YJbQUjSHFE54chCiE7lSwBdN3HrrrXEvkDbs2bMnOpwCUXs8YNm9e3ezYHD+0VIyswQndPQtR4RTREJsi1gcG1RbtWpVxA3hWZzCwsLWrVsnWA9kgKxHeBbx9NNP01ETdlboSxHEyAv7H6EV2oteShP41ecATKN+ZBPImCwDKaGH02hfM2RwxRVX2NzVKx3nulCR+Tz33HPIiOx3EKB9BI1B2MI5CnQC69Spk8ghRzdp5syZwo2DChEWePUMYWoF6kc4RQQTnqUCoQyRX9RYErBu6Iob7n+sX78+VgePNgcggzD0kSZPnkwhHQhrK8jg+uuvP3TokPCM4tSpUxkZGTCIK1Sqp2HDht9++61w5mzYsIGe3xLC2gQtVVWVbvauWLECmQU9MY4mugY6EwCO16BBg9AQtRiLcePG4ToCx+hKzFCd/fv3t9F86TjXhao/5hZ7wgraO5jATjekrMTJkycHDx6sm9kAA3TMDI+zKPFO0B3h1DLxThD0J+17hjbAq0GDBoYnE//+97/12szVYg5APEHEEA68h4xwqi8lSzO0FFx77bWWoxePHDkycOBAr9cLBTZu3LhRbMggOztbeBYxYsQIXVGi1RjgWvPCCy/AJS0tDRcmyyty9BwywIbjshhXVOi666MjgKjCCiy9/PLLly9fLjzPHOe0UBFOhw8fTtsfdweBWOF05cqVV155JdkIhxhUq1Zt8eLT/7AZHDhwANoTi4sfbDMXXXTR3LlzhWepwHmj905LCrzQq4xOB9DBq1u3Li0y10kz0Ts1DEXCJuCSZ7Y3QO4AHeA+ffosXbp08+bNhjtwEDCCJObHBVcKXE+FGwfdRT2ciiZjAIPq1asjej/77LPYHPwJHQKx2ApkxQMGDMD+EY3ZgnRDD6f21QKEBOF2Rjmnhao/5ibEnrACSxH00JMUnlGgdzpkyBCqgRA+Vtx9992G1HHVqlW1atWy99JJSUlZtmzZ9u3bt8UGl+edO3eK2otTlnAK4AjNRF8p0MHTF8WqFl2v6HCKzR82bJiNvQ7ZAJy7+K1RowZiY9++fceMGbNw4UJsZhnfmEE4pfoBNUftWoKr28UXX4wJWhmCFunoMxEe8/LyErzZgw2hO1LRNcQCrb/00ks7duwQBzsGW7duRbUlupFx7goV4RRpm77fxZ6wAkthZhNO0Tu1qYFXz6hateqiRYuEGwddr/vvv5+upomAviWCAI4rzv5YNGnSpE2bNvPnzxdtRBGrZ6jPMcw3gKWIJ6NGjaLQhHCBlRHLrIA9Nm3s2LHUOrF3716ksnpz2LFknDjwgmibNm165513hkIhdP/27Nkjak+YTZs2IR+m1SgRNi7YlkqVKqFHbTluKRYTJkzAXhVVxANNuN1unAC4FojjbQXOAeyfGTNmiDYS4NwVKqVtiRwq2CCcWj4RwSk7dOhQYWcLKrnrrrsMzzawK+nZqTCKBywJ8XcMYGB43Af279/fuXNn8jXXwCpNbFfggkWh7JlnnrF3wVKcNFu2bKEVILAadL8XwAC/wrokkCN+K1eujItF+/btsTLI6qEQy6G8Zp577rnSNR0LrAxOEvSkCgpK8M/vEfpopISoJQHQECH+tgJLPR5Pia4X56hQ6TE3bZL9NgMY3HjjjTjDhHMUq1evRjoatwZw2WWXvf3228KNg3BKQ5EIYRcPWNI5asPll19uGPYEcKHRb1kBUV0RNJMGbIhZJsgGQj116hR6hg0aNLAxBljPl19+WTRfBHzT0tIQabGUNkRYlxCDI/5ENKtXr94dd9zxxhtv2KedX331VenCqQ2oDdpAZ0q0kRjYFVhtUUUCoBUietoMduzIkSNFG4nxuwi1++sFO0omVHrMHb3xNG1JrJu9OOcGDRoEA+wXsrSE6scJZLjYz5w5k+6pEMI6HsKaI2YVB/PNT8ORtEePZAbCmkN/Iq+uX78+cmOaaYYcIVRsCBJg+hOIxSYaN2682Wp86a5du3r37i2cE95wA7ovTRBc+8oll1zywgsv2Gj1+eefJ0uq6kyhaVqJhIrOZKtWrbAaWHNRhS20jYSYZQWW4hq6ceNG0UxinA2h8lr4Py1nniqEOr1EQkU4ffrpp+23NpoOHTrQEFMcewLTSP/Q+9LHjglTK7AUvVNDOEVHv3v37nF9AdkQYpYJfREmatas+f7774tmikjk1ZaOHTsGAgGsKmspRluYj9MRZtHviNCiaDDz0ksvNQ9/1yksLBwwYEDt2rWj4wm8dMSsIsxzYkGWuNy89NJLhvt2xNdff92oUSPYlEgh9Gtvj9xKH7eUCOnp6YmMOaULSlyzaEaMGCHaSJizIVT+75DVsIIJFlFDLbrPKJFQox9ziy2zBadmnz597rnnHv23b9++f/vb36BSOtiEsDaBRfbhVNjFgJrACQ2SYoDjjV/kk7BEODU8uNPDqagxBji66E/SeDpLY5qPhhB4sfL6TJrQIbPrr7/e/mMlWMnly5dPmTJlyJAhzZs3j07LQeI32GLh9XotowqCLZ36AA3RhCW0JvpEXGEjJTE/qo0FLv0Ip1ShTbWsYb43cIhtTgAduFx11VU2AxVjcdaFiojasvvMgh3xP2Cj88wzz9A5DWh32EOWOpij61Nfyg2tQSZm+GwHwmmPHj2wSK+BG1pz/vnnDx48eNKkSXnxiEQiOTk55kEw06ZNIxmIGq2oXr06xeG7776bbY+VMc3EtutDmgEt0qGZ2L0vvviizecUooHZDz/8MH369AkTJnTp0qVOnTpwJy1R/fRbUizvpqxcuVJ/8Etm9rCNKcqogb0XDIYOHSpaikdGRoYeToGowgos7dSpE45sfn6+ONKxCYfDixYtQs4omkmY3yGiIvUtgVBxsYl7F8QSvj+FF01HQ/PNYBH6sYbxsbNmzUI01g1oIhadO3cuxeMHHYTTuMP9sei+++6jhy733nuvmGsCZtGVGP4kaKZ5sF6CYG0//PBDv98P0SIL0Mf6A6o/cdxut+F9NPRWevXqhUWJVKgbkERBXC8sbd++fSKfgCsoKLjmmmtgn0i16Mu88847wvOs8bukvj3eSFyoI0eOpHCKXWCzg3QD3UafIOhPvlxMGP4k+vXrZ7hdjHDas2dPWgpLS2gRfpFhonspPEsFDffnrRVrjuYQNWrUWLJkCdk/9thjmCOMSg58oS7LV9JKyu7du6dOnTpmzJhhw4bRnT9UjjObGrKEbUwRTZs2NdzKevPNN2nQgj3Cnyf5rVu3Rqo8fPjwuB+LoaVXXHGF+aVCM5mZmQinuiNNREO1EbiGnvGRvWbOLaGi04IMnnYE7REbaDfRNU/Mig3ZcA8BMt6BAwciRIi2i5g9ezbdgiJHS7CUXcP5Wxe7du0SniUHrd8S+8UgagW/iKL6qbBw4cJLL72UlpJZSendu7f5Vbgy8vHHH7dp04ZWWDRjBd9ngocffjg6A0Q4/fvf/475wtQEKqdNpgmfzzd+/Hh6CIydA7XQfDK2BEvRT8nNzaUWY6GHU5vasAiril90SfRr6Fnl9xLqzoSEqg/Cpn1BO8USLEU0Q/qUUkJq167dsmXLRx99dN68eeY3whIMp8R5552H7vSJMrx2qA/3F1UXh1rBqfDuu+8Kh99+++ijjxA9sNTmnLYBIjd8lGjx4sUvv/wyTvpxtowdO3b06NE2b28NGTIE9cfaFgJL6fjiUvjGG28ITw4OBy6dNu5YRKAGBEbDGLL09HRhFxtyf+ihh4RPDLKysqh3KtxMUD1E3759f4dwCs4hoX711VfonUbvC5q2BCJ5/vnnP/vss3UlZM2aNYaxONHMnTs3wSc6AIIvSzg9cOAAvT2HMw+IqouD+YZT4YMPPqhatSoWwZFsSsTtt98efX/7888/p2GGCdY2atQo4WnigQceYDvFth5sDhl07doVmy88eTjFipGNDVQ/Khk8eLDhfgwuNLRImFpB7p06dbL55DfCadzUgOoBhmvoWeUcEio95sb2i/1hS8eOHfXvrJ4pEE579eqVyArABh0kdI0SvHFqyfTp022GIhHVqlUz3KhAv44eG8RyMaMbI2QZvn6mj6YmSxtgo2larA4erpj03EhYx4CtB/+WgmGYK4I8Qn0i7lhb5EQrVqwQnkVgu+gJszC1grXNO/zRn/80EAgE6OVnINysIANcQy0fBZ8NzhWhIpw2atQokb2DQ4VwmpeXJzzPHG+++aZ+s9cGWofOnTtbDlpMEMQT+0+l0aI+ffqYTwUkb2STIGyv8drQCYzO9imF0ZfaQAaGXmU0Tz75JNWDPUMuZmgpfrt162YIp3feeSf3ZghrK8h94MCB5u7G9u3bmzZtau8OYHDBBRfEuv9XWFjYtm1b3ZImzGARQAdk2bJlwvPsc64IFeGUtl/sDCvIACCcJv4PSxLkyJEjt912G7VCzdmAK0VGRgbCKft0WjxEA8VBSKEBFaJGE1iEEGF4OZYYMGAA2wsJrCdBxhdffLEhnE6dOpW+igSEqRVkAAzv2eisX7/e5/MJI47wNIFF2GrDt3IQTi+77DJaSpCxGQgVvVNzOAUHDx7EZQg2Nu565f379xduxcnOzq5UqRKZEeRoBmuC5nASimMcG3Q0ypJ26ZwTQv36669pELb99ZiASOLeuCsFdDNDNBbveONwXnfddXfccQeOlg1IpHv37m2+AYN4gqjCt8aulbvvvhtHWvhEQQOYE4dawcogdokq+DjNfv360SKb3a4DmxdffFE4RwGF6L1TQjhYgaXolkffaTeEUyBMrcBSXKToebKZzMzMuO70e9NNN5mzoR07dtD7fTrkZQaLsDeQjCDfueuuu9C7FsfbBC79ONCJD4ey4ZwQavSoMRtoB3Xo0KEst3AsQTjF7o4+NvbHiZba2AAyQ3/M/DQ8kfGJCKeGG5s6iMb02a7EQUpv+P4YLvP33HMPrQMQdra0a9cOl7P//ve/H3CWL1/+3nvvPfjggzgoeg32xxEB3BBO3377beqdUg16PZbYfzQM3Ut7d30puqnYCuFWRCgUos8ssVXhkHEsYICNtdleqgQ89dRToo0y8McL9ZtvvmncuDG2R2xfbLBTqlSpEolEhOeZI8GbGSWCakNUjI5jACEo1nB/mknA0TD8WGfNmjX0ZRnhFg9YGsIpgFDvvfde3pToOgprW5B0VK9evVq1avjF6Y4JmzOViG7CEE7RYUZEwnxhagX3FpLARSFWOAWJX7/M14sS/ZufBKE11zRt3bp1opky8McLFQkVjoHYOFtcLhf2ZqzvmJQahFMksVgH7FbR0pkAtVlGxdmzZ6O7yA9iTKGizxbrm/dg5cqVcQfiRIPm5syZI5yjwMkKvdGGJ1gVmZG9Di2yRFhwpbVu3RqXGNE2B9uY4K1acPnll5vDYDQFBQXNmjUTbragNsObhuFwGN0ZsfgMQWe1+QsBpeMPFurGjRujP2aJPSimrEhOTj4b4RTKoc842LdeUlAb+jCGqIh4csMNN8S6KPBVYODCYR6MobNhwwafz5f4laVHjx6xXpSZPHkyAiOdUokQ3SJfU4GYZQKLUDmASg3/B/HQoUPowtm7A1qK34ceesgmnAKkKojY5BWXnj176k+nofBWrVphpv2alBRsNcJpiV6ss+EPFuqyZcsaNWpE/xMW4PyjCQMqZ9iwYZbfjy0jWVlZKfw/I8dqvRRgixo2bGi+Z4vtRZ7v8XjMbWEOgCPCgv2oNJyvw4cP13eaDbBp0qSJ4VVbA3Pnzu3WrVvt2rUTPE1hFm1p+NMMYmbnzp0NsRRAHjfffDP2vFjX2MAGnQV0kYRnbCZOnAh7nCrkaAkOdJ3i//QZqWnLli2xr8wHpdSgFVT47LPPUhNl5w8WKuLGl4n9s3f8xuqzlZF9+/atX78+7jqUCNS2adMm8+CyXbt22beFpTYDp3QSXGfYWH7DwcCBAwc++eST0aNHP/744+jN4jxGHxjyoKcmBgzKNKi0Vq1aNE6zXr16999//4gRI3DRseytoJOMdcMainWNAbYRNgm+n4R+OLmQryVUYfQ7NMePH//qq6/irkmJoFbK8qTdwB/fR5WcUyCBRPQDiDMLFix49NFHBwwYMCgBkJpCluhGwnH16tU4TcsyClpiQApVIikHSKFKJOUAKVSJpBwghSqRlAOkUCWScoAUqkRSDpBClUjKAVKoEkk5QApVIikHSKFKJOUAKVSJpBwghSqRlAOkUCWSckAZhZpfJNRsKVSJ5OxRXKiQWIZJqNlFQs0rLtRVBTWahR3ekNOTDWuHlg3PIqHiN8z/kTGcc1p0l0KVSMoEhOoUQg06oTUtC7qDvpjiWJhkGmSK9YZqNA1/uKqAvJhQ8UetFhkOLeL0hF3aGEXNcKXksRzYixJU3GGXO+xQgw5tcuues3bslkKVSEpPau6niprGlAW5puQ7PRFFzXR6kboGnO6IU81U1LGIlA5Pfq2r0z5ctY28SKjba10dcXhhlO3SUhFFFXcOoqhDQyAOuNyQOJ/2RhrcMPXLb/aRp0QiKQVpeWudTKh+RU13enKcagiKpQRYQTKsBpgGkfpq+TWbh4pF1A8+LqzacJJDy3UwNSPLhQPr0TpY3uuHShUt1eHNQtJcpW5m5DXj/5aWSCSJk5G/zulJV7zpTKgqy3WdWqbDm4GuKe9jItIGoESHNrFqo/wPPonqo65dv8f7/2Y6tBzFC1nnOFSEU8gdUTQLv8xZwwUAvdtAsjv9+QkfkqdEIikpPx87ee+wdxU15NIg1CwHU1nASVqDUKFPNYwY69TSEVG9101fu0F8YooJ9ZcTp+559H2nFiwSKkyZUFkUZqGVK17LhlaTPVltb526rVB2UyWS0vDu8h9qNctXtDwXslc3u9nLHrKwX/Zk1KmmI0w63WFFS3d6c/o8sgTaJEcmVDDgP+8qGs973dkONduJdFfNwASSZl4de2aD7q9LzTrPnT346XcOHT7D/+haIvk/z+Ejv9w1cH6SO+RQcxFFXZ4wgiI9ZOEPXCBUPwuT7GkNxBh4aPhS4akLNXPip5Xrprs86NcieLInsAp8UIXK4jL3RAKMnm66y51f2TduyIglh4/+Hv+eWSL5v8GRn04Meeb9Klqak92jDfNOZcCBBNbLbwMxobKHNCy0an6XJ1DZG8jIO/2hcyHUzzbsVq+dmOzO4feNWAJMQuX3k0i37MmPwzve6cl1arlJXv+Qke/t3hfzG/ASiURn976jD498L1mNKClToC/0IpGcujzoo4YcvrQkT6aLIqonxO8GpyZ7QmrbKWu/OP0fSYVQf/r5RO9BbysIu96MJHcgyZ3t9Kby7Bk9VdZZ5XEVE350ZXlnN1TZl9m5zxvBaes/Xb/r6E+/oAZeThZNyCJLRS9Hfzrx6frdwWkbbr5ndiV1got1KnN4cgpBcU1hjkb3g0IOHmyZ+qBbNXTHoAU/Hzv9jz+EUEFG/tokX6rTlwFxu9BTZfed+MjBYgXRmenW4c10+tBGMKlulq9juEf/mb0enP23/vN79l8giywVvPyt/4Je/d/u9dD87v3m1u3wSpI3oqgTnSobp1AU9owFMdapZSjuoMsdcGkZUGJ6frF/HXJaqN9tO9jy1lcVL/qofocHlfKk11Tj6aIhT85Dtu3w+R11M5y+gNObz2eGZZGlIhenmqN4cxVflrNumrMuuz/E7x6FuKZMOuKFZ7xZrhT0K5mamt06ZcvWg0KZnNNCBeNDayuxEUiIwjno2ro8MYWahO6vO9uVEnK5g0mqP8mTgQw7yZPrUvVsWRZZKmaB5IIuNjAQE+lJGvqfIcUdQt7rYpEPBkY1sYIEmN37zYH6XD7/mPBqockiign1u62HWt86y6lFIFRXSsTlSePB2lQpipbuZI9z2LTi8Se5s5Kg2Dq4bAQc7KGrXxZZKmrJgFCT6kSS3NnQBY+ivFPqzXJ6M04rqFhBUExzuaHSsOKNtOgye8tW4/86LCZUMGfh5mqNcAHIV1KCLnV8TKHyB7V8ADDWLJOtgRfSTVdUXD/Y7SxZZKmwhd0cYqLIZHmslsWVguw3ghJDUNnJnnGKG/Ev79ImwVkLLf5tn1Gox385OfQ/71dJYaOZWNg01ihKUkokKQXpMR+3xN7NYQOD2XhF1c/uRXkCsshSYQt7tOlLdfjSWQxjYwPZa94udwiSiRX5XNoEJMbwHfzs+8eOW/zvPKNQwb4fj/3zySWKF9pjY/kti4sVhPVMvhJhxR1RkJTzsf9ctLLIUnELy3X5Q1EUNpKBZb8ZLjWd91F1EUGxp0Xr8GYnqen9Hl+0d7/1vw62ECrYWnikVbeZldmg3zC7XcTGTLBxw3wlcM1AcMdlgw0zpBtZrB+sYoWyHEyoCLCyyFKBCxTIVer0hPkvG3UEjbgwTbJkaspAgax4WhquoobbdJlWUHhYKNCEtVDBvEXfNmk3SXFnJalZLjciJ3TIpIiqeSKOViFgSJTNYXeWKTWXEVWWCl9Y6OJPN/l4Pj+728olk8Tu62Ip//wKlmp+pweRFr3FUL2WE+ct+kZoz4qYQgVrN+zt8+g8p3e00xdweNApDSensKcy7GsPdTNZ8WXym0ksC6fxTEyusshSsQtUADlggmsSGoFSMphY6jJZKh4IOFtx5ykpk5LUoEsb1fGu6fOXbBWqi4GdUMGe/Ucff2npFa0mKt5chzfHoeWwYcDusMuDywC/76yyQC/ua2ksI+eKlUWWilugAp4DB9lQXt4XRSTjkslMYt9DwqI8hzZRUV+p3WLKU6OXFu6OmfHqxBEq+PXX3+a9u6XjnTOqNIg4fBH2rRdPKDklmOxmX45Aes0e1SDzRsSnJ6jeLFlkqdAFOS2734u+KBJdJhOXW0iGDRX0Zju13Mr18zreMWveu9+fOvWrUJot8YVK7NxzNPzahut6Tz//qgw2YJA9vUU6HmJhlvWYEWPZ410+uoL9KYssFbZABdACFIFp/sZpmH2L15vtQBeynv/8qzLb9Z4Zfu3LnXtK8PJZokIltu868tpbmwaNXNbs1ml/boCAzpNyRHbN79IyXFq6S8viQ6VkkaUCFyaH1CQowpulaEFFC0Ajnrb51942feCIZVAQdCQUlTAlEyqBYP19wcGpczf6J3+emvtpj3/ObtEl0qZr5JqueS27TWzZLdKya6hl17AsslS8EsL536Jbfuuu+W1vzWl5a06PfnNSc9cEpqxfsWbHrr1HTyaW6JopjVAN7D9wbFvh4e07DrGy83DBjkMFOw7KIktFLYcKoIKdTA7bCg9BHUInZeMMCFUikZxtpFAlknOe3377/z9aKU3x5mb0AAAAAElFTkSuQmCC;strokeColor=none;labelBackgroundColor=none;rounded=0;html=1;whiteSpace=wrap;" parent="1" vertex="1">
          <mxGeometry x="25" y="24" width="84" height="39" as="geometry"/>
        </mxCell>
        <mxCell id="108" style="vsdxID=714;fillColor=none;gradientColor=none;strokeColor=none;spacingTop=-1;spacingBottom=-1;spacingLeft=-1;spacingRight=-1;labelBackgroundColor=none;rounded=1;html=1;whiteSpace=wrap;" parent="1" vertex="1">
          <mxGeometry x="347" y="372" width="172" height="64" as="geometry"/>
        </mxCell>
        <mxCell id="109" style="vsdxID=715;fillColor=#c7a0e2;gradientColor=none;shape=stencil(nZFLDsIwDERP4y0KyQKxLuUCnCAihliEpEpL+ZyetANS6YJFs7JnXmxpTKZqvW2YtGq7nC58F9d5MjvSWqLnLF2pyNRkqlPKfM7pFh36xhZSq1Fhhz/rgdbK5uNBXgxts9r+PjAYck39sPwBVMF6foYp9HugQeIE/ZqL4D/oQnC2vhRjPAhOQkC6U38eZ5FwClO/AQ==);strokeColor=#939393;spacingTop=-1;spacingBottom=-1;spacingLeft=-1;spacingRight=-1;labelBackgroundColor=none;rounded=1;html=1;whiteSpace=wrap;" parent="108" vertex="1">
          <mxGeometry width="172" height="64" as="geometry"/>
        </mxCell>
        <mxCell id="116" value="&lt;font style=&quot;direction: ltr ; line-height: 120% ; opacity: 1&quot;&gt;&lt;div&gt;&lt;font color=&quot;#feffff&quot; face=&quot;calibri&quot;&gt;&lt;span style=&quot;font-size: 11px&quot;&gt;Communicate LLP team and share data to start study&lt;/span&gt;&lt;/font&gt;&lt;/div&gt;&lt;/font&gt;" style="text;vsdxID=714;fillColor=none;gradientColor=none;strokeColor=none;spacingTop=-1;spacingBottom=-1;spacingLeft=-1;spacingRight=-1;labelBackgroundColor=none;rounded=1;html=1;whiteSpace=wrap;verticalAlign=middle;align=center;;html=1;" parent="108" vertex="1">
          <mxGeometry y="32" width="172.27" as="geometry"/>
        </mxCell>
        <mxCell id="117" style="vsdxID=761;fillColor=none;gradientColor=none;strokeColor=none;spacingTop=-1;spacingBottom=-1;spacingLeft=-1;spacingRight=-1;labelBackgroundColor=none;rounded=1;html=1;whiteSpace=wrap;" parent="1" vertex="1">
          <mxGeometry x="960" y="754" width="129" height="48" as="geometry"/>
        </mxCell>
        <mxCell id="118" style="vsdxID=762;fillColor=#c7a0e2;gradientColor=none;shape=stencil(nZFLDsIwDERP4y0KyQKxLuUCnCAihliEpEpL+ZyetANS6YJFs7JnXmxpTKZqvW2YtGq7nC58F9d5MjvSWqLnLF2pyNRkqlPKfM7pFh36xhZSq1Fhhz/rgdbK5uNBXgxts9r+PjAYck39sPwBVMF6foYp9HugQeIE/ZqL4D/oQnC2vhRjPAhOQkC6U38eZ5FwClO/AQ==);strokeColor=#939393;spacingTop=-1;spacingBottom=-1;spacingLeft=-1;spacingRight=-1;labelBackgroundColor=none;rounded=1;html=1;whiteSpace=wrap;" parent="117" vertex="1">
          <mxGeometry width="129" height="48" as="geometry"/>
        </mxCell>
        <mxCell id="125" value="&lt;font style=&quot;direction: ltr ; line-height: 120% ; opacity: 1&quot;&gt;&lt;div&gt;&lt;font color=&quot;#feffff&quot; face=&quot;calibri&quot;&gt;&lt;span style=&quot;font-size: 11px&quot;&gt;Disclosure Meeting&lt;/span&gt;&lt;/font&gt;&lt;/div&gt;&lt;/font&gt;" style="text;vsdxID=761;fillColor=none;gradientColor=none;strokeColor=none;spacingTop=-1;spacingBottom=-1;spacingLeft=-1;spacingRight=-1;labelBackgroundColor=none;rounded=1;html=1;whiteSpace=wrap;verticalAlign=middle;align=center;;html=1;" parent="117" vertex="1">
          <mxGeometry y="24" width="129.43" as="geometry"/>
        </mxCell>
        <mxCell id="126" style="vsdxID=872;fillColor=none;gradientColor=none;strokeColor=none;spacingTop=-1;spacingBottom=-1;spacingLeft=-1;spacingRight=-1;labelBackgroundColor=none;rounded=0;html=1;whiteSpace=wrap;" parent="1" vertex="1">
          <mxGeometry x="169" y="364" width="140" height="80" as="geometry"/>
        </mxCell>
        <mxCell id="127" value="" style="verticalAlign=top;align=center;vsdxID=873;fillColor=#c7a0e2;gradientColor=none;shape=stencil(nZBNDoUgDIRP0z3SeAKf3sNElEYEg/h3+wdpjIaFC3cz9OukDGC16HZWIMUSvBvVTl3QgD+QkqxWnkJUgDVg1TuvBu9W27Gf20QmNbktJRy8V4q0IsXJthDsG2YN2Qd7DS+4fGGz3Bfyc2Z2axT3J3syhjt6zvNS4hMXivUf);strokeColor=#939393;shadow=1;labelBackgroundColor=none;rounded=0;html=1;whiteSpace=wrap;" parent="126" vertex="1">
          <mxGeometry width="140" height="80" as="geometry"/>
        </mxCell>
        <mxCell id="131" value="&lt;font style=&quot;direction: ltr ; line-height: 120% ; opacity: 1 ; font-size: 11px&quot; color=&quot;#feffff&quot; face=&quot;calibri&quot;&gt;&lt;div&gt;&lt;span&gt;Request Data for Study Start&lt;/span&gt;&lt;br&gt;&lt;/div&gt;&lt;/font&gt;" style="text;vsdxID=872;fillColor=none;gradientColor=none;strokeColor=none;spacingTop=-1;spacingBottom=-1;spacingLeft=-1;spacingRight=-1;labelBackgroundColor=none;rounded=0;html=1;whiteSpace=wrap;verticalAlign=middle;align=center;;html=1;" parent="126" vertex="1">
          <mxGeometry x="27.96" y="11.42" width="84.66" height="57.15" as="geometry"/>
        </mxCell>
        <mxCell id="132" style="vsdxID=898;fillColor=none;gradientColor=none;strokeColor=none;spacingTop=-1;spacingBottom=-1;spacingLeft=-1;spacingRight=-1;labelBackgroundColor=none;rounded=0;html=1;whiteSpace=wrap;" parent="1" vertex="1">
          <mxGeometry x="616" y="474" width="27" height="36" as="geometry"/>
        </mxCell>
        <mxCell id="133" value="" style="verticalAlign=top;align=center;vsdxID=899;fillColor=#002060;gradientColor=none;shape=stencil(rZLbDoMgDIafpremA2O8d+49TEQhY2CQnd5+YLPMkC0Gs7sevpL25wfezLKbBDCcvbNncVe9l8CPwJgyUjjlQwS8Bd4M1onR2avpKZ+6SMboYm/xhQfNHRDjDMMn5awu6qVwIlors6Krcj+Mv0ncB753/4qmh2XB6WEbmlVF+Q8ZstTN+7itlUPwccigtCaDrfupo0KJ3MjbFw==);strokeColor=#939393;spacingTop=-1;spacingBottom=-1;spacingLeft=-1;spacingRight=-1;labelBackgroundColor=none;rounded=0;html=1;whiteSpace=wrap;" parent="132" vertex="1">
          <mxGeometry width="27" height="36" as="geometry"/>
        </mxCell>
        <mxCell id="134" style="vsdxID=902;fillColor=#ffca2b;gradientColor=none;shape=stencil(nZFbDoQgDEVX03+GxhX42IeJODQyYBDnsXshjc7Ih5nwdy89pS/AetH9rECKJXg3qRcNQQM2ICVZrTyFqABbwHp0Xt29W+3Afu4TmdTDPdMPb84TKUOKD7ubYN8xasj+oHuwCL5AC8GsfBTfGUcyhld0xP9bwEX16kxWpcOfGs2ajCI/XHzio2O7AQ==);strokeColor=#7f7f7f;labelBackgroundColor=none;rounded=0;html=1;whiteSpace=wrap;" parent="1" vertex="1">
          <mxGeometry x="220" y="765" width="42" height="25" as="geometry"/>
        </mxCell>
        <mxCell id="135" style="vsdxID=957;fillColor=none;gradientColor=none;strokeColor=none;spacingTop=-1;spacingBottom=-1;spacingLeft=-1;spacingRight=-1;labelBackgroundColor=none;rounded=0;html=1;whiteSpace=wrap;" parent="1" vertex="1">
          <mxGeometry x="169" y="240" width="140" height="80" as="geometry"/>
        </mxCell>
        <mxCell id="136" value="" style="verticalAlign=top;align=center;vsdxID=958;fillColor=#c7a0e2;gradientColor=none;shape=stencil(nZBNDoUgDIRP0z3SeAKf3sNElEYEg/h3+wdpjIaFC3cz9OukDGC16HZWIMUSvBvVTl3QgD+QkqxWnkJUgDVg1TuvBu9W27Gf20QmNbktJRy8V4q0IsXJthDsG2YN2Qd7DS+4fGGz3Bfyc2Z2axT3J3syhjt6zvNS4hMXivUf);strokeColor=#939393;shadow=1;labelBackgroundColor=none;rounded=0;html=1;whiteSpace=wrap;" parent="135" vertex="1">
          <mxGeometry width="140" height="80" as="geometry"/>
        </mxCell>
        <mxCell id="140" value="&lt;font style=&quot;direction: ltr ; line-height: 120% ; opacity: 1 ; font-size: 11px&quot; color=&quot;#feffff&quot; face=&quot;calibri&quot;&gt;&lt;div&gt;&lt;span&gt;Direct to the Transport team&lt;/span&gt;&lt;br&gt;&lt;/div&gt;&lt;/font&gt;" style="text;vsdxID=957;fillColor=none;gradientColor=none;strokeColor=none;spacingTop=-1;spacingBottom=-1;spacingLeft=-1;spacingRight=-1;labelBackgroundColor=none;rounded=0;html=1;whiteSpace=wrap;verticalAlign=middle;align=center;;html=1;" parent="135" vertex="1">
          <mxGeometry x="27.96" y="11.42" width="84.66" height="57.15" as="geometry"/>
        </mxCell>
        <mxCell id="141" style="vsdxID=974;fillColor=none;gradientColor=none;strokeColor=none;spacingTop=-1;spacingBottom=-1;spacingLeft=-1;spacingRight=-1;labelBackgroundColor=none;rounded=1;html=1;whiteSpace=wrap;" parent="1" vertex="1">
          <mxGeometry x="940" y="257" width="129" height="48" as="geometry"/>
        </mxCell>
        <mxCell id="142" style="vsdxID=975;fillColor=#c7a0e2;gradientColor=none;shape=stencil(nZFLDsIwDERP4y0KyQKxLuUCnCAihliEpEpL+ZyetANS6YJFs7JnXmxpTKZqvW2YtGq7nC58F9d5MjvSWqLnLF2pyNRkqlPKfM7pFh36xhZSq1Fhhz/rgdbK5uNBXgxts9r+PjAYck39sPwBVMF6foYp9HugQeIE/ZqL4D/oQnC2vhRjPAhOQkC6U38eZ5FwClO/AQ==);strokeColor=#939393;spacingTop=-1;spacingBottom=-1;spacingLeft=-1;spacingRight=-1;labelBackgroundColor=none;rounded=1;html=1;whiteSpace=wrap;" parent="141" vertex="1">
          <mxGeometry width="129" height="48" as="geometry"/>
        </mxCell>
        <mxCell id="149" value="&lt;font style=&quot;direction: ltr ; line-height: 120% ; opacity: 1&quot;&gt;&lt;div&gt;&lt;font color=&quot;#feffff&quot; face=&quot;calibri&quot;&gt;&lt;span style=&quot;font-size: 11px&quot;&gt;Disclosure Meeting&lt;/span&gt;&lt;/font&gt;&lt;/div&gt;&lt;/font&gt;" style="text;vsdxID=974;fillColor=none;gradientColor=none;strokeColor=none;spacingTop=-1;spacingBottom=-1;spacingLeft=-1;spacingRight=-1;labelBackgroundColor=none;rounded=1;html=1;whiteSpace=wrap;verticalAlign=middle;align=center;;html=1;" parent="141" vertex="1">
          <mxGeometry y="24" width="129.43" as="geometry"/>
        </mxCell>
        <mxCell id="150" style="vsdxID=1004;fillColor=none;gradientColor=none;strokeColor=none;spacingTop=-1;spacingBottom=-1;spacingLeft=-1;spacingRight=-1;labelBackgroundColor=none;rounded=1;html=1;whiteSpace=wrap;" parent="1" vertex="1">
          <mxGeometry x="935" y="374" width="129" height="48" as="geometry"/>
        </mxCell>
        <mxCell id="151" style="vsdxID=1005;fillColor=#c7a0e2;gradientColor=none;shape=stencil(nZFLDsIwDERP4y0KyQKxLuUCnCAihliEpEpL+ZyetANS6YJFs7JnXmxpTKZqvW2YtGq7nC58F9d5MjvSWqLnLF2pyNRkqlPKfM7pFh36xhZSq1Fhhz/rgdbK5uNBXgxts9r+PjAYck39sPwBVMF6foYp9HugQeIE/ZqL4D/oQnC2vhRjPAhOQkC6U38eZ5FwClO/AQ==);strokeColor=#939393;spacingTop=-1;spacingBottom=-1;spacingLeft=-1;spacingRight=-1;labelBackgroundColor=none;rounded=1;html=1;whiteSpace=wrap;" parent="150" vertex="1">
          <mxGeometry width="129" height="48" as="geometry"/>
        </mxCell>
        <mxCell id="158" value="&lt;font style=&quot;direction: ltr ; line-height: 120% ; opacity: 1&quot;&gt;&lt;div&gt;&lt;font color=&quot;#feffff&quot; face=&quot;calibri&quot;&gt;&lt;span style=&quot;font-size: 11px&quot;&gt;Disclosure Meeting&lt;/span&gt;&lt;/font&gt;&lt;/div&gt;&lt;/font&gt;" style="text;vsdxID=1004;fillColor=none;gradientColor=none;strokeColor=none;spacingTop=-1;spacingBottom=-1;spacingLeft=-1;spacingRight=-1;labelBackgroundColor=none;rounded=1;html=1;whiteSpace=wrap;verticalAlign=middle;align=center;;html=1;" parent="150" vertex="1">
          <mxGeometry y="24" width="129.43" as="geometry"/>
        </mxCell>
        <mxCell id="159" style="vsdxID=1052;fillColor=none;gradientColor=none;strokeColor=none;spacingTop=-1;spacingBottom=-1;spacingLeft=-1;spacingRight=-1;labelBackgroundColor=none;rounded=0;html=1;whiteSpace=wrap;" parent="1" vertex="1">
          <mxGeometry x="700" y="364" width="100" height="80" as="geometry"/>
        </mxCell>
        <mxCell id="160" value="" style="verticalAlign=top;align=center;vsdxID=1053;fillColor=#c7a0e2;gradientColor=none;shape=stencil(nZBNDoUgDIRP0z3SeAKf3sNElEYEg/h3+wdpjIaFC3cz9OukDGC16HZWIMUSvBvVTl3QgD+QkqxWnkJUgDVg1TuvBu9W27Gf20QmNbktJRy8V4q0IsXJthDsG2YN2Qd7DS+4fGGz3Bfyc2Z2axT3J3syhjt6zvNS4hMXivUf);strokeColor=#939393;shadow=1;labelBackgroundColor=none;rounded=0;html=1;whiteSpace=wrap;" parent="159" vertex="1">
          <mxGeometry width="100" height="80" as="geometry"/>
        </mxCell>
        <mxCell id="164" value="&lt;font style=&quot;direction: ltr ; line-height: 120% ; opacity: 1&quot;&gt;&lt;div&gt;&lt;font color=&quot;#feffff&quot; face=&quot;calibri&quot;&gt;&lt;span style=&quot;font-size: 11px&quot;&gt;Approved?&lt;/span&gt;&lt;/font&gt;&lt;/div&gt;&lt;/font&gt;" style="text;vsdxID=1052;fillColor=none;gradientColor=none;strokeColor=none;spacingTop=-1;spacingBottom=-1;spacingLeft=-1;spacingRight=-1;labelBackgroundColor=none;rounded=0;html=1;whiteSpace=wrap;verticalAlign=middle;align=center;;html=1;" parent="159" vertex="1">
          <mxGeometry x="7.67" y="11.42" width="84.66" height="57.15" as="geometry"/>
        </mxCell>
        <mxCell id="165" style="vsdxID=1078;fillColor=#ffca2b;gradientColor=none;shape=stencil(nZFbDoQgDEVX03+GxhX42IeJODQyYBDnsXshjc7Ih5nwdy89pS/AetH9rECKJXg3qRcNQQM2ICVZrTyFqABbwHp0Xt29W+3Afu4TmdTDPdMPb84TKUOKD7ubYN8xasj+oHuwCL5AC8GsfBTfGUcyhld0xP9bwEX16kxWpcOfGs2ajCI/XHzio2O7AQ==);strokeColor=#7f7f7f;labelBackgroundColor=none;rounded=0;html=1;whiteSpace=wrap;" parent="1" vertex="1">
          <mxGeometry x="818" y="761" width="42" height="25" as="geometry"/>
        </mxCell>
        <mxCell id="166" style="vsdxID=1079;fillColor=#ffca2b;gradientColor=none;shape=stencil(nZFbDoQgDEVX03+GxhX42IeJODQyYBDnsXshjc7Ih5nwdy89pS/AetH9rECKJXg3qRcNQQM2ICVZrTyFqABbwHp0Xt29W+3Afu4TmdTDPdMPb84TKUOKD7ubYN8xasj+oHuwCL5AC8GsfBTfGUcyhld0xP9bwEX16kxWpcOfGs2ajCI/XHzio2O7AQ==);strokeColor=#7f7f7f;labelBackgroundColor=none;rounded=0;html=1;whiteSpace=wrap;" parent="1" vertex="1">
          <mxGeometry x="818" y="511" width="42" height="25" as="geometry"/>
        </mxCell>
        <mxCell id="167" style="vsdxID=1080;fillColor=#ffca2b;gradientColor=none;shape=stencil(nZFbDoQgDEVX03+GxhX42IeJODQyYBDnsXshjc7Ih5nwdy89pS/AetH9rECKJXg3qRcNQQM2ICVZrTyFqABbwHp0Xt29W+3Afu4TmdTDPdMPb84TKUOKD7ubYN8xasj+oHuwCL5AC8GsfBTfGUcyhld0xP9bwEX16kxWpcOfGs2ajCI/XHzio2O7AQ==);strokeColor=#7f7f7f;labelBackgroundColor=none;rounded=0;html=1;whiteSpace=wrap;" parent="1" vertex="1">
          <mxGeometry x="820" y="268" width="42" height="25" as="geometry"/>
        </mxCell>
        <mxCell id="168" style="vsdxID=1081;fillColor=#ffca2b;gradientColor=none;shape=stencil(nZFbDoQgDEVX03+GxhX42IeJODQyYBDnsXshjc7Ih5nwdy89pS/AetH9rECKJXg3qRcNQQM2ICVZrTyFqABbwHp0Xt29W+3Afu4TmdTDPdMPb84TKUOKD7ubYN8xasj+oHuwCL5AC8GsfBTfGUcyhld0xP9bwEX16kxWpcOfGs2ajCI/XHzio2O7AQ==);strokeColor=#7f7f7f;labelBackgroundColor=none;rounded=0;html=1;whiteSpace=wrap;" parent="1" vertex="1">
          <mxGeometry x="880" y="149" width="42" height="25" as="geometry"/>
        </mxCell>
        <mxCell id="169" style="vsdxID=1083;fillColor=none;gradientColor=none;strokeColor=none;spacingTop=-1;spacingBottom=-1;spacingLeft=-1;spacingRight=-1;labelBackgroundColor=none;rounded=1;html=1;whiteSpace=wrap;" parent="1" vertex="1">
          <mxGeometry x="531" y="372" width="140" height="64" as="geometry"/>
        </mxCell>
        <mxCell id="170" style="vsdxID=1084;fillColor=#c7a0e2;gradientColor=none;shape=stencil(nZFLDsIwDERP4y0KyQKxLuUCnCAihliEpEpL+ZyetANS6YJFs7JnXmxpTKZqvW2YtGq7nC58F9d5MjvSWqLnLF2pyNRkqlPKfM7pFh36xhZSq1Fhhz/rgdbK5uNBXgxts9r+PjAYck39sPwBVMF6foYp9HugQeIE/ZqL4D/oQnC2vhRjPAhOQkC6U38eZ5FwClO/AQ==);strokeColor=#939393;spacingTop=-1;spacingBottom=-1;spacingLeft=-1;spacingRight=-1;labelBackgroundColor=none;rounded=1;html=1;whiteSpace=wrap;" parent="169" vertex="1">
          <mxGeometry width="140" height="64" as="geometry"/>
        </mxCell>
        <mxCell id="177" value="&lt;p style=&quot;margin-left: 0 ; margin-right: 0 ; margin-top: 0px ; margin-bottom: 0px ; text-indent: 0 ; direction: ltr&quot;&gt;&lt;font style=&quot;font-size: 11px ; font-family: &amp;#34;calibri&amp;#34; ; color: #feffff ; direction: ltr ; letter-spacing: 0px ; line-height: 120% ; opacity: 1&quot;&gt;&lt;/font&gt;&lt;/p&gt;&lt;p style=&quot;margin: 0px ; direction: ltr&quot;&gt;&lt;font color=&quot;#feffff&quot; face=&quot;calibri&quot;&gt;&lt;span style=&quot;font-size: 11px&quot;&gt;Analysis for approval of the study according to the% of Prody vs Spend of MP / Me&lt;/span&gt;&lt;/font&gt;&lt;/p&gt;" style="text;vsdxID=1083;fillColor=none;gradientColor=none;strokeColor=none;spacingTop=-1;spacingBottom=-1;spacingLeft=-1;spacingRight=-1;labelBackgroundColor=none;rounded=1;html=1;whiteSpace=wrap;verticalAlign=middle;align=center;;html=1;" parent="169" vertex="1">
          <mxGeometry y="32" width="140.59" as="geometry"/>
        </mxCell>
        <mxCell id="2" value="Conector" parent="0"/>
        <mxCell id="182" style="vsdxID=1107;edgeStyle=none;startArrow=none;endArrow=block;startSize=5;endSize=5;strokeColor=#c7a0e2;spacingTop=0;spacingBottom=0;spacingLeft=0;spacingRight=0;verticalAlign=middle;html=1;labelBackgroundColor=#ffffff;rounded=0;exitX=1.0071428571428571;exitY=0.5;exitDx=0;exitDy=0;exitPerimeter=0;entryX=0;entryY=0.5;entryDx=0;entryDy=0;entryPerimeter=0;" parent="2" source="169" target="159" edge="1">
          <mxGeometry relative="1" as="geometry">
            <mxPoint x="-1" as="offset"/>
            <Array as="points">
              <mxPoint x="687" y="404"/>
              <mxPoint x="687" y="404.32"/>
            </Array>
          </mxGeometry>
        </mxCell>
        <mxCell id="183" value="" style="vsdxID=1082;edgeStyle=none;dashed=1;startFill=0;startArrow=oval;endFill=0;endArrow=block;startSize=3;endSize=3;strokeColor=#c00000;spacingTop=0;spacingBottom=0;spacingLeft=0;spacingRight=0;verticalAlign=middle;html=1;labelBackgroundColor=#ffffff;rounded=1;align=center;exitX=1;exitY=0.48;exitDx=0;exitDy=0;exitPerimeter=0;entryX=0;entryY=0.52;entryDx=0;entryDy=0;entryPerimeter=0;" parent="2" source="167" target="168" edge="1">
          <mxGeometry relative="1" as="geometry">
            <mxPoint x="1" y="61" as="offset"/>
            <Array as="points">
              <mxPoint x="869.5" y="280"/>
              <mxPoint x="869.5" y="161.25"/>
            </Array>
          </mxGeometry>
        </mxCell>
        <mxCell id="184" value="" style="vsdxID=1076;edgeStyle=none;dashed=1;startFill=0;startArrow=oval;endFill=0;endArrow=block;startSize=3;endSize=3;strokeColor=#000000;spacingTop=0;spacingBottom=0;spacingLeft=0;spacingRight=0;verticalAlign=middle;html=1;labelBackgroundColor=#ffffff;rounded=1;align=center;exitX=0.5;exitY=0;exitDx=0;exitDy=0;exitPerimeter=0;entryX=0;entryY=0.5;entryDx=0;entryDy=0;entryPerimeter=0;" parent="2" source="79" target="150" edge="1">
          <mxGeometry relative="1" as="geometry">
            <mxPoint x="1" y="1" as="offset"/>
            <Array as="points">
              <mxPoint x="918" y="397.99"/>
            </Array>
          </mxGeometry>
        </mxCell>
        <mxCell id="185" value="&lt;font style=&quot;direction: ltr ; line-height: 120% ; opacity: 1&quot;&gt;&lt;div&gt;&lt;font color=&quot;#c00000&quot; face=&quot;calibri&quot;&gt;&lt;b&gt;No&lt;/b&gt;&lt;/font&gt;&lt;/div&gt;&lt;/font&gt;" style="vsdxID=1075;edgeStyle=none;dashed=1;startFill=0;startArrow=oval;endFill=0;endArrow=block;startSize=3;endSize=3;strokeColor=#c00000;spacingTop=0;spacingBottom=0;spacingLeft=0;spacingRight=0;verticalAlign=middle;html=1;labelBackgroundColor=#ffffff;rounded=1;align=center;exitX=1;exitY=0.5;exitDx=0;exitDy=0;exitPerimeter=0;entryX=0;entryY=0.48;entryDx=0;entryDy=0;entryPerimeter=0;" parent="2" source="159" target="165" edge="1">
          <mxGeometry relative="1" as="geometry">
            <mxPoint x="9" y="-192" as="offset"/>
            <Array as="points">
              <mxPoint x="807.5" y="404"/>
              <mxPoint x="807.5" y="773.62"/>
            </Array>
          </mxGeometry>
        </mxCell>
        <mxCell id="186" value="" style="vsdxID=1074;edgeStyle=none;dashed=1;startFill=0;startArrow=oval;endFill=0;endArrow=block;startSize=3;endSize=3;strokeColor=#c00000;spacingTop=0;spacingBottom=0;spacingLeft=0;spacingRight=0;verticalAlign=middle;html=1;labelBackgroundColor=#ffffff;rounded=1;align=center;exitX=1;exitY=0.5;exitDx=0;exitDy=0;exitPerimeter=0;entryX=0;entryY=0.52;entryDx=0;entryDy=0;entryPerimeter=0;" parent="2" source="159" target="166" edge="1">
          <mxGeometry relative="1" as="geometry">
            <mxPoint x="8" y="-27" as="offset"/>
            <Array as="points">
              <mxPoint x="807.5" y="404"/>
              <mxPoint x="807.5" y="524.31"/>
            </Array>
          </mxGeometry>
        </mxCell>
        <mxCell id="187" value="" style="vsdxID=1073;edgeStyle=none;dashed=1;startFill=0;startArrow=oval;endFill=0;endArrow=block;startSize=3;endSize=3;strokeColor=#c00000;spacingTop=0;spacingBottom=0;spacingLeft=0;spacingRight=0;verticalAlign=middle;html=1;labelBackgroundColor=#ffffff;rounded=1;align=center;exitX=1;exitY=0.5;exitDx=0;exitDy=0;exitPerimeter=0;entryX=0;entryY=0.48;entryDx=0;entryDy=0;entryPerimeter=0;" parent="2" source="159" target="167" edge="1">
          <mxGeometry relative="1" as="geometry">
            <mxPoint y="65" as="offset"/>
            <Array as="points">
              <mxPoint x="807.5" y="404"/>
              <mxPoint x="807.5" y="280.56"/>
            </Array>
          </mxGeometry>
        </mxCell>
        <object label="&lt;font style=&quot;font-size:11px;font-family:Calibri;color:#70ad47;direction:ltr;letter-spacing:0px;line-height:120%;opacity:1&quot;&gt;&lt;b&gt;Sim&lt;br/&gt;&lt;/b&gt;&lt;/font&gt;" id="188">
          <mxCell style="vsdxID=1069;edgeStyle=none;dashed=1;startFill=0;startArrow=oval;endFill=0;endArrow=block;startSize=3;endSize=3;strokeColor=#70ad47;spacingTop=0;spacingBottom=0;spacingLeft=0;spacingRight=0;verticalAlign=middle;html=1;labelBackgroundColor=#ffffff;rounded=1;align=center;exitX=0.5;exitY=1;exitDx=0;exitDy=0;exitPerimeter=0;entryX=0;entryY=0.5079365079365079;entryDx=0;entryDy=0;entryPerimeter=0;" parent="2" source="159" target="79" edge="1">
            <mxGeometry x="0.3577" y="144" relative="1" as="geometry">
              <mxPoint as="offset"/>
              <Array as="points">
                <mxPoint x="750" y="603.69"/>
                <mxPoint x="804.17" y="603.69"/>
              </Array>
            </mxGeometry>
          </mxCell>
        </object>
        <mxCell id="189" value="" style="vsdxID=1002;edgeStyle=none;dashed=1;startFill=0;startArrow=oval;endFill=0;endArrow=block;startSize=3;endSize=3;strokeColor=#000000;spacingTop=0;spacingBottom=0;spacingLeft=0;spacingRight=0;verticalAlign=middle;html=1;labelBackgroundColor=#ffffff;rounded=1;align=center;exitX=0.5;exitY=0;exitDx=0;exitDy=0;exitPerimeter=0;entryX=0;entryY=0.5;entryDx=0;entryDy=0;entryPerimeter=0;" parent="2" source="79" target="141" edge="1">
          <mxGeometry relative="1" as="geometry">
            <mxPoint y="2" as="offset"/>
            <Array as="points">
              <mxPoint x="918" y="281.77"/>
            </Array>
          </mxGeometry>
        </mxCell>
        <mxCell id="190" value="" style="vsdxID=973;edgeStyle=none;dashed=1;startFill=0;startArrow=oval;endFill=0;endArrow=block;startSize=3;endSize=3;strokeColor=#000000;spacingTop=0;spacingBottom=0;spacingLeft=0;spacingRight=0;verticalAlign=middle;html=1;labelBackgroundColor=#ffffff;rounded=1;align=center;exitX=0.5071428571428571;exitY=1;exitDx=0;exitDy=0;exitPerimeter=0;entryX=0.5071428571428571;entryY=0;entryDx=0;entryDy=0;entryPerimeter=0;" parent="2" source="135" target="126" edge="1">
          <mxGeometry relative="1" as="geometry">
            <mxPoint x="10" as="offset"/>
            <Array as="points"/>
          </mxGeometry>
        </mxCell>
        <mxCell id="191" value="" style="vsdxID=972;edgeStyle=none;dashed=1;startFill=0;startArrow=oval;endFill=0;endArrow=block;startSize=3;endSize=3;strokeColor=#000000;spacingTop=0;spacingBottom=0;spacingLeft=0;spacingRight=0;verticalAlign=middle;html=1;labelBackgroundColor=#ffffff;rounded=1;align=center;exitX=0.5;exitY=1;exitDx=0;exitDy=0;exitPerimeter=0;entryX=0.5071428571428571;entryY=0;entryDx=0;entryDy=0;entryPerimeter=0;" parent="2" source="41" target="135" edge="1">
          <mxGeometry relative="1" as="geometry">
            <mxPoint x="-10" as="offset"/>
            <Array as="points">
              <mxPoint x="241" y="209"/>
              <mxPoint x="239.44" y="209"/>
            </Array>
          </mxGeometry>
        </mxCell>
        <mxCell id="192" value="" style="vsdxID=903;edgeStyle=none;dashed=1;startFill=0;startArrow=oval;endFill=0;endArrow=block;startSize=3;endSize=3;strokeColor=#000000;spacingTop=0;spacingBottom=0;spacingLeft=0;spacingRight=0;verticalAlign=middle;html=1;labelBackgroundColor=#ffffff;rounded=1;align=center;exitX=0.5;exitY=1;exitDx=0;exitDy=0;exitPerimeter=0;entryX=0;entryY=0.52;entryDx=0;entryDy=0;entryPerimeter=0;" parent="2" source="41" target="134" edge="1">
          <mxGeometry relative="1" as="geometry">
            <mxPoint y="1" as="offset"/>
            <Array as="points">
              <mxPoint x="241" y="217.76"/>
              <mxPoint x="159.44" y="217.76"/>
              <mxPoint x="159.44" y="778.08"/>
            </Array>
          </mxGeometry>
        </mxCell>
        <mxCell id="193" value="" style="vsdxID=871;edgeStyle=none;dashed=1;startFill=0;startArrow=oval;endFill=0;endArrow=block;startSize=3;endSize=3;strokeColor=#000000;spacingTop=0;spacingBottom=0;spacingLeft=0;spacingRight=0;verticalAlign=middle;html=1;labelBackgroundColor=#ffffff;rounded=1;align=center;exitX=0.5058139534883721;exitY=1;exitDx=0;exitDy=0;exitPerimeter=0;entryX=0.5;entryY=0;entryDx=0;entryDy=0;entryPerimeter=0;" parent="2" source="50" target="108" edge="1">
          <mxGeometry relative="1" as="geometry">
            <mxPoint x="9" as="offset"/>
            <Array as="points">
              <mxPoint x="433" y="347"/>
              <mxPoint x="433.87" y="347"/>
            </Array>
          </mxGeometry>
        </mxCell>
        <mxCell id="194" value="" style="vsdxID=870;edgeStyle=none;dashed=1;startFill=0;startArrow=oval;endFill=0;endArrow=block;startSize=3;endSize=3;strokeColor=#000000;spacingTop=0;spacingBottom=0;spacingLeft=0;spacingRight=0;verticalAlign=middle;html=1;labelBackgroundColor=#ffffff;rounded=1;align=center;exitX=1.0071428571428571;exitY=0.5;exitDx=0;exitDy=0;exitPerimeter=0;entryX=0;entryY=0.5;entryDx=0;entryDy=0;entryPerimeter=0;" parent="2" source="126" target="50" edge="1">
          <mxGeometry relative="1" as="geometry">
            <mxPoint y="-1" as="offset"/>
            <Array as="points">
              <mxPoint x="325" y="404"/>
              <mxPoint x="325" y="300"/>
            </Array>
          </mxGeometry>
        </mxCell>
        <mxCell id="195" value="" style="vsdxID=869;edgeStyle=none;dashed=1;startFill=0;startArrow=oval;endFill=0;endArrow=block;startSize=3;endSize=3;strokeColor=#000000;spacingTop=0;spacingBottom=0;spacingLeft=0;spacingRight=0;verticalAlign=middle;html=1;labelBackgroundColor=#ffffff;rounded=1;align=center;exitX=0.5;exitY=1;exitDx=0;exitDy=0;exitPerimeter=0;entryX=0;entryY=0.5;entryDx=0;entryDy=0;entryPerimeter=0;" parent="2" source="108" target="70" edge="1">
          <mxGeometry relative="1" as="geometry">
            <mxPoint y="-2" as="offset"/>
            <Array as="points">
              <mxPoint x="433" y="778.21"/>
            </Array>
          </mxGeometry>
        </mxCell>
        <mxCell id="196" value="" style="vsdxID=850;edgeStyle=none;dashed=1;startFill=0;startArrow=oval;endFill=0;endArrow=block;startSize=3;endSize=3;strokeColor=#000000;spacingTop=0;spacingBottom=0;spacingLeft=0;spacingRight=0;verticalAlign=middle;html=1;labelBackgroundColor=#ffffff;rounded=1;align=center;exitX=0.5;exitY=1.0158730158730158;exitDx=0;exitDy=0;exitPerimeter=0;entryX=0;entryY=0.5;entryDx=0;entryDy=0;entryPerimeter=0;" parent="2" source="79" target="117" edge="1">
          <mxGeometry relative="1" as="geometry">
            <mxPoint y="-3" as="offset"/>
            <Array as="points">
              <mxPoint x="918" y="778.21"/>
            </Array>
          </mxGeometry>
        </mxCell>
        <mxCell id="197" value="" style="vsdxID=810;edgeStyle=none;dashed=1;startFill=0;startArrow=oval;endFill=0;endArrow=block;startSize=3;endSize=3;strokeColor=#000000;spacingTop=0;spacingBottom=0;spacingLeft=0;spacingRight=0;verticalAlign=middle;html=1;labelBackgroundColor=#ffffff;rounded=1;align=center;exitX=0.5;exitY=0;exitDx=0;exitDy=0;exitPerimeter=0;entryX=0.5071428571428571;entryY=1;entryDx=0;entryDy=0;entryPerimeter=0;" parent="2" source="61" target="169" edge="1">
          <mxGeometry relative="1" as="geometry">
            <mxPoint y="-4" as="offset"/>
            <Array as="points">
              <mxPoint x="535" y="556"/>
              <mxPoint x="601.39" y="556"/>
            </Array>
          </mxGeometry>
        </mxCell>
        <mxCell id="198" style="vsdxID=586;edgeStyle=none;startArrow=none;endArrow=block;startSize=5;endSize=5;strokeColor=#5b9bd5;spacingTop=0;spacingBottom=0;spacingLeft=0;spacingRight=0;verticalAlign=middle;html=1;labelBackgroundColor=#ffffff;rounded=0;exitX=1.013157894736842;exitY=0.5079365079365079;exitDx=0;exitDy=0;exitPerimeter=0;entryX=0;entryY=0.5;entryDx=0;entryDy=0;entryPerimeter=0;" parent="2" source="88" target="94" edge="1">
          <mxGeometry relative="1" as="geometry">
            <mxPoint x="4" as="offset"/>
            <Array as="points">
              <mxPoint x="1076.75" y="604"/>
              <mxPoint x="1076.75" y="603.69"/>
            </Array>
          </mxGeometry>
        </mxCell>
        <mxCell id="199" style="vsdxID=69;edgeStyle=none;startArrow=none;endArrow=block;startSize=5;endSize=5;strokeColor=#c7a0e2;spacingTop=0;spacingBottom=0;spacingLeft=0;spacingRight=0;verticalAlign=middle;html=1;labelBackgroundColor=#ffffff;rounded=0;exitX=1;exitY=0.5;exitDx=0;exitDy=0;exitPerimeter=0;entryX=0;entryY=0.5;entryDx=0;entryDy=0;entryPerimeter=0;" parent="2" source="36" target="41" edge="1">
          <mxGeometry relative="1" as="geometry">
            <mxPoint x="-1" as="offset"/>
            <Array as="points"/>
          </mxGeometry>
        </mxCell>
        <mxCell id="200" value="" style="vsdxID=412;edgeStyle=none;dashed=1;startFill=0;startArrow=oval;endFill=0;endArrow=block;startSize=3;endSize=3;strokeColor=#000000;spacingTop=0;spacingBottom=0;spacingLeft=0;spacingRight=0;verticalAlign=middle;html=1;labelBackgroundColor=#ffffff;rounded=1;align=center;exitX=0.5;exitY=1;exitDx=0;exitDy=0;exitPerimeter=0;entryX=0;entryY=0.5;entryDx=0;entryDy=0;entryPerimeter=0;" parent="2" source="108" target="61" edge="1">
          <mxGeometry relative="1" as="geometry">
            <mxPoint y="-2" as="offset"/>
            <Array as="points">
              <mxPoint x="433" y="603.84"/>
            </Array>
          </mxGeometry>
        </mxCell>
        <mxCell id="201" style="vsdxID=545;edgeStyle=none;startArrow=none;endArrow=block;startSize=5;endSize=5;strokeColor=#5b9bd5;spacingTop=0;spacingBottom=0;spacingLeft=0;spacingRight=0;verticalAlign=middle;html=1;labelBackgroundColor=#ffffff;rounded=0;exitX=1;exitY=0.5079365079365079;exitDx=0;exitDy=0;exitPerimeter=0;entryX=0;entryY=0.5079365079365079;entryDx=0;entryDy=0;entryPerimeter=0;" parent="2" source="79" target="88" edge="1">
          <mxGeometry relative="1" as="geometry">
            <mxPoint x="2" y="-1" as="offset"/>
            <Array as="points">
              <mxPoint x="988.5" y="604"/>
              <mxPoint x="988.5" y="604.4"/>
            </Array>
          </mxGeometry>
        </mxCell>
        <mxCell id="202" value="&lt;font style=&quot;direction: ltr ; line-height: 120% ; opacity: 1&quot;&gt;&lt;div&gt;&lt;font color=&quot;#c00000&quot; face=&quot;calibri&quot;&gt;NO&lt;/font&gt;&lt;/div&gt;&lt;/font&gt;" style="vsdxID=562;edgeStyle=none;startArrow=none;endArrow=block;startSize=5;endSize=5;strokeColor=#c00000;spacingTop=0;spacingBottom=0;spacingLeft=0;spacingRight=0;verticalAlign=middle;html=1;labelBackgroundColor=#ffffff;rounded=0;align=center;exitX=0.5131578947368421;exitY=1.0158730158730158;exitDx=0;exitDy=0;exitPerimeter=0;entryX=0.5;entryY=1;entryDx=0;entryDy=0;entryPerimeter=0;" parent="2" source="88" target="61" edge="1">
          <mxGeometry relative="1" as="geometry">
            <mxPoint x="263" y="-11" as="offset"/>
            <Array as="points">
              <mxPoint x="1035" y="675.68"/>
              <mxPoint x="921.96" y="675.68"/>
              <mxPoint x="810.69" y="675.68"/>
              <mxPoint x="535.63" y="675.68"/>
            </Array>
          </mxGeometry>
        </mxCell>
        <mxCell id="3" value="Contêiner" parent="0"/>
        <mxCell id="4" value="Texto Explicativo" parent="0"/>
        <mxCell id="178" value="&lt;font style=&quot;font-size: 8px ; font-family: &amp;#34;calibri&amp;#34; ; color: #7030a0 ; direction: ltr ; letter-spacing: 0px ; line-height: 120% ; opacity: 1&quot;&gt;INCOTERM change, share change, supplier or material change ...&lt;br&gt;&lt;/font&gt;" style="verticalAlign=middle;align=center;vsdxID=71;fillColor=#ffffff;gradientColor=none;shape=stencil(XU/LDsMgDPuaXKuUaKt27th/IJUVtBYQsK39+8Fy6ONmO3biAPXJqKBBYMrRv/TXDtkA3UEI64yONhcEJIH6p496jP7tBuZBVWdFs//UDQvnLth0VFMCV1ZaxD9/sH2y7mi/newtNdd9oIDtGPfcz87FisRPkfwB);strokeColor=#c7a0e2;strokeWidth=2;labelBackgroundColor=none;rounded=0;html=1;whiteSpace=wrap;" parent="4" vertex="1">
          <mxGeometry x="154" y="89" width="166" height="36" as="geometry"/>
        </mxCell>
        <mxCell id="179" value="&lt;font style=&quot;direction: ltr ; line-height: 120% ; opacity: 1 ; font-size: 8px&quot; color=&quot;#7030a0&quot; face=&quot;calibri&quot;&gt;&lt;div&gt;&lt;span&gt;Masterlist (material info), CIF vs FOB price, loading restrictions ...&lt;/span&gt;&lt;br&gt;&lt;/div&gt;&lt;/font&gt;" style="verticalAlign=middle;align=center;vsdxID=118;fillColor=#ffffff;gradientColor=none;shape=stencil(XU/LDoMwDPuaXFFJOiTOPP4Dqd1aAS0qhW1/v3Y58LjZjp04QM1qhkUDijUGP+q3VdEAtYBondHBxoSAOqDm6YN+Bb85xXwZsjOj2e95w4dzsi4k5RSKLyulEH/es32y7mpHebWXVfHAcyKB4xoXPc/uzZLEX1H3Aw==);strokeColor=#c7a0e2;strokeWidth=2;labelBackgroundColor=none;rounded=0;html=1;whiteSpace=wrap;" parent="4" vertex="1">
          <mxGeometry x="352" y="226" width="166" height="36" as="geometry"/>
        </mxCell>
        <mxCell id="180" value="&lt;font style=&quot;direction: ltr ; line-height: 120% ; opacity: 1&quot;&gt;&lt;div&gt;&lt;font color=&quot;#002060&quot; face=&quot;calibri&quot;&gt;&lt;span style=&quot;font-size: 11px&quot;&gt;01 week on average&lt;/span&gt;&lt;/font&gt;&lt;/div&gt;&lt;/font&gt;" style="verticalAlign=middle;align=center;vsdxID=868;fillColor=#ffffff;gradientColor=none;shape=stencil(XU/LEoIwDPyaXJmQCMgZ8T+YodKO2jKlKvw9rTnwuO1udpMNcDPpblRAOAXvnupn+qCBb0BkrFbehIiAW+Dm4bwavPvYXvjYJWdCb/dNG2bJFZhRnVKEiyg54p/fxf4y9mi/lEc7XbOq3ici2K5J0f3s3CxK8hW3Kw==);strokeColor=#5b9bd5;strokeWidth=2;labelBackgroundColor=none;rounded=0;html=1;whiteSpace=wrap;" parent="4" vertex="1">
          <mxGeometry x="464" y="530" width="140" height="32" as="geometry"/>
        </mxCell>
        <mxCell id="181" value="&lt;font style=&quot;direction: ltr ; line-height: 120% ; opacity: 1 ; font-size: 11px&quot; color=&quot;#41719c&quot; face=&quot;calibri&quot;&gt;&lt;div&gt;FREQUENCY&lt;/div&gt;&lt;div&gt;MILK RUN&lt;/div&gt;&lt;div&gt;TRANSPORTERS&lt;/div&gt;&lt;div&gt;CIF to FOB&lt;/div&gt;&lt;div&gt;CROSS DOCKING ...&lt;/div&gt;&lt;/font&gt;" style="verticalAlign=middle;align=center;vsdxID=901;fillColor=#deebf6;gradientColor=none;shape=stencil(vVjbltowDPyaPEbHsnx93m7/I6cbIKeUcALtbv++SkNMZULoPuC34NhmRiPJ41T0cto1x7bS6nQe+u/te/d23lX0pdK6O+zaoTvzU0WvFb1s+qHdDv3Pw9v0+9iMM8enH/2vcYePaV1tAHFcpdXvaQSVg2j/Dn2dVjTDN349XFaQAozTiuGyxFjQYRqaJ2kIQW6LDixdJtXNR3eqh/7cnLv+ME1Q07t9M2zbmv+y3uybrXh1em/b483wIkhtwKEESUwLBUhvwbp73EuARHAZRg1GQBwBBSswBgKlS0HECJEkRh0hRAmSiSgvQJIFdMVAOlBZRrL+SFkkI0iMHP1iUmMA7zOIAdAKiD7M6l+m1KiAymn9P2G0GnyUID3EYhg1d5osjuTzutY6Je2MUYE3xTDSjdZcDk5qXSPmIAnB+mJiE1DIxFapihNID04LkC6mflQApAGdYUSQ+bh6fj0Fojw/NbcVKaPXc10vc5KEWHOZu6Mwd/b7NB38fMQfoFth+xR0MtgY1E0+cs+MK7WY1aFggyHc365AsB+AW+FaItbGZ1I7Mxu/ZV8o2ZgsddDmqXPdr0CsH6FbYfsUdPxwteSbbr+fHH16f9evr7Xk5ZJWN1YY7fXIvmzLe8i6ZktXrInS9XhOtwUFdo2UAZX70n8QJzdd+BIiaa3eL5Zp6XQEJ63YJgpW3oGTqRrZ2YZSpFZvJMukMD/FWQV5XYwh+dw5qQnCE81QxmkEJF2E0UDmPqdrxBMnvnFK91T+WpRZE586WOp6ar2mKPf/bACkUqO3lko92VuLRpk1SX7Iv3Pw0PSNhF7/AA==);strokeColor=#2d4d6a;strokeWidth=2;labelBackgroundColor=none;rounded=0;html=1;whiteSpace=wrap;" parent="4" vertex="1">
          <mxGeometry x="170" y="534" width="126" height="84" as="geometry"/>
        </mxCell>
      </root>
    </mxGraphModel>
  </diagram>
  <diagram name="PROCESSO IMPLANTAÇÃO" id="PROCESSO_IMPLANTAÇÃO">
    <mxGraphModel dx="782" dy="706" grid="1" gridSize="10" guides="1" tooltips="1" connect="1" arrows="1" fold="1" page="1" pageScale="1" pageWidth="827" pageHeight="1169" math="0" shadow="0">
      <root>
        <mxCell id="0"/>
        <mxCell id="1" value="Fluxograma" parent="0"/>
        <mxCell id="4" style="vsdxID=74;fillColor=none;gradientColor=none;strokeColor=none;labelBackgroundColor=none;rounded=0;html=1;whiteSpace=wrap;" parent="1" vertex="1">
          <mxGeometry x="24" y="56" width="1137" height="767" as="geometry"/>
        </mxCell>
        <mxCell id="5" style="vsdxID=75;fillColor=#5b9bd5;gradientColor=none;fillOpacity=0;shape=stencil(nZBLDoAgDERP0z3SIyjew0SURgSD+Lu9kMZoXLhwN9O+tukAlrNpJg1SzDH4QW/URgNYgZTkjA4UkwJUgGXng+6DX1zLfmoymdXo17xh5zmRJ6Q42BWCfc2oJfdAr+Yv+AP9Cb7OJ3H/2JG1HNGz/84klThPVCc=);strokeColor=#939393;labelBackgroundColor=none;rounded=0;html=1;whiteSpace=wrap;" parent="4" vertex="1">
          <mxGeometry width="1137" height="767" as="geometry"/>
        </mxCell>
        <mxCell id="6" style="vsdxID=76;rotation=270;fillColor=#5b9bd5;gradientColor=none;shape=stencil(rZBLDoAgDERP0z3SI/i5B4kojQgE8Xd7IY3RuHY303lt0gGsF6OCBimWFP2kd+qTAWxASnJGR0pZAbaA9eCjHqNfXc8+qEIWNfutXDh4T5QNKU52lWDfMWrJvdA7/B/+C83i+XMga7mmd/7tJY+4U2wv);strokeColor=#939393;labelBackgroundColor=none;rounded=0;html=1;whiteSpace=wrap;" parent="4" vertex="1">
          <mxGeometry x="-384" y="383" width="767" height="1" as="geometry"/>
        </mxCell>
        <mxCell id="7" style="vsdxID=77;fillColor=#5b9bd5;gradientColor=none;fillOpacity=0;shape=stencil(nZBLDoAgDERP0z3SIyjew0SURgSD+Lu9kMZoXLhwN9N5bdMClrNpJg1SzDH4QW/URgNYgZTkjA4UkwJUgGXng+6DX1zLfmoymdXo1zxh5z6RO6Q42BWCfc2oJfdAr/AX/IH+BF/rk7hv7MjaZ/L+RirxJ1Gd);strokeColor=#939393;labelBackgroundColor=none;rounded=0;html=1;whiteSpace=wrap;" parent="1" vertex="1">
          <mxGeometry x="24" y="56" width="1137" height="767" as="geometry"/>
        </mxCell>
        <mxCell id="8" style="vsdxID=7;fillColor=none;gradientColor=none;strokeColor=none;labelBackgroundColor=none;rounded=0;html=1;whiteSpace=wrap;" parent="1" vertex="1">
          <mxGeometry x="24" y="56" width="1137" height="107" as="geometry"/>
        </mxCell>
        <mxCell id="9" style="vsdxID=8;fillColor=#7030a0;gradientColor=none;fillOpacity=0;shape=stencil(nZBLDoAgDERP0z3SIyjew0SURgSD+Lu9kMZoXLhwN9O+tukAlrNpJg1SzDH4QW/URgNYgZTkjA4UkwJUgGXng+6DX1zLfmoymdXo17xh5zmRJ6Q42BWCfc2oJfdAr+Yv+AP9Cb7OJ3H/2JG1HNGz/84klThPVCc=);strokeColor=#939393;labelBackgroundColor=none;rounded=0;html=1;whiteSpace=wrap;" parent="8" vertex="1">
          <mxGeometry width="1137" height="107" as="geometry"/>
        </mxCell>
        <mxCell id="10" value="&lt;font style=&quot;direction: ltr ; line-height: 120% ; opacity: 1&quot;&gt;&lt;div&gt;&lt;font color=&quot;#feffff&quot; face=&quot;calibri&quot;&gt;TRANSPORT PLANNING&lt;/font&gt;&lt;/div&gt;&lt;/font&gt;" style="verticalAlign=middle;align=center;vsdxID=10;rotation=270;fillColor=#7030a0;gradientColor=none;shape=stencil(nZBLDoAgDERP0z3SIyjew0SURgSD+Lu9kMZoXLhwN9O+tukAlrNpJg1SzDH4QW/URgNYgZTkjA4UkwJUgGXng+6DX1zLfmoymdXo17xh5zmRJ6Q42BWCfc2oJfdAr+Yv+AP9Cb7OJ3H/2JG1HNGz/84klThPVCc=);strokeColor=#939393;labelBackgroundColor=none;rounded=0;html=1;whiteSpace=wrap;" parent="8" vertex="1">
          <mxGeometry x="-26" y="25" width="107" height="57" as="geometry"/>
        </mxCell>
        <mxCell id="11" style="vsdxID=82;fillColor=none;gradientColor=none;strokeColor=none;labelBackgroundColor=none;rounded=0;html=1;whiteSpace=wrap;" parent="1" vertex="1">
          <mxGeometry x="24" y="250" width="1137" height="243" as="geometry"/>
        </mxCell>
        <mxCell id="12" style="vsdxID=83;fillColor=#002060;gradientColor=none;fillOpacity=0;shape=stencil(nZBLDoAgDERP0z3SIyjew0SURgSD+Lu9kMZoXLhwN9O+tukAlrNpJg1SzDH4QW/URgNYgZTkjA4UkwJUgGXng+6DX1zLfmoymdXo17xh5zmRJ6Q42BWCfc2oJfdAr+Yv+AP9Cb7OJ3H/2JG1HNGz/84klThPVCc=);strokeColor=#939393;labelBackgroundColor=none;rounded=0;html=1;whiteSpace=wrap;" parent="11" vertex="1">
          <mxGeometry width="1137" height="243" as="geometry"/>
        </mxCell>
        <mxCell id="13" value="&lt;font style=&quot;font-size:12px;font-family:Calibri;color:#feffff;direction:ltr;letter-spacing:0px;line-height:120%;opacity:1&quot;&gt;PENSKE&lt;br/&gt;&lt;/font&gt;" style="verticalAlign=middle;align=center;vsdxID=85;rotation=270;fillColor=#002060;gradientColor=none;shape=stencil(nZBLDoAgDERP0z3SIyjew0SURgSD+Lu9kMZoXLhwN9O+tukAlrNpJg1SzDH4QW/URgNYgZTkjA4UkwJUgGXng+6DX1zLfmoymdXo17xh5zmRJ6Q42BWCfc2oJfdAr+Yv+AP9Cb7OJ3H/2JG1HNGz/84klThPVCc=);strokeColor=#939393;labelBackgroundColor=none;rounded=0;html=1;whiteSpace=wrap;" parent="11" vertex="1">
          <mxGeometry x="-94" y="93" width="243" height="57" as="geometry"/>
        </mxCell>
        <mxCell id="14" style="vsdxID=281;fillColor=none;gradientColor=none;strokeColor=none;labelBackgroundColor=none;rounded=0;html=1;whiteSpace=wrap;" parent="1" vertex="1">
          <mxGeometry x="24" y="565" width="1137" height="107" as="geometry"/>
        </mxCell>
        <mxCell id="15" style="vsdxID=282;fillColor=#7030a0;gradientColor=none;fillOpacity=0;shape=stencil(nZBLDoAgDERP0z3SIyjew0SURgSD+Lu9kMZoXLhwN9O+tukAlrNpJg1SzDH4QW/URgNYgZTkjA4UkwJUgGXng+6DX1zLfmoymdXo17xh5zmRJ6Q42BWCfc2oJfdAr+Yv+AP9Cb7OJ3H/2JG1HNGz/84klThPVCc=);strokeColor=#939393;labelBackgroundColor=none;rounded=0;html=1;whiteSpace=wrap;" parent="14" vertex="1">
          <mxGeometry width="1137" height="107" as="geometry"/>
        </mxCell>
        <mxCell id="16" value="&lt;font style=&quot;direction: ltr ; line-height: 120% ; opacity: 1&quot;&gt;&lt;div&gt;&lt;font color=&quot;#feffff&quot; face=&quot;calibri&quot;&gt;LOGISTICS PROCUREMENT&lt;/font&gt;&lt;/div&gt;&lt;/font&gt;" style="verticalAlign=middle;align=center;vsdxID=284;rotation=270;fillColor=#7030a0;gradientColor=none;shape=stencil(nZBLDoAgDERP0z3SIyjew0SURgSD+Lu9kMZoXLhwN9O+tukAlrNpJg1SzDH4QW/URgNYgZTkjA4UkwJUgGXng+6DX1zLfmoymdXo17xh5zmRJ6Q42BWCfc2oJfdAr+Yv+AP9Cb7OJ3H/2JG1HNGz/84klThPVCc=);strokeColor=#939393;labelBackgroundColor=none;rounded=0;html=1;whiteSpace=wrap;" parent="14" vertex="1">
          <mxGeometry x="-26" y="25" width="107" height="57" as="geometry"/>
        </mxCell>
        <mxCell id="17" style="vsdxID=345;fillColor=none;gradientColor=none;strokeColor=none;labelBackgroundColor=none;rounded=0;html=1;whiteSpace=wrap;" parent="1" vertex="1">
          <mxGeometry x="24" y="493" width="1137" height="72" as="geometry"/>
        </mxCell>
        <mxCell id="18" style="vsdxID=346;fillColor=#7030a0;gradientColor=none;fillOpacity=0;shape=stencil(nZBLDoAgDERP0z3SIyjew0SURgSD+Lu9kMZoXLhwN9O+tukAlrNpJg1SzDH4QW/URgNYgZTkjA4UkwJUgGXng+6DX1zLfmoymdXo17xh5zmRJ6Q42BWCfc2oJfdAr+Yv+AP9Cb7OJ3H/2JG1HNGz/84klThPVCc=);strokeColor=#939393;labelBackgroundColor=none;rounded=0;html=1;whiteSpace=wrap;" parent="17" vertex="1">
          <mxGeometry width="1137" height="72" as="geometry"/>
        </mxCell>
        <mxCell id="19" value="&lt;font style=&quot;direction: ltr ; line-height: 120% ; opacity: 1&quot;&gt;&lt;div&gt;&lt;font color=&quot;#feffff&quot; face=&quot;calibri&quot;&gt;PLANNING MATERIALS&lt;/font&gt;&lt;/div&gt;&lt;/font&gt;" style="verticalAlign=middle;align=center;vsdxID=348;rotation=270;fillColor=#7030a0;gradientColor=none;shape=stencil(nZBLDoAgDERP0z3SIyjew0SURgSD+Lu9kMZoXLhwN9O+tukAlrNpJg1SzDH4QW/URgNYgZTkjA4UkwJUgGXng+6DX1zLfmoymdXo17xh5zmRJ6Q42BWCfc2oJfdAr+Yv+AP9Cb7OJ3H/2JG1HNGz/84klThPVCc=);strokeColor=#939393;labelBackgroundColor=none;rounded=0;html=1;whiteSpace=wrap;" parent="17" vertex="1">
          <mxGeometry x="-8" y="7" width="72" height="57" as="geometry"/>
        </mxCell>
        <mxCell id="20" style="vsdxID=387;fillColor=none;gradientColor=none;strokeColor=none;labelBackgroundColor=none;rounded=0;html=1;whiteSpace=wrap;" parent="1" vertex="1">
          <mxGeometry x="24" y="164" width="1137" height="86" as="geometry"/>
        </mxCell>
        <mxCell id="21" style="vsdxID=388;fillColor=#7030a0;gradientColor=none;fillOpacity=0;shape=stencil(nZBLDoAgDERP0z3SIyjew0SURgSD+Lu9kMZoXLhwN9O+tukAlrNpJg1SzDH4QW/URgNYgZTkjA4UkwJUgGXng+6DX1zLfmoymdXo17xh5zmRJ6Q42BWCfc2oJfdAr+Yv+AP9Cb7OJ3H/2JG1HNGz/84klThPVCc=);strokeColor=#939393;labelBackgroundColor=none;rounded=0;html=1;whiteSpace=wrap;" parent="20" vertex="1">
          <mxGeometry width="1137" height="86" as="geometry"/>
        </mxCell>
        <mxCell id="22" value="&lt;font style=&quot;font-size:12px;font-family:Calibri;color:#feffff;direction:ltr;letter-spacing:0px;line-height:120%;opacity:1&quot;&gt;SPEND AREA&lt;br/&gt;&lt;/font&gt;" style="verticalAlign=middle;align=center;vsdxID=390;rotation=270;fillColor=#7030a0;gradientColor=none;shape=stencil(nZBLDoAgDERP0z3SIyjew0SURgSD+Lu9kMZoXLhwN9O+tukAlrNpJg1SzDH4QW/URgNYgZTkjA4UkwJUgGXng+6DX1zLfmoymdXo17xh5zmRJ6Q42BWCfc2oJfdAr+Yv+AP9Cb7OJ3H/2JG1HNGz/84klThPVCc=);strokeColor=#939393;labelBackgroundColor=none;rounded=0;html=1;whiteSpace=wrap;" parent="20" vertex="1">
          <mxGeometry x="-15" y="14" width="86" height="57" as="geometry"/>
        </mxCell>
        <mxCell id="23" style="vsdxID=477;fillColor=none;gradientColor=none;strokeColor=none;labelBackgroundColor=none;rounded=0;html=1;whiteSpace=wrap;" parent="1" vertex="1">
          <mxGeometry x="24" y="737" width="1137" height="86" as="geometry"/>
        </mxCell>
        <mxCell id="24" style="vsdxID=478;fillColor=#7030a0;gradientColor=none;fillOpacity=0;shape=stencil(nZBLDoAgDERP0z3SIyjew0SURgSD+Lu9kMZoXLhwN9O+tukAlrNpJg1SzDH4QW/URgNYgZTkjA4UkwJUgGXng+6DX1zLfmoymdXo17xh5zmRJ6Q42BWCfc2oJfdAr+Yv+AP9Cb7OJ3H/2JG1HNGz/84klThPVCc=);strokeColor=#939393;labelBackgroundColor=none;rounded=0;html=1;whiteSpace=wrap;" parent="23" vertex="1">
          <mxGeometry width="1137" height="86" as="geometry"/>
        </mxCell>
        <mxCell id="25" value="&lt;font style=&quot;direction: ltr ; line-height: 120% ; opacity: 1&quot;&gt;&lt;div&gt;&lt;font color=&quot;#feffff&quot; face=&quot;calibri&quot;&gt;RISKS &amp;amp; INSURANCE / QUALITY&lt;/font&gt;&lt;/div&gt;&lt;/font&gt;" style="verticalAlign=middle;align=center;vsdxID=480;rotation=270;fillColor=#7030a0;gradientColor=none;shape=stencil(nZBLDoAgDERP0z3SIyjew0SURgSD+Lu9kMZoXLhwN9O+tukAlrNpJg1SzDH4QW/URgNYgZTkjA4UkwJUgGXng+6DX1zLfmoymdXo17xh5zmRJ6Q42BWCfc2oJfdAr+Yv+AP9Cb7OJ3H/2JG1HNGz/84klThPVCc=);strokeColor=#939393;labelBackgroundColor=none;rounded=0;html=1;whiteSpace=wrap;" parent="23" vertex="1">
          <mxGeometry x="-15" y="14" width="86" height="57" as="geometry"/>
        </mxCell>
        <mxCell id="26" style="vsdxID=939;fillColor=none;gradientColor=none;strokeColor=none;labelBackgroundColor=none;rounded=0;html=1;whiteSpace=wrap;" parent="1" vertex="1">
          <mxGeometry x="24" y="673" width="1137" height="64" as="geometry"/>
        </mxCell>
        <mxCell id="27" style="vsdxID=940;fillColor=#7030a0;gradientColor=none;fillOpacity=0;shape=stencil(nZBLDoAgDERP0z3SIyjew0SURgSD+Lu9kMZoXLhwN9O+tukAlrNpJg1SzDH4QW/URgNYgZTkjA4UkwJUgGXng+6DX1zLfmoymdXo17xh5zmRJ6Q42BWCfc2oJfdAr+Yv+AP9Cb7OJ3H/2JG1HNGz/84klThPVCc=);strokeColor=#939393;labelBackgroundColor=none;rounded=0;html=1;whiteSpace=wrap;" parent="26" vertex="1">
          <mxGeometry width="1137" height="64" as="geometry"/>
        </mxCell>
        <mxCell id="28" value="&lt;font style=&quot;font-size:14px;font-family:Calibri;color:#feffff;direction:ltr;letter-spacing:0px;line-height:120%;opacity:1&quot;&gt;L.P.S.&lt;br/&gt;&lt;/font&gt;" style="verticalAlign=middle;align=center;vsdxID=942;rotation=270;fillColor=#7030a0;gradientColor=none;shape=stencil(nZBLDoAgDERP0z3SIyjew0SURgSD+Lu9kMZoXLhwN9O+tukAlrNpJg1SzDH4QW/URgNYgZTkjA4UkwJUgGXng+6DX1zLfmoymdXo17xh5zmRJ6Q42BWCfc2oJfdAr+Yv+AP9Cb7OJ3H/2JG1HNGz/84klThPVCc=);strokeColor=#939393;labelBackgroundColor=none;rounded=0;html=1;whiteSpace=wrap;" parent="26" vertex="1">
          <mxGeometry x="-4" y="3" width="64" height="57" as="geometry"/>
        </mxCell>
        <mxCell id="29" style="vsdxID=78;fillColor=#5b9bd5;gradientColor=none;shape=stencil(nZBLDoAgDERP0z3SIyDew0QUooJB/N1eSGM0LFywm2lf23QAxarbRQFna/BuVIfpggasgXNjtfImRAUoAUXvvBq822xHfmkTmdTs9rThpDmWJji7yFWMfEPoZOwHfZpF8A9aCGbno3h/jCYPIJYoPJQ3);strokeColor=#939393;labelBackgroundColor=none;rounded=0;html=1;whiteSpace=wrap;" parent="1" vertex="1">
          <mxGeometry x="81" y="56" width="1080" height="767" as="geometry"/>
        </mxCell>
        <mxCell id="30" style="vsdxID=79;fillColor=none;gradientColor=none;strokeColor=none;labelBackgroundColor=none;rounded=0;html=1;whiteSpace=wrap;" parent="1" vertex="1">
          <mxGeometry x="81" y="56" width="1080" height="767" as="geometry"/>
        </mxCell>
        <mxCell id="32" style="vsdxID=81;fillColor=#5b9bd5;gradientColor=none;shape=stencil(rZBLDoAgDERP0z3SI/i5B4kojQgE8Xd7IY3RuHY303lt0gGsF6OCBimWFP2kd+qTAWxASnJGR0pZAbaA9eCjHqNfXc8+qEIWNfutXDh4T5QNKU52lWDfMWrJvdA7/B/+C83i+XMga7mmd/7tJY+4U2wv);strokeColor=#939393;spacingTop=-1;spacingBottom=-1;spacingLeft=-1;spacingRight=-1;labelBackgroundColor=none;rounded=0;html=1;whiteSpace=wrap;" parent="30" vertex="1">
          <mxGeometry x="-58" width="1137" height="1" as="geometry"/>
        </mxCell>
        <mxCell id="33" style="vsdxID=516;fillColor=none;gradientColor=none;strokeColor=none;spacingTop=-1;spacingBottom=-1;spacingLeft=-1;spacingRight=-1;labelBackgroundColor=none;rounded=1;html=1;whiteSpace=wrap;" parent="1" vertex="1">
          <mxGeometry x="493" y="258" width="493" height="227" as="geometry"/>
        </mxCell>
        <mxCell id="34" style="vsdxID=517;fillColor=#bdd7ee;gradientColor=none;shape=stencil(nZFLDsIwDERP4y0KyQKxLuUCnCAihliEpEpL+ZyetANS6YJFs7JnXmxpTKZqvW2YtGq7nC58F9d5MjvSWqLnLF2pyNRkqlPKfM7pFh36xhZSq1Fhhz/rgdbK5uNBXgxts9r+PjAYck39sPwBVMF6foYp9HugQeIE/ZqL4D/oQnC2vhRjPAhOQkC6U38eZ5FwClO/AQ==);strokeColor=#939393;spacingTop=-1;spacingBottom=-1;spacingLeft=-1;spacingRight=-1;labelBackgroundColor=none;rounded=1;html=1;whiteSpace=wrap;" parent="33" vertex="1">
          <mxGeometry width="493" height="227" as="geometry"/>
        </mxCell>
        <mxCell id="36" value="&lt;p style=&quot;align:center;margin-left:0;margin-right:0;margin-top:0px;margin-bottom:0px;text-indent:0;valign:middle;direction:ltr;&quot;&gt;&lt;/p&gt;" style="verticalAlign=middle;align=center;vsdxID=521;fillColor=none;gradientColor=none;strokeColor=none;spacingTop=-3;spacingBottom=-3;spacingLeft=-3;spacingRight=-3;labelBackgroundColor=none;rounded=0;html=1;whiteSpace=wrap;" parent="33" vertex="1">
          <mxGeometry x="248" y="208" width="16" height="16" as="geometry"/>
        </mxCell>
        <mxCell id="39" value="&lt;p style=&quot;align:center;margin-left:0;margin-right:0;margin-top:0px;margin-bottom:0px;text-indent:0;valign:middle;direction:ltr;&quot;&gt;&lt;/p&gt;" style="verticalAlign=middle;align=center;vsdxID=529;fillColor=none;gradientColor=none;strokeColor=none;spacingTop=-1;spacingBottom=-1;spacingLeft=-1;spacingRight=-1;labelBackgroundColor=none;rounded=0;html=1;whiteSpace=wrap;" parent="33" vertex="1">
          <mxGeometry x="476" y="4" width="14" height="14" as="geometry"/>
        </mxCell>
        <mxCell id="40" value="&lt;p style=&quot;margin-left: 0 ; margin-right: 0 ; margin-top: 0px ; margin-bottom: 0px ; text-indent: 0 ; direction: ltr&quot;&gt;&lt;font style=&quot;font-size: 14px ; font-family: &amp;#34;calibri&amp;#34; ; color: #002060 ; direction: ltr ; letter-spacing: 0px ; line-height: 120% ; opacity: 1&quot;&gt;&lt;b&gt;&lt;/b&gt;&lt;/font&gt;&lt;/p&gt;&lt;p style=&quot;margin: 0px ; direction: ltr&quot;&gt;&lt;font color=&quot;#002060&quot; face=&quot;calibri&quot;&gt;&lt;span style=&quot;font-size: 14px&quot;&gt;&lt;b&gt;OTM SYSTEM - AVERAGE TIME 01 WEEK&lt;/b&gt;&lt;/span&gt;&lt;/font&gt;&lt;/p&gt;" style="text;vsdxID=516;fillColor=none;gradientColor=none;strokeColor=none;spacingTop=-1;spacingBottom=-1;spacingLeft=-1;spacingRight=-1;labelBackgroundColor=none;rounded=1;html=1;whiteSpace=wrap;verticalAlign=top;align=left;;html=1;" parent="33" vertex="1">
          <mxGeometry y="-0.11" width="493.9" as="geometry"/>
        </mxCell>
        <mxCell id="41" style="vsdxID=11;fillColor=none;gradientColor=none;strokeColor=none;spacingTop=-1;spacingBottom=-1;spacingLeft=-1;spacingRight=-1;labelBackgroundColor=none;rounded=0;html=1;whiteSpace=wrap;" parent="1" vertex="1">
          <mxGeometry x="104" y="339" width="40" height="40" as="geometry"/>
        </mxCell>
        <mxCell id="42" style="vsdxID=12;fillColor=#c5e0b3;gradientColor=none;shape=stencil(vVHLDsIgEPwajiQI6RfU+h8bu22JCGRB2/69kG1iazx58DazM/vIjjBtmiCi0CplCjecbZ8nYc5Ca+snJJsLEqYTph0C4Ujh4XvmEaqzont41gkL96naodXKrGF6YSfQtUi0OXXDVlqPfJNP6usotUhYbJIUMmQb/GGrAxpRljVycDBuc1hKM2LclX8/7H9nFfB+82Cd45T2+mcspcSRmu4F);strokeColor=#939393;spacingTop=-1;spacingBottom=-1;spacingLeft=-1;spacingRight=-1;labelBackgroundColor=none;rounded=0;html=1;whiteSpace=wrap;" parent="41" vertex="1">
          <mxGeometry width="40" height="40" as="geometry"/>
        </mxCell>
        <mxCell id="46" value="&lt;font style=&quot;direction: ltr ; line-height: 120% ; opacity: 1&quot;&gt;&lt;div&gt;&lt;font color=&quot;#002060&quot; face=&quot;calibri&quot;&gt;&lt;span style=&quot;font-size: 25px&quot;&gt;IMPLEMENTATION PROCESS (AFTER STUDY APPROVAL)&lt;/span&gt;&lt;/font&gt;&lt;/div&gt;&lt;/font&gt;" style="verticalAlign=middle;align=center;vsdxID=317;fillColor=none;gradientColor=none;shape=stencil(nZBLDoAgDERP0z3SIyjew0SURgSD+Lu9kMZoXLhwN9O+tukAlrNpJg1SzDH4QW/URgNYgZTkjA4UkwJUgGXng+6DX1zLfmoymdXo17xh5zmRJ6Q42BWCfc2oJfdAr+Yv+AP9Cb7OJ3H/2JG1HNGz/84klThPVCc=);strokeColor=none;labelBackgroundColor=none;rounded=0;html=1;whiteSpace=wrap;" parent="1" vertex="1">
          <mxGeometry x="25" y="12" width="1137" height="40" as="geometry"/>
        </mxCell>
        <mxCell id="47" style="vsdxID=318;fillColor=none;gradientColor=none;strokeColor=none;spacingTop=-1;spacingBottom=-1;spacingLeft=-1;spacingRight=-1;labelBackgroundColor=none;rounded=1;html=1;whiteSpace=wrap;" parent="1" vertex="1">
          <mxGeometry x="160" y="319" width="122" height="80" as="geometry"/>
        </mxCell>
        <mxCell id="48" style="vsdxID=319;fillColor=#7da8ff;gradientColor=none;shape=stencil(nZFLDsIwDERP4y0KyQKxLuUCnCAihliEpEpL+ZyetANS6YJFs7JnXmxpTKZqvW2YtGq7nC58F9d5MjvSWqLnLF2pyNRkqlPKfM7pFh36xhZSq1Fhhz/rgdbK5uNBXgxts9r+PjAYck39sPwBVMF6foYp9HugQeIE/ZqL4D/oQnC2vhRjPAhOQkC6U38eZ5FwClO/AQ==);strokeColor=#939393;spacingTop=-1;spacingBottom=-1;spacingLeft=-1;spacingRight=-1;labelBackgroundColor=none;rounded=1;html=1;whiteSpace=wrap;" parent="47" vertex="1">
          <mxGeometry width="122" height="80" as="geometry"/>
        </mxCell>
        <mxCell id="55" value="&lt;font style=&quot;direction: ltr ; line-height: 120% ; opacity: 1&quot;&gt;&lt;div&gt;&lt;font color=&quot;#feffff&quot; face=&quot;calibri&quot;&gt;&lt;span style=&quot;font-size: 11px&quot;&gt;DISCLOSURE OF THE STUDY APPROVAL&lt;/span&gt;&lt;/font&gt;&lt;/div&gt;&lt;/font&gt;" style="text;vsdxID=318;fillColor=none;gradientColor=none;strokeColor=none;spacingTop=-1;spacingBottom=-1;spacingLeft=-1;spacingRight=-1;labelBackgroundColor=none;rounded=1;html=1;whiteSpace=wrap;verticalAlign=middle;align=center;;html=1;" parent="47" vertex="1">
          <mxGeometry y="40" width="122.13" as="geometry"/>
        </mxCell>
        <mxCell id="56" style="vsdxID=357;fillColor=#7baedd;gradientColor=none;shape=stencil(nZFbDoQgDEVX03+GxhX42IeJODQyYBDnsXshjc7Ih5nwdy89pS/AetH9rECKJXg3qRcNQQM2ICVZrTyFqABbwHp0Xt29W+3Afu4TmdTDPdMPb84TKUOKD7ubYN8xasj+oHuwCL5AC8GsfBTfGUcyhld0xP9bwEX16kxWpcOfGs2ajCI/XHzio2O7AQ==);strokeColor=#939393;labelBackgroundColor=none;rounded=0;html=1;whiteSpace=wrap;" parent="1" vertex="1">
          <mxGeometry x="239" y="610" width="42" height="25" as="geometry"/>
        </mxCell>
        <mxCell id="57" style="vsdxID=358;fillColor=#7baedd;gradientColor=none;shape=stencil(nZFbDoQgDEVX03+GxhX42IeJODQyYBDnsXshjc7Ih5nwdy89pS/AetH9rECKJXg3qRcNQQM2ICVZrTyFqABbwHp0Xt29W+3Afu4TmdTDPdMPb84TKUOKD7ubYN8xasj+oHuwCL5AC8GsfBTfGUcyhld0xP9bwEX16kxWpcOfGs2ajCI/XHzio2O7AQ==);strokeColor=#939393;labelBackgroundColor=none;rounded=0;html=1;whiteSpace=wrap;" parent="1" vertex="1">
          <mxGeometry x="239" y="516" width="42" height="25" as="geometry"/>
        </mxCell>
        <mxCell id="58" style="vsdxID=359;fillColor=#7baedd;gradientColor=none;shape=stencil(nZFbDoQgDEVX03+GxhX42IeJODQyYBDnsXshjc7Ih5nwdy89pS/AetH9rECKJXg3qRcNQQM2ICVZrTyFqABbwHp0Xt29W+3Afu4TmdTDPdMPb84TKUOKD7ubYN8xasj+oHuwCL5AC8GsfBTfGUcyhld0xP9bwEX16kxWpcOfGs2ajCI/XHzio2O7AQ==);strokeColor=#939393;labelBackgroundColor=none;rounded=0;html=1;whiteSpace=wrap;" parent="1" vertex="1">
          <mxGeometry x="239" y="84" width="42" height="25" as="geometry"/>
        </mxCell>
        <mxCell id="59" style="vsdxID=391;fillColor=#7baedd;gradientColor=none;shape=stencil(nZFbDoQgDEVX03+GxhX42IeJODQyYBDnsXshjc7Ih5nwdy89pS/AetH9rECKJXg3qRcNQQM2ICVZrTyFqABbwHp0Xt29W+3Afu4TmdTDPdMPb84TKUOKD7ubYN8xasj+oHuwCL5AC8GsfBTfGUcyhld0xP9bwEX16kxWpcOfGs2ajCI/XHzio2O7AQ==);strokeColor=#939393;labelBackgroundColor=none;rounded=0;html=1;whiteSpace=wrap;" parent="1" vertex="1">
          <mxGeometry x="239" y="186" width="42" height="25" as="geometry"/>
        </mxCell>
        <mxCell id="60" style="vsdxID=392;fillColor=none;gradientColor=none;strokeColor=none;spacingTop=-1;spacingBottom=-1;spacingLeft=-1;spacingRight=-1;labelBackgroundColor=none;rounded=1;html=1;whiteSpace=wrap;" parent="1" vertex="1">
          <mxGeometry x="525" y="170" width="134" height="57" as="geometry"/>
        </mxCell>
        <mxCell id="61" style="vsdxID=393;fillColor=#c7a0e2;gradientColor=none;shape=stencil(nZFLDsIwDERP4y0KyQKxLuUCnCAihliEpEpL+ZyetANS6YJFs7JnXmxpTKZqvW2YtGq7nC58F9d5MjvSWqLnLF2pyNRkqlPKfM7pFh36xhZSq1Fhhz/rgdbK5uNBXgxts9r+PjAYck39sPwBVMF6foYp9HugQeIE/ZqL4D/oQnC2vhRjPAhOQkC6U38eZ5FwClO/AQ==);strokeColor=#939393;spacingTop=-1;spacingBottom=-1;spacingLeft=-1;spacingRight=-1;labelBackgroundColor=none;rounded=1;html=1;whiteSpace=wrap;" parent="60" vertex="1">
          <mxGeometry width="134" height="57" as="geometry"/>
        </mxCell>
        <mxCell id="68" value="&lt;font style=&quot;direction: ltr ; line-height: 120% ; opacity: 1&quot;&gt;&lt;div&gt;&lt;font color=&quot;#feffff&quot; face=&quot;calibri&quot;&gt;&lt;span style=&quot;font-size: 11px&quot;&gt;SYSTEMIC ADJUSTMENT WITH CMaaS AND VMaaS&lt;/span&gt;&lt;/font&gt;&lt;/div&gt;&lt;/font&gt;" style="text;vsdxID=392;fillColor=none;gradientColor=none;strokeColor=none;spacingTop=-1;spacingBottom=-1;spacingLeft=-1;spacingRight=-1;labelBackgroundColor=none;rounded=1;html=1;whiteSpace=wrap;verticalAlign=middle;align=center;;html=1;" parent="60" vertex="1">
          <mxGeometry y="28.49" width="134.23" as="geometry"/>
        </mxCell>
        <mxCell id="69" style="vsdxID=424;fillColor=none;gradientColor=none;strokeColor=none;spacingTop=-1;spacingBottom=-1;spacingLeft=-1;spacingRight=-1;labelBackgroundColor=none;rounded=1;html=1;whiteSpace=wrap;" parent="1" vertex="1">
          <mxGeometry x="300" y="170" width="134" height="57" as="geometry"/>
        </mxCell>
        <mxCell id="70" style="vsdxID=425;fillColor=#c7a0e2;gradientColor=none;shape=stencil(nZFLDsIwDERP4y0KyQKxLuUCnCAihliEpEpL+ZyetANS6YJFs7JnXmxpTKZqvW2YtGq7nC58F9d5MjvSWqLnLF2pyNRkqlPKfM7pFh36xhZSq1Fhhz/rgdbK5uNBXgxts9r+PjAYck39sPwBVMF6foYp9HugQeIE/ZqL4D/oQnC2vhRjPAhOQkC6U38eZ5FwClO/AQ==);strokeColor=#939393;spacingTop=-1;spacingBottom=-1;spacingLeft=-1;spacingRight=-1;labelBackgroundColor=none;rounded=1;html=1;whiteSpace=wrap;" parent="69" vertex="1">
          <mxGeometry width="134" height="57" as="geometry"/>
        </mxCell>
        <mxCell id="77" value="&lt;font style=&quot;direction: ltr ; line-height: 120% ; opacity: 1 ; font-size: 11px&quot; color=&quot;#feffff&quot; face=&quot;calibri&quot;&gt;&lt;div&gt;&lt;span&gt;DISCLOSURE OF THE DATE OF&lt;/span&gt;&lt;br&gt;&lt;/div&gt;&lt;div&gt;GO LIVE&lt;/div&gt;&lt;/font&gt;" style="text;vsdxID=424;fillColor=none;gradientColor=none;strokeColor=none;spacingTop=-1;spacingBottom=-1;spacingLeft=-1;spacingRight=-1;labelBackgroundColor=none;rounded=1;html=1;whiteSpace=wrap;verticalAlign=middle;align=center;;html=1;" parent="69" vertex="1">
          <mxGeometry y="28.49" width="134.23" as="geometry"/>
        </mxCell>
        <mxCell id="78" style="vsdxID=450;fillColor=#ffca2b;gradientColor=none;shape=stencil(nZFbDoQgDEVX03+GxhX42IeJODQyYBDnsXshjc7Ih5nwdy89pS/AetH9rECKJXg3qRcNQQM2ICVZrTyFqABbwHp0Xt29W+3Afu4TmdTDPdMPb84TKUOKD7ubYN8xasj+oHuwCL5AC8GsfBTfGUcyhld0xP9bwEX16kxWpcOfGs2ajCI/XHzio2O7AQ==);strokeColor=#7f7f7f;labelBackgroundColor=none;rounded=0;html=1;whiteSpace=wrap;" parent="1" vertex="1">
          <mxGeometry x="345" y="124" width="42" height="25" as="geometry"/>
        </mxCell>
        <mxCell id="79" style="vsdxID=482;fillColor=#ffca2b;gradientColor=none;shape=stencil(nZFbDoQgDEVX03+GxhX42IeJODQyYBDnsXshjc7Ih5nwdy89pS/AetH9rECKJXg3qRcNQQM2ICVZrTyFqABbwHp0Xt29W+3Afu4TmdTDPdMPb84TKUOKD7ubYN8xasj+oHuwCL5AC8GsfBTfGUcyhld0xP9bwEX16kxWpcOfGs2ajCI/XHzio2O7AQ==);strokeColor=#7f7f7f;labelBackgroundColor=none;rounded=0;html=1;whiteSpace=wrap;" parent="1" vertex="1">
          <mxGeometry x="416" y="766" width="42" height="25" as="geometry"/>
        </mxCell>
        <mxCell id="80" style="vsdxID=492;fillColor=none;gradientColor=none;strokeColor=none;spacingTop=-1;spacingBottom=-1;spacingLeft=-1;spacingRight=-1;labelBackgroundColor=none;rounded=1;html=1;whiteSpace=wrap;" parent="1" vertex="1">
          <mxGeometry x="527" y="291" width="122" height="52" as="geometry"/>
        </mxCell>
        <mxCell id="81" style="vsdxID=493;fillColor=#7da8ff;gradientColor=none;shape=stencil(nZFLDsIwDERP4y0KyQKxLuUCnCAihliEpEpL+ZyetANS6YJFs7JnXmxpTKZqvW2YtGq7nC58F9d5MjvSWqLnLF2pyNRkqlPKfM7pFh36xhZSq1Fhhz/rgdbK5uNBXgxts9r+PjAYck39sPwBVMF6foYp9HugQeIE/ZqL4D/oQnC2vhRjPAhOQkC6U38eZ5FwClO/AQ==);strokeColor=#939393;spacingTop=-1;spacingBottom=-1;spacingLeft=-1;spacingRight=-1;labelBackgroundColor=none;rounded=1;html=1;whiteSpace=wrap;" parent="80" vertex="1">
          <mxGeometry width="122" height="52" as="geometry"/>
        </mxCell>
        <mxCell id="88" value="&lt;font style=&quot;direction: ltr ; line-height: 120% ; opacity: 1&quot;&gt;&lt;div&gt;&lt;font color=&quot;#feffff&quot; face=&quot;calibri&quot;&gt;&lt;span style=&quot;font-size: 11px&quot;&gt;OTM REGISTRATION&lt;/span&gt;&lt;/font&gt;&lt;/div&gt;&lt;/font&gt;" style="text;vsdxID=492;fillColor=none;gradientColor=none;strokeColor=none;spacingTop=-1;spacingBottom=-1;spacingLeft=-1;spacingRight=-1;labelBackgroundColor=none;rounded=1;html=1;whiteSpace=wrap;verticalAlign=middle;align=center;;html=1;" parent="80" vertex="1">
          <mxGeometry y="25.56" width="122.13" as="geometry"/>
        </mxCell>
        <mxCell id="89" style="vsdxID=533;fillColor=none;gradientColor=none;strokeColor=none;spacingTop=-1;spacingBottom=-1;spacingLeft=-1;spacingRight=-1;labelBackgroundColor=none;rounded=1;html=1;whiteSpace=wrap;" parent="1" vertex="1">
          <mxGeometry x="674" y="291" width="122" height="52" as="geometry"/>
        </mxCell>
        <mxCell id="90" style="vsdxID=534;fillColor=#7da8ff;gradientColor=none;shape=stencil(nZFLDsIwDERP4y0KyQKxLuUCnCAihliEpEpL+ZyetANS6YJFs7JnXmxpTKZqvW2YtGq7nC58F9d5MjvSWqLnLF2pyNRkqlPKfM7pFh36xhZSq1Fhhz/rgdbK5uNBXgxts9r+PjAYck39sPwBVMF6foYp9HugQeIE/ZqL4D/oQnC2vhRjPAhOQkC6U38eZ5FwClO/AQ==);strokeColor=#939393;spacingTop=-1;spacingBottom=-1;spacingLeft=-1;spacingRight=-1;labelBackgroundColor=none;rounded=1;html=1;whiteSpace=wrap;" parent="89" vertex="1">
          <mxGeometry width="122" height="52" as="geometry"/>
        </mxCell>
        <mxCell id="97" value="&lt;font style=&quot;direction: ltr ; line-height: 120% ; opacity: 1 ; font-size: 11px&quot; color=&quot;#feffff&quot; face=&quot;calibri&quot;&gt;&lt;div&gt;&lt;span&gt;OTM TRAINING&lt;/span&gt;&lt;br&gt;&lt;/div&gt;&lt;div&gt;PROVIDER&lt;/div&gt;&lt;/font&gt;" style="text;vsdxID=533;fillColor=none;gradientColor=none;strokeColor=none;spacingTop=-1;spacingBottom=-1;spacingLeft=-1;spacingRight=-1;labelBackgroundColor=none;rounded=1;html=1;whiteSpace=wrap;verticalAlign=middle;align=center;;html=1;" parent="89" vertex="1">
          <mxGeometry y="25.56" width="122.13" as="geometry"/>
        </mxCell>
        <mxCell id="98" style="vsdxID=567;fillColor=none;gradientColor=none;strokeColor=none;spacingTop=-1;spacingBottom=-1;spacingLeft=-1;spacingRight=-1;labelBackgroundColor=none;rounded=1;html=1;whiteSpace=wrap;" parent="1" vertex="1">
          <mxGeometry x="838" y="291" width="122" height="52" as="geometry"/>
        </mxCell>
        <mxCell id="99" style="vsdxID=568;fillColor=#7da8ff;gradientColor=none;shape=stencil(nZFLDsIwDERP4y0KyQKxLuUCnCAihliEpEpL+ZyetANS6YJFs7JnXmxpTKZqvW2YtGq7nC58F9d5MjvSWqLnLF2pyNRkqlPKfM7pFh36xhZSq1Fhhz/rgdbK5uNBXgxts9r+PjAYck39sPwBVMF6foYp9HugQeIE/ZqL4D/oQnC2vhRjPAhOQkC6U38eZ5FwClO/AQ==);strokeColor=#939393;spacingTop=-1;spacingBottom=-1;spacingLeft=-1;spacingRight=-1;labelBackgroundColor=none;rounded=1;html=1;whiteSpace=wrap;" parent="98" vertex="1">
          <mxGeometry width="122" height="52" as="geometry"/>
        </mxCell>
        <mxCell id="106" value="&lt;font style=&quot;direction: ltr ; line-height: 120% ; opacity: 1 ; font-size: 11px&quot; color=&quot;#feffff&quot; face=&quot;calibri&quot;&gt;&lt;div&gt;OTM TRAINING&lt;/div&gt;&lt;div&gt;CONVEYOR&lt;/div&gt;&lt;/font&gt;" style="text;vsdxID=567;fillColor=none;gradientColor=none;strokeColor=none;spacingTop=-1;spacingBottom=-1;spacingLeft=-1;spacingRight=-1;labelBackgroundColor=none;rounded=1;html=1;whiteSpace=wrap;verticalAlign=middle;align=center;;html=1;" parent="98" vertex="1">
          <mxGeometry y="25.56" width="122.13" as="geometry"/>
        </mxCell>
        <mxCell id="107" style="vsdxID=593;fillColor=none;gradientColor=none;strokeColor=none;spacingTop=-1;spacingBottom=-1;spacingLeft=-1;spacingRight=-1;labelBackgroundColor=none;rounded=1;html=1;whiteSpace=wrap;" parent="1" vertex="1">
          <mxGeometry x="492" y="596" width="134" height="54" as="geometry"/>
        </mxCell>
        <mxCell id="108" style="vsdxID=594;fillColor=#c7a0e2;gradientColor=none;shape=stencil(nZFLDsIwDERP4y0KyQKxLuUCnCAihliEpEpL+ZyetANS6YJFs7JnXmxpTKZqvW2YtGq7nC58F9d5MjvSWqLnLF2pyNRkqlPKfM7pFh36xhZSq1Fhhz/rgdbK5uNBXgxts9r+PjAYck39sPwBVMF6foYp9HugQeIE/ZqL4D/oQnC2vhRjPAhOQkC6U38eZ5FwClO/AQ==);strokeColor=#939393;spacingTop=-1;spacingBottom=-1;spacingLeft=-1;spacingRight=-1;labelBackgroundColor=none;rounded=1;html=1;whiteSpace=wrap;" parent="107" vertex="1">
          <mxGeometry width="134" height="54" as="geometry"/>
        </mxCell>
        <mxCell id="115" value="&lt;font style=&quot;font-size: 11px ; font-family: &amp;#34;calibri&amp;#34; ; color: #feffff ; direction: ltr ; letter-spacing: 0px ; line-height: 120% ; opacity: 1&quot;&gt;FORMALIZATION WITH IDB WINNING CARRIERS&lt;br&gt;&lt;/font&gt;" style="text;vsdxID=593;fillColor=none;gradientColor=none;strokeColor=none;spacingTop=-1;spacingBottom=-1;spacingLeft=-1;spacingRight=-1;labelBackgroundColor=none;rounded=1;html=1;whiteSpace=wrap;verticalAlign=middle;align=center;;html=1;" parent="107" vertex="1">
          <mxGeometry y="27" width="134.23" as="geometry"/>
        </mxCell>
        <mxCell id="116" style="vsdxID=618;fillColor=none;gradientColor=none;strokeColor=none;spacingTop=-1;spacingBottom=-1;spacingLeft=-1;spacingRight=-1;labelBackgroundColor=none;rounded=1;html=1;whiteSpace=wrap;" parent="1" vertex="1">
          <mxGeometry x="653" y="595" width="134" height="57" as="geometry"/>
        </mxCell>
        <mxCell id="117" style="vsdxID=619;fillColor=#c7a0e2;gradientColor=none;shape=stencil(nZFLDsIwDERP4y0KyQKxLuUCnCAihliEpEpL+ZyetANS6YJFs7JnXmxpTKZqvW2YtGq7nC58F9d5MjvSWqLnLF2pyNRkqlPKfM7pFh36xhZSq1Fhhz/rgdbK5uNBXgxts9r+PjAYck39sPwBVMF6foYp9HugQeIE/ZqL4D/oQnC2vhRjPAhOQkC6U38eZ5FwClO/AQ==);strokeColor=#939393;spacingTop=-1;spacingBottom=-1;spacingLeft=-1;spacingRight=-1;labelBackgroundColor=none;rounded=1;html=1;whiteSpace=wrap;" parent="116" vertex="1">
          <mxGeometry width="134" height="57" as="geometry"/>
        </mxCell>
        <mxCell id="124" value="&lt;font style=&quot;direction: ltr ; line-height: 120% ; opacity: 1&quot;&gt;&lt;div&gt;&lt;font color=&quot;#feffff&quot; face=&quot;calibri&quot;&gt;&lt;span style=&quot;font-size: 11px&quot;&gt;FORMALIZATION WITH PENSKE OF TRADING&lt;/span&gt;&lt;/font&gt;&lt;/div&gt;&lt;/font&gt;" style="text;vsdxID=618;fillColor=none;gradientColor=none;strokeColor=none;spacingTop=-1;spacingBottom=-1;spacingLeft=-1;spacingRight=-1;labelBackgroundColor=none;rounded=1;html=1;whiteSpace=wrap;verticalAlign=middle;align=center;;html=1;" parent="116" vertex="1">
          <mxGeometry y="28.49" width="134.23" as="geometry"/>
        </mxCell>
        <mxCell id="125" style="vsdxID=773;fillColor=none;gradientColor=none;strokeColor=none;spacingTop=-1;spacingBottom=-1;spacingLeft=-1;spacingRight=-1;labelBackgroundColor=none;rounded=1;html=1;whiteSpace=wrap;" parent="1" vertex="1">
          <mxGeometry x="1016" y="345" width="90" height="52" as="geometry"/>
        </mxCell>
        <mxCell id="126" style="vsdxID=774;fillColor=#7da8ff;gradientColor=none;shape=stencil(nZFLDsIwDERP4y0KyQKxLuUCnCAihliEpEpL+ZyetANS6YJFs7JnXmxpTKZqvW2YtGq7nC58F9d5MjvSWqLnLF2pyNRkqlPKfM7pFh36xhZSq1Fhhz/rgdbK5uNBXgxts9r+PjAYck39sPwBVMF6foYp9HugQeIE/ZqL4D/oQnC2vhRjPAhOQkC6U38eZ5FwClO/AQ==);strokeColor=#939393;spacingTop=-1;spacingBottom=-1;spacingLeft=-1;spacingRight=-1;labelBackgroundColor=none;rounded=1;html=1;whiteSpace=wrap;" parent="125" vertex="1">
          <mxGeometry width="90" height="52" as="geometry"/>
        </mxCell>
        <mxCell id="133" value="&lt;font style=&quot;direction: ltr ; line-height: 120% ; opacity: 1&quot;&gt;&lt;div&gt;&lt;font color=&quot;#feffff&quot; face=&quot;calibri&quot;&gt;&lt;span style=&quot;font-size: 11px&quot;&gt;HYPERCARE - OPERATION&lt;/span&gt;&lt;/font&gt;&lt;/div&gt;&lt;/font&gt;" style="text;vsdxID=773;fillColor=none;gradientColor=none;strokeColor=none;spacingTop=-1;spacingBottom=-1;spacingLeft=-1;spacingRight=-1;labelBackgroundColor=none;rounded=1;html=1;whiteSpace=wrap;verticalAlign=middle;align=center;;html=1;" parent="125" vertex="1">
          <mxGeometry y="25.56" width="90.13" as="geometry"/>
        </mxCell>
        <mxCell id="134" style="vsdxID=797;fillColor=none;gradientColor=none;strokeColor=none;spacingTop=-1;spacingBottom=-1;spacingLeft=-1;spacingRight=-1;labelBackgroundColor=none;rounded=0;html=1;whiteSpace=wrap;" parent="1" vertex="1">
          <mxGeometry x="1120" y="352" width="40" height="40" as="geometry"/>
        </mxCell>
        <mxCell id="135" style="vsdxID=798;fillColor=#c00000;gradientColor=none;shape=stencil(vVHLDsIgEPwajiQI6RfU+h8bu22JCGRB2/69kG1iazx58DazM/vIjjBtmiCi0CplCjecbZ8nYc5Ca+snJJsLEqYTph0C4Ujh4XvmEaqzont41gkL96naodXKrGF6YSfQtUi0OXXDVlqPfJNP6usotUhYbJIUMmQb/GGrAxpRljVycDBuc1hKM2LclX8/7H9nFfB+82Cd45T2+mcspcSRmu4F);strokeColor=#000000;spacingTop=-1;spacingBottom=-1;spacingLeft=-1;spacingRight=-1;labelBackgroundColor=none;rounded=0;html=1;whiteSpace=wrap;" parent="134" vertex="1">
          <mxGeometry width="40" height="40" as="geometry"/>
        </mxCell>
        <mxCell id="139" style="vsdxID=86;fillColor=none;gradientColor=none;image;aspect=fixed;image=data:image/png,iVBORw0KGgoAAAANSUhEUgAAALkAAABGCAYAAACQaTWQAAAAAXNSR0IArs4c6QAAAARnQU1BAACxjwv8YQUAAAAJcEhZcwAADsMAAA7DAcdvqGQAABugSURBVHhe7Z0v7B1HkscDDhw4YHDgwEp+9q1Oq9MBgwUHTkqAwemU2F7JJy04EGDpVqdL5pdVwIKV1pJBQEBAgMECgwCDgAADgwCDgIAAAwMDA4MAAwMDgx8IuPt+qqt6amZ65s37/Z79c5z3lUrvTXd1dXd1dXf1nzfvnQPePHxw/pN/vXLh6MGVzdHLqxe676+e797zqFeGaxc+/q+rm6MvRZ/+7tcf/cqDDxjjdxc//pcrm+7PapibVy4e/UmNc8mjTgzJuOYyb39w4eP/3YfMNxnU7+qm++nqhaP/yyQjfN9Z9g7p9u4gv033/P3zf/yNRx8A3j3/l7+dKKpSd//9f/rj3zvrajCaKO33LZka5b4gT2d9qyAD+7pVZ4X/4Cx7BYNIKz9mEmc5AEgh11uKqqQGevfdv/yNs2+FFH9OBv64KUtEA/znP//P3zn7W4X5enfHzrJXMGCsze+Df/zk1/CL7qyi80d/2KXd33jMjkCVutvOughGaPmi37VlmIG/OMnM8HOB6ve0VW/IWfYKjLGVF+QsBlxRtfHEjdpGuK0u4ucPDK9VyUxr/MorF7rPW2l7WtdZfq54U41cfDMj/jJpwHrkIt4OSBEPWxUNogGX3IxrFz/+t22jxatcgL0JeFONXM83xvFrCPku4u2AKrS1t8Pj7ANg/EsNXKg7flt98cCSDpxlr8AIW3lBzmLAt2aWpXw70J23bjtSC8YPW8oakEZq9oE9SYWmta+a/IlQnLO/taCOrbpDzrJXYIitvCBnOSBjlZGL8NPyqvvK+U9+3+IbEwtST/JKULZCNS3boUj3Gd//4/yn/+DRe8Xc4vlg5PPQ4PjvZz6TrzVyKFbdSrORol+0eCa06b62jBZA5+H0jpkBg9Enp4bHZjzsAKmMrT12Dj/E++M4T9K3dgjKbsPRl3Q8y4cTyvNHf/DoJiwPjGrTPSnyu2PR9zSes5zYyFmrRJ1N7qZ7LvqBMNV59sTUytPIC3KWJk6aH1D8JdqItlhNZeD5SfSZizkb2IlkQ1lt6o7Zd0Ux7fgp0SCeVRN2HK5ZopV2SN1jKW7QEHo+p7TzW5duwHQiFG0Kb/DRGCZwBFtUX+ieNdMYdbeL37ubkTOyKe3MQVym7jFl8GQVuxr5afLz+n3T5l9L3WMXdzZQAW62C9YmVXjdCO40Z+S2t87W4677uDLIPP3hQsjQNfI3eGWgbuBbzgNUzotHv3WRBuvMNmq3+YOon2i1kZPPEv+YrG7nu2ue3ECeLV7IWSpOm5+N3g2+3ejVHIqtxpVN99dxoaSUF/OGs0TTUY8G8awG2L63Pk+U2cUYVNZ7Lb5Ca0YwK+dgB0kyty6q15CLM5SOPWdw5j7MzDQKT/d/0GmTT+Qshn3kJ76dBsE2dd9bgc4KFGBcKCnmgSp5NA5fpu5uS/nI8qwqFHZ5zBck43pkboJcE8mcvSaQR5tWvpkkU367ytfw34NyOc13b/AEiZe1wvNW3JhcpEFlaBqM5D1Ufc6xYG61R6HurotZbeT7yO+kp6aZ8vrltcOm8uaU3N31uBkFDMkaHf+4qfyhP+buRdvYpMx8k04yN+3yGe/z2EVZanTSBx+y2zxQX07lu9TBb8Gz1g0ygcJcXaSLl6M6ty9fSWfOssrI95kf6ybJYhB7MEOzLqzivnExZwP8tXbBus+JX9WLFR+LFSrUiH9OXGDZgLr7zlaxZEhc54VH+S4Z+eBKgXjb03cqJw3a4skND1QXLqUt+u3OOrvAl8yvnMVQrihP+cjHWVYZ+T7zm4PPBAvuYPc4BpgzgxZxnzYLp3Bn2eqThaEBKf9BiwdjcJamexTU2s5T+MLRdPH1lhpdcZdNkGPWyEXOQhmbblJ0/gzJW9x5cDZk3m7F0+mdJRa7czca60yzVF9n2Wt+Y9gsJjkqx8ImxBtg4EC9urn9xkGPs4RL01bEpvuWeGedNXKFV0NjNGzxQDnfAGlbvFCMrEuNrsYYbDuKd24k/8lZZnmanbAcQE14g5xttnMrL3WS7iYjrD7nZ4VknEv1dZa95pfhs/viFrJkP3ojDLz8wKFdSFVw42wG88kmbkv3bFwRKbBt5OlgphVfqXEgQViT1wmepUYfyxRv24AV7iyzPGynOUsFBtPiDXI2OvcJdqtE0jszyGgw2Wrk+8wvIF1e2ypX7uUbc1dprnFyY2cofHCRq7ViLqPDUB6ktHXxIZ6lHY7rzlaxZOTIgmep0U9k5PNlvOEsFauNfMfzBQYRlePeuPxgqb7Ostf8gHhW3Gjsbjr72UMVYSekqQQU6GwD0DsVZwaiz+atRMLH8oxfvT96txSxtGMzMSI6U4PPabtPfkIjb5+iNo6n7ei6xevkbLP5qg6c5H6o+OuUFdr2A5Ol+jrLXvNrz+Q90b6SMziwOnOoou1FCSQFONsEGJyU87A1lYH5lbrI5epzdndFyhqs/IHKOjtSrtpdOYmRz3VW1d1ZKlTm2ZkJcjb42odLMh6MyNlWYam+zrK3/OxAaWn2lf+Nn+7sFQxqvsNjW66nghrxHL6iGvyvGC+LtyWfaOvtwZE/Pgb5+dcJFDd72UsNY4ctjBpSdPsgJe19A1v0zixypNyXce95qdFPYuRK09w7hrJfPrs7lchZF2Uq7xetRTdAB8Tlve2l+sZFtn3lt9SmdBjZnB0CDshmQl/UiifKFLA8LhxdxveH39/o0LY7m8obBqOEHM4MXgOBYBO2NO24IZ4UVp6G3EpeJhnK+814EQpi3x0DLh23zZeNDUW1eIxGRq76+23CKaEjeKwRZkcvux3JAcjiL6qCcqdVmsXtRvJ0nls+aN219lWZXYRBdZqdDfOouo/81tZzkZIB6ztnC/cnPLLLmJkr7FfYiytd9aTkerD91eZLNDKIXcEMQmGbskUoLAxJ5Zt3mbZSf8QNJHf2103jqXmp49BJnW3RkKY0vxVHh3aR1sAq64yvvECj7Tw9X2ryQanNT5ufXa9oxe9IMZL79uPsIAPVbVoMRczbr7vSO/x2HRmpMRavjZrwU0JytlwFKCtwW8guGNwcqWN/NXbHZl0w1X/M6++Gmdv3f8LgAZ/7orPXeAfE1tqcMamdchnodOJdv/Oh9OPpHkjG3JnE0/zztdPkx9ZvH6eObDbXuyd6/lY0O6hB4rOdNbe/mYOnTN2xzUZKOHtAMiEK7aMnPbM9+pd70fCcFspv8XAEpeQRs4wWKyovA6TenmwAcy8ajZ735zNwIebz7LfBSkdcMvTuGBcQXhpGvE0Xh45pAh3kT1iLN5N47s3tfFgdMLJ2ur3khy5M73gBM2sxW2OJT/pvdKTuWQwaJmsS3ybJ+kIJdvwVdprubMpggVr8ym8UdyoXZYz1U1xvTBhpWTzv9sugjDLydn+mTqI7jK4e1YR3jOsif/FO97nSTF5nZyMQI3WUzUbs7nvSZX8biO+cLUZlfM4rf7a7OZ5NAuJ/Dzkiu+RktDl6pE/Kv6pdyvrGRteHSvsd+c8NWLvmh61s03sg6u6yoS8UZr54uRi3cLo6IpXpHkZ+axyxRErEPmZza3DbHulJoAquXKxoATIzQhzw88KcHal9tX5Y46b0RMdbt4hskIzvG9+uuYYfy+gV08k+wajcyr9F1gE3R1/aDHAw+J8tmK2YtbBN3FG1bfy4fNFnb1N3n96xOVniTN2zvPe6T5jrcJKtp033fG5qD9ARREd0UDqGBx/wCuFrGPzu5poosH0Ns5LC61CmJ96CY/R81QayfYtzSlLi5O7KGLZ/bn6x0owWsW8r6Ni+3tiqn1cBG5Gtjba/KMo7xE7uSSZclbqm4IsaeesvU6bU8YL4yQLrVYBF0XpDX7+Fqcauhz+Sf8+D31pg4FVPW06kXwWk737nakX++Oe5jdZT4w667RBcPPrTOkPqnuEre9LXBt/Nme3ZVvaZRfEcBkauBvDgrSizgNycM9DDGsyVT/q5xqyluj5du9uxT+xq5AHOaGxQjbSL1N2dGHiGHXDgp8ofQhGukBf6fEJijEh0pos63AqV7yurdNnzRnG3dlFaQGkHRk5nxzBYVOdVfj4UAfnwae16xLYQtYhioU4+PrD8lk/izQ8t+8h1yxJdj6d1hfHD7Nv6PKKMPss9qid8wlL50NMuBr62XLiVao/PpEe2/Gwbsbgn3ePobN5WxRhP0F62EJVM6iu5fiBpV3sfkbfid7qg9ovA2MhpjPqMoZT9YPPbpcgfaUhrzDyjcGjljWojqO+Di8dO9sL4xFOP921nymWI124kZlfCZy37zaPkvYz1go1og40CybAByOS8gGepfGawyieP8KXz2WKQ/fGXGAyzQBjxmnKVmWN4iJM7WpRNn6cy8gNOACl9YOQ0dn0ul45Gp2/d7dLo+UBCI4qM2WZBv+RmxpIaVN/toKimMUPtZUx9TzPe3pg33beUV5/pFNguQQ3ub1idZsrXx5VwRngz+rx7ZcftNd1jj99aLlzdCENvrS0/4zsY+etHbsDSAAMjtyu4Cu8vbUWjDhurTM0+wkHhkiCjhGlKzXkxyvn1WvHYi0xzvBkJW5zBr5nB8yijv+TyjKtS04gIA63ygUEeCi/uRHmWTDvCZxSvPLgGK8qlz76juFujsMHNRQ87GPnrRm7A0gDJyPUMTyts1FhmRDKSet8EdwSjiWd9v5fzUhq7XoAPGT55jtd320dOz2FMfnmr/JIJQwkeiDAgvlVG3svrrxznjkN8TqPvzXKp89cZBXfJeQan6YSJ/2DkrxujBjyVkauh+/v4+OLwsDXLHRAZtJ4HRk6ajFG8zw7lWXExkvsOQ/eM57Lr4GlEhIFW+cA4D+TGs77b3vmSkc+VS581vzg3yT45NOaTrIORvw7kBiwNsLuRx+1BM2gP43ss3DBwFmw5LzXwiYxcn70LwCUmzRD1WQQPyOWTrPYrKJRHdlf4Do/Knv1+LuBtLRd8lafcaLyhuMF6xvhKXMg6GPnrgBqi+tv6/k1emKnh7C1ceVFFIxGm7/1UXEZw28JUmsE9e3NhtAArNyqTIbSMPI98YUy+eAtj0uf0anTwuJ8O9FzL58Zmv48c50FHVLnS2UP/3cou/3tNuRQ+/ZPd9EwZ4Mv6VdiZnLr+4oD/qMb8zkhTv22/4V/KcGN7zI6XPSwaxhaVLNAIKzspFg4vRkHj07CK/1YGYAsx/G/jlfG0DiswIOSJ+h8bsCtjafqfc4nvQ4VxrfUp25P40sikMzrLbPksjwvdMekjj2LoR7fEk7YQba/bzkPWlgs3R2HlfEVuVakvHUSLbt9GpVw2exQf/vQ/TD7g1YNGj4XjGoSRvC60yhfGe8ABBxxwwAEHHHDAAQcccMABBxxwwAEHHHDAAQf8wsCdZk63uF7KIYK+D16qU04Djz7Nv5gBnJhxN3kcfhIgR/ny66NNnDieBNSDEz9OMT3oVOBAhZNFTuko15WZX5vb6SFH3Jb/0eWWTgi/avdh7E7MjV0Ok950cOrK6eZcndboERuAZ5s9uY1unN4jX7uCwQmtiKsUVYbfX7C3g16x66LcX+juqwB2GcmujXJU299X6P/tgYtA5cjXfjc4/qkVlVKcXcoh3WzlKbCXoXyWn7YRZz9GwPCLYdz2T3utgcJ5rcQ1Op/xbD76yI6WN36P28uFvFAKlVfYF7kDoAM6MYoXD0qqp4JWh1w2bhhKvkcPoDh+/mVvlfL866v1gOTWF2yK5yHlmNOJlaP8SOE5F7w8uIJ62C+MpCeV51HogDqMrw2Qh10SwxD45RLvfHRjEGEkk1NQuy7gVwNUDn5ixi+e7nAsr8/rudyFN786hDs8KvsOeqRsffpC1iFUPrsqwXUDLwP5Kz265u1dtG+6M+RvTCNMeVjGSujvt+ieYQiWIT3SjTxQErogZezBNAb/NmAXdcYQ7/A1dFKqRw2g9OWmW9yEswYur0BWo/Hfjxi15U+5uDNBh7LZxa6fWsXu0HgDeYVuSB4X/bkZ1xtgqq8rrNzck2LEX2/uKaxcdkJhgs02erbIGdAgJQ+V18sEyl2OEh51nYNk1BuGpPPgCsqoOrjRwHP0I0ZAvexZBuqsYYTcspy8Yq3oY/qXkDbSpstpZielrb2tuh/GnSl4Je/ueCRW+Co9Sr7bWXn9H21knVJhplfZht0n8sEOnvJc8g5dwUedR29x7d8pKAZeOmSFCfSZm6DxhaHB/1IGJJN3/SWD6/MI2OgZcv0iEVD+zymHP5K/GaHyqq+O8E5qF4o8yDDIU+XzYEPIGceVkcbCakfU93OS77PC4O8aeZ317B0Q0kQ6fdaXZqpO9ccFCrdfBLUg2Rq9GHz8VuCoLQKqS72VSJ0Jswa30dfqMqy7zdSW94/UlzDyolzGMEIYYpYPStmsXF97kKHFC3bRo9KWwSzrjTKa7O44yo0Nhj318X3eCruk7w/63gXlzFHyaHS2AgWvlO/B8No/CPhjhcLtD1jLSFwLMJgdgMLqHenc+8mfcvhjNc5crpJ3/0/JAfGsM3J1Qg82EBaX/gE6CV46owdPypZBHeAXj13jVWM9Irzow8JtJsHQLEEDlJlGFE9/X7zRqeCLeOrswRih/SqJvLJOE++gbfXc/LdjyU9/Jjb4u/JSt4mNTMsCdtFjklFtBZ4ID9eNekXdcnzO21zS8qvxEonhitkUaQ3V6qUxQojwlS183sh5g+t30eiQCmD3igO+HrDOM250hd0IdwJQ6SzD08pXnE7lVLTmmWYdoLje7YKSko0/uReSX92BobEsvmHW/G7zJz0telW+Pur2Mj3JBNRJ/PI7+x815M4XCN1D1NmDB+2q8DrLpbCmezmG5FcjV5re6FT/Ej78t+XglZ3YvfvALnpMMvp/qUi/gJJe658RBGjDiM96MBSf1oUaDf95IcPjvXIiH/mVgf2nTDZIIN7b+HT+vS4MciVVoOsRLiO3EW8OKDl4S6XMT38RnS2Dilbeke+rOF7p3L9nb+h/82wjf3FfagdsLjRbUPpiGJTRBwXleRl9UcdB2VIHy1C+9gYoyha8cSc7g7LW+NS4Cu8XuKOZxHmrkWfffQylmTPy8qPtkRtVeVNb7qrHJKMOerkc1NmDKxQ2b+RABRi8mUhMzb8dtHgyq7/4KC5LLcCowYhXmL1GDqUm+XXbSDy102QltqBKV8NktBU/0/7krwyB4qoLpO+DSuv5aR5l9Vz/ic3CXImUvcWzDUpnnZ7OrDK7u2GLpLt6LjsULle8k4U4xh35UZbgVdikXXJ87swMOCmdGbR4syGw2LSFWzamMUbrJStTkW07F+xc9W0504kUvkqPdIbB7Ffolu/w1J/NScaD8S5erht69uAetkWXRtoiaNq7La4Yec2QKdTC9D2PqCZTo5g/Ylh5e6kuPhWef362bORpJK/y1MixEMkY8U6MnHS504QrQIMTx/dBR0iL3W0gPWn4bg2EDI14oieK43/k+1dcNIycfEP/c50xEHkVGr4DMqUzgysvBvKwsgjUeqwMMpaggSxfcqJjsJnwdLytKd7ciaqRr9WjuZ+j/EQPSKPPaj88j72G7JGQxoOHYHHoFTdGY06+KbDwYtB1W1AC7ZVgfHc2gxVWncFGgvK9f2mNGlsVfx/jVPrkVrR3EAIUPvH+JApXwF7v5myGEe/AP1ScGbmR84RfH3F8DwMoMvqtzbKt5j/wTa5OwOR6BxdPdccsH/Mte7ljHQPk2qLT94L79N0x/LmBB7JGnTmn43m0U1INQe2+tMtT/95QaR6Gr0+aiXuaR1O1jwfvrMfgzWUcyNB3D65AXiudgYKGgShy0CAUNPdWC0OYTUu+06LGjCnN2ZBzmQ6jz7JRL+O1z5ArYqSaGLlmExdhoKGzIsWbDZd97d6fHxlL5uW7Bxv0bIbMyBEdW2EvqFfEwUcDhAwU6zPeTRrK01xuzSKKYz++jJ6Wpso4pj4mo4YNf+doox5uADOKBgOMKfEig/dR1l2WLEt5No08yqJ0eaRtj3YjKM3EeFSm4oKNOniWD3nwznoM3lzGXE++e3BFq5wVCrQXUPqjGVYvzKg2gj1LWPme3halUZBPY3IoI4wlvyAyTav5BTSDBh8sXukcKM4fB3vMCr9k0xsjup6l+MEfOFHRypu2O4GXrWHI9mPeWu7qakDqVIQBykSYP05AnSSnuhZ9HsVXJD7kim9gmNSfjjds9H7rlk7gwYY5WaabCHcXIcptlHYulqA0vfH4YrL304d6HciHvDPuqsfgVX3mjHzyau5cTsUPfXJL7A0OUO7AmNJJmD2HkWeh7jYYkxBbhtlHzwsYKBqLDpbD88zhBleN3J6D18OleB/pRrNAMnLSebDB5VqdR35qefeh1zGXLQwFhP/njxOg08wPKG8Yruk85I5GHdwZhQ18b4yr5x+ulUayqpEXt6iEa8SMXbBqhOjAGB2hjzHEl16BUYyaeqhMxbVN7ZPl57hd9Vh5Z4w81zOA+9tKZ7AG8W2+gBj7o/i0YrdnNwCAsMon8mA36KHRjRWgtLZT4DsQaS1QpiJb0Op54C4NR3JTYN4PHnWQVUYOUHzwGnkdo7MW6usTHXa8vxsoM9v8HwGQd5I7OIyy+xtJ50D1ri8tol4ebEBfKa42fh/eH5TlNlCd646KtcFIRwF0keTXvPW9HAYl28nyjbyNdtVj8Ob85uoZyDrN6QyWWMaTTwzD/WCEZjQ23zVGBvlh1dVQJSQwTu9s/5M4RhuFc/locMMsCmH8LGJczvBiDlOzva2VS18c67/HyGEjbt5G0uhgymN9EMav+Dpaur/n4U/CDfJOxVtXP4062360lF9ly9cnHOh7XTNEJ6r68UYco6SZ+o2B0ahTjYuFocpmW4yhG5DrorgXg47faHzfgvR2KQdh6CUGjp66m2WQGLpXAWvzvPBFz2p/5Fc9Sm9hpOZqeb5QnskpWw3fosfgU5q+U2U3Ork8QJ3F3+9S0zHj97c79YAfqlGPOxJuXEXQExLDg2sBTxBKscQCRkajRYVcXvmXXY1m5hsWQ7TFp6gon4KkE1Xr1Rgxi67Cw+LtDgrRJ7sM/J8l20m8vIYO9IA0pPVGJU9uRP63KLlbUWnV76Jt3+V6VN+NMtLZqGtVjmDhRWmSZTpiUODfhPkrmUHjYDCl4S3P8scFfk4QoHMpLr3qjV0i33Eoi2nTXRz8KD1lpvzl0pV1UH+zrngU18+mlAsZtQy9axO8RZbx8qIkdHCf/PV9cuXV293+LVkyX+rza4wp9qi9E6CL+85bDRz5IupvOlqjR33yb9SDjQiFXXIb6MOxE9kHaYB40BHl/NrypJyaaeoMgaFYYZWR6EOmHz7HU8gvGdKHGojFUzEIRjH0lhfJa8GAgH7VEJ/RGDaSpgX6LrCBocjCWDic4WX7tjWaR/sMyqx4W7R70GuD8l3Uo+26ePnNUDV6Gw/egY3kzFpOq3X2zjv/D8tvZCt7WK1OAAAAAElFTkSuQmCC;strokeColor=none;labelBackgroundColor=none;rounded=0;html=1;whiteSpace=wrap;" parent="1" vertex="1">
          <mxGeometry x="1056" y="12" width="105" height="40" as="geometry"/>
        </mxCell>
        <mxCell id="140" style="vsdxID=87;fillColor=none;gradientColor=none;image;aspect=fixed;image=data:image/png,iVBORw0KGgoAAAANSUhEUgAAATgAAAB5CAIAAAAibqpAAAAABGdBTUEAALGPC/xhBQAAAAlwSFlzAAAOwwAADsMBx2+oZAAAK69JREFUeF7tnQl4FFX29rurE0CdcWVVJN1V3cAgywCyCH6yKLgg2+CIC6KOA8rqgsswo4KKIlu2Tqe700lYBBWQRRABBVRGUUDAERFcQIUQdmRVENDvvffcFJ2q6upOAkr+ub/nPv1Uqs65t7a3zrlVtyqO3yQSyTnPGRDq/gPHthYeLth5RBZZZGFlhyhbtx+GOoROykZphPrrqV9/2Hbw1TlfZk9Zm5a/pmv/+X/t8lrzbtObd5/RvPt0NiGLLBW4XN1tesuuM67uOqPpza91f2BBet7a4OS1r87d8H3BwVOnfhUqKiElE+r2nUdfn/f14GeXtOwy9ZIGGUnqWJeW6fSGHVqOQws7vSGnFsKELLJU3KLiN8S0gAk1rGg5SZq/kmfshVelN+86bfDIpa/P/2b7ziNCUQmTqFAPHj4WeXVj+9vf+tNfwk4tkOTOSlYDLjWoeCJON9YpqKhZipqheLIUd7YsslToogacmt+hBhxeTKAggAUVDfOz8fun+qEOt78VeXUTNCXUlQDxhYpg/cm6nfc+8e559QIuT67iCaM41Sy+BijZDi3g0PxONd2ppipapqJlySJLhS6q3+XJVDwZLHRBEaqfh7GA4g4pnhyXGk7W8qrUC0BTK9ftTDAZjiPUvft++veopXXbRBTkt74shy8VbSd70h3eTFY0yJUUi1+sUCZ+nV6/LLJU6MK0ClEwOTi8Gbz4Hd4shLRkrl7oCGqCpuq2jQx/YSlUJvQWGzuh7v3x2D+GLTrfPSHZHXSq2Q41hOL0BJ1uxNVsxYMrRNDFSphKkjusyCKLLO4cJ7qESDxZgWQgnKBDYwXaQT+RSQn5sJpdyRM8P2X8/Y8t3Lv/Z6G6GMQUKjzvHbbEiXiNwJ2Sp9R5RYFEtTQkvQ4PustId3GF8EcVdsEwzZRFlgpX0EFFdsnSXRbMUNA7xRw2E9rh3cY0qIlpCsri4fe+YUvstWotVPjc98QSpyeL3cJi9Y5XvOMhWhZOWS801enJxvWAl4BT1VcxCytRtE6yyFJBS1HGy0IX1whPSFkYCyjaBJYSQ0cIgd4JTsiKzUcEDiAu7v0xplYthLrvwE//eHKxQ8vmt5jREgpTYNE0K7xzzFcL1wwuWr4eXKtwlEWWClygHQcPYy4Pez7CS8DFQivTp3Vhz3WC/3jynb0/WvdXjUI9/svJh59eXMkzjjdpqq6osFvPkKU33aFlOHD9gEpZ5h3ECiWn+GWRpSIXKJMrAnLlSmFiCfD7r+kGHZ0uXG7JnvEPP7P42PETQo1RGIU6Z/G3NRtnJqM3jHjNeqSmGllhSTa7bHgiDjWHJeXeCYjpLk8GX0opsSyyVNgCgaSjOLxpDl8aS4NZsgnd2kTUNKcWhO5qNs6YvegbocYoigl1y7aDLbrOdqlhxZ3nRDeX9UvRqqlSld1lZqGcpdos/2ZdU0+my8MTdFlkqdhFUTOTPGn8UWqA380JKp4slyc9yYOIWqwLWVSymdbYIIWIyxtq3nUWlCg0WUQxoY4Jr1F8CNBhpyeHj2qgCGku2Ul1pikpOfwykMZvOE11eCYjz+ZDCGWRpUIXpxrmQ4Mi0BGmnR72wMaVEkpKsYmoGSzseXIc3pDiyxgT/lRosojTQt2y9VDzW+Y4fSGHz8+7wpnsEZChOlGyHL5xDt94pzeTD48KVakfuvivkQsbhy5uHLmkUZ4sslTgkntxw1xMVPGFnG5Eu7BCakIH1aaPypLTTNat9aEjGWx+8+zNPxQLqqeFmpb7eSVcBth44kweoBFOLcM0CoSarnhDyH697V+5fcjCyOvrF37w3VvLtry19LsFS7+XRZYKXha9/31o6vo7Bi9q//eZl1zlrwStItiefoxiLujW8gSWBb9gZU8u9CiUyTkt1CEj31c8+WykkcePdJk9tNWoj4piqDQbndiUa6YNe3HF6s93/XzspKhCIpFEcez4yd37fpoya8PNd8+q4oUU801SopLNxiaw4RC5Ljd6syFFnTR05PuiFo4Q6tbCQ21ue11hXVPoM1NRYYpwik5wkKW4mh8Cdrpz2MAjX6ZLjTS4/vV3/ruNfCUSiT2Q69DnPqjsC7i0COtXagiHECRS1wD6tFxrmZAeU5wYNRFqc9urWwsPC39dqOl5nyZ702gkscMLuyz2wpononiQNI+DPpPcIQidjxAM1Ov4yrKPC8hRIpEkwpGfTgx+9r1kNjo/x+ENu1R/EnuJJcuh5vB7xZAbfqE+zGSviyb70tJyT99SEkJ96N/vcB0HFTaMgYSKuBpQPFA8xJkNxbrUNEULJ6uB1Nx15CWRSBLn8JETvQcucNGb5Wo6FMfeqmG3iPkrLgiwHr+DDdFFVsuU+ODwxcKThPrLiVN9H1vs9AbR31W8WUKo7GYSGyHIXlr3ZjvULJeW5nLnteo284ftpyOyRCJJnHeXb728WR57ZkPvt7B3RYNJKehjBthbojwuKmxEIPteyj2PLYI2yZEJde0Xu73tJiMiK96Qg6ucDflnL4Jnudwsh3Z48et3atmuOvkjxhuf8EgkkgT5+djJ+x5D9hpy+lggZBFVy05OQTeVvabmRE+TjT1EmER6nOttNwXaJEcm1A8+KajWJOLQIk74s4c5/HMqfLSDyx1kqS97DwCpc36NZlPfWS57pxJJ6UnP/4xFTtYXhaxYSXIH2VdaWAIbdLCbwJlQokPLq9Ykd/knQm5MqB+uLKzVDBEVQoU1e4jKXpZjHVz2ZgwbpigeqOa06j5nx+74b6NLJJJYpOV+5nQzQXGJQZAZ0K2438uGA1Iyixw2t2bTiR+uKiQvJtT/riqs1ZwJlZlyI8Wdw19egz+7zcs/2YSkOa1Nr5mFu46Sp0QiKQWpuetcTI38Uag7z8HG4WY51BD/MCB7rVxRJ7BXzL2Rms0nQZvkJYRao9lEhxaGUF0s42WypPu9/GNq2fS9FacvtVXPVwtK/qVDiUSik5q7Fmp0esIu9v2HHAiVvwcHoUK3bOiSi90QzsScms3yiwt15fYazfIcXjZimOsziFjMn+pQugyh86FPWqhFj9cKdspbvhJJ6YFQHexDLYh/If4lNPrgQ5A/nmHqgwYhN4cvWKNp7ocrt5NXiYQalEKVSMpIau4ah5pRJFQkrVKoEsm5hxSqRFIOkEKVSMoBUqgSSTlAClUiKQdIoUok5QApVImkHCCFKpGUA6RQJZJygBSqRFIOkEKVSMoBUqgSSTlAClVyxjh16tQXX3yxevXqNVF8+umn69atO3pUvpBcJsqfUPfv379+/XqcEBvOKKhw06ZNONVEM7YUFBRgHYTnGeLzzz/fvHmzeQV+/vlnLLXfXizF+hQWircQbdi2bZvNmlM9O3bsENYmDh48CLM5c+Y88cQTjz/+OH51/vWvf/Xr1+8vf/lL7dq160Rx5ZVXejyeO++8EwbC9Iknhg0b9sILL6xYsQK17d4tPvATl2PHjn355ZdxDz0MYHbkSPxXoHfu3Jngcfzf//73zTff6Efn8OHDaCXumpQIqjDWapczoUKlffv2TUlJ0TTNe0ZRVfWqq6568MEHR40aBc2I9qzA0vbt27vdbh9H+JcBquSKK6544IEHcAaIZjiHDh3COY11A2RsCfYGJPHII4+cOGHxTzJ19uzZ06tXL1gKNxOoB7qCkMzXC5xD48eP79mzJ8wuueQShwknR/zBMfxpBpuM7ercufPzzz//ySefiJZi8Ouvv44ePRr29oceOxPXhfr167/11lvCMwaI8506dcK5JDyjiD6saK5WrVrYLX6/n3YvdiMuSTgBsPRMnQAAx6VVq1bIR2j1DJQzoU6dOrVKlSpxz4BSw0825zXXXIMrqGiyODiDcR6TGSE8ywDVc9lll82fPx+no2iJE4lEkpOThV08br/9dnuhTpkypXLlyrCMtdq0JuPGjRMORWC3I1TG8opF4vawxGmKC4FNRoPrIzTD1s+2WkVRYAD5rV27Vnia+OWXXyZNmtS8eXNzbTTHAC4oiP979+4l95dffplaIYRnGRAVOZ1IUmL1EcqTUH/88cebb76Z9pHYxDMNakb94Nprr0X6JBqOApdhXNT5XmUItzJAleB36NChBpUiMWvXrh2ZxQU1INz99FPMj8jt27fvxhtv1I1pIhrMBLioIz0WPpxXX321Zs2atFSYxiNxS4Iq/9Of/jR27Fik+qLhKLBnkDmTmfCJAQxw+GBs2Jk6SDIHDhyItmAMS3OFNJOoVKlS7969P/74Y+H822/ffvttkyZNxGKOcCsbqKdhw4bff/+9aMZEeRLqtGnTzj//fMude6ZwuVxUP34nT54sGi4Cx/7JJ58kS1qHsq8J1YB4Ys79EE5LlD4gjHz00UfC2cQrr7xywQUXCFMr0FBSUlJ6erpw4MyePZtUmvhuhxkh/k4AVE71I6lesGCBaDsK9CTr1q1LddrXjHpgadl5QSDFTmjRooVeDzVKjgT+1OdfdNFFTz31lKEzgvQbJ4luSV5lgepBi2PGjBFtWFFuhHrgwIGbbrqJtgqIrTRBiywNuF+cPUs2AAcjPz9ftF3EqlWrkH0J08QqjAtVMmjQIEPWumvXrg4dOugGZGwPosS8efOEf3EonNrUg0U4V1q2bBkdTpHsoTdOZ62Nrw503rZt2/vuu+9eDmIRendimS1UP8Bunzhxomi+CFwf//Of/2CpsI4HwqnwjAL5EXKWP//5z9gcYcfbFVNF0Bz8YlfMmjXr+PHjwp+zZcuWpk2bkgFZ2hPXjAzAX//6182bN4tmrCg3QkUChoAgNiv2xuMwgEaNGuEs+XsR6LwhLaxduzYW2fjqwKZ69epLly4VbXP279/ftWtXe3eqn0DWhNMC4rHnvPPOQ/fPHE5zc3MpnAJRezwuvPDChQsXCv/iUDJiUxUWoTOclpYmHDi4VGH1hIUVVCFbRd7HRudt69atJ4vAWY4Ihj1JBuRiCRkA7DR0pEXzRXzxxRf169cXpjGAL/16vV7D/QUE0unTp0N4dHTM5wDmEDQfu/GRRx7ZtGmT8I8CmXncWwbUBIETALXZnAa0CHkE+ueijRiUD6EinN5yyy3YBbQr6TcW2DVQNc6SY0VgGp03JC3Yy3olNsAAYcHQWcK5rl8phJ0JWoRfnFjhcHj+/Plz44HLNgK1aKOI3bt3d+zYkTfFoMrjAmHn5OSY+2YIp+jb21eFRcgJf/jhB+HDw+kNN9xg76JP4ITz+/3CMwrs9k6dOlGHgowtQQ0ANpUrV546dapw5iQYTqkGTKBvIjw5GzduhOqQxJKBDnkR+BNN0y/0PGPGDGhb+Efx3XffNWvWzOBrgFXNgfyeeOIJJDhvvvmmONIxQOdi0aJFhgTbTPkQ6muvvYYtFzvDFuxrxL2DB4v9g3QCeySRGIUaoGe0KNw4CKc417HU3pcqx1lrONtKCoUyaovqpPrjgtwBFyZRSxGIJ9Q7takHWWtqaqpw4EyaNCluENbp1auX5X2so0ePdunShWQg3GJA9TRp0uTrr78WzhyE03r16tm7ky9Ax+Szzz4jR1ydcRG8+uqrMZ9WAOjG5EjQHFzfH374Ycs7iATCKa44ZCw8TdBS8M9//tP+DnxJKQdC/fHHHymcip1hC/T8+uuvC88osNfQRYk+YJbQUjSHFE54chCiE7lSwBdN3HrrrXEvkDbs2bMnOpwCUXs8YNm9e3ezYHD+0VIyswQndPQtR4RTREJsi1gcG1RbtWpVxA3hWZzCwsLWrVsnWA9kgKxHeBbx9NNP01ETdlboSxHEyAv7H6EV2oteShP41ecATKN+ZBPImCwDKaGH02hfM2RwxRVX2NzVKx3nulCR+Tz33HPIiOx3EKB9BI1B2MI5CnQC69Spk8ghRzdp5syZwo2DChEWePUMYWoF6kc4RQQTnqUCoQyRX9RYErBu6Iob7n+sX78+VgePNgcggzD0kSZPnkwhHQhrK8jg+uuvP3TokPCM4tSpUxkZGTCIK1Sqp2HDht9++61w5mzYsIGe3xLC2gQtVVWVbvauWLECmQU9MY4mugY6EwCO16BBg9AQtRiLcePG4ToCx+hKzFCd/fv3t9F86TjXhao/5hZ7wgraO5jATjekrMTJkycHDx6sm9kAA3TMDI+zKPFO0B3h1DLxThD0J+17hjbAq0GDBoYnE//+97/12szVYg5APEHEEA68h4xwqi8lSzO0FFx77bWWoxePHDkycOBAr9cLBTZu3LhRbMggOztbeBYxYsQIXVGi1RjgWvPCCy/AJS0tDRcmyyty9BwywIbjshhXVOi666MjgKjCCiy9/PLLly9fLjzPHOe0UBFOhw8fTtsfdweBWOF05cqVV155JdkIhxhUq1Zt8eLT/7AZHDhwANoTi4sfbDMXXXTR3LlzhWepwHmj905LCrzQq4xOB9DBq1u3Li0y10kz0Ts1DEXCJuCSZ7Y3QO4AHeA+ffosXbp08+bNhjtwEDCCJObHBVcKXE+FGwfdRT2ciiZjAIPq1asjej/77LPYHPwJHQKx2ApkxQMGDMD+EY3ZgnRDD6f21QKEBOF2Rjmnhao/5ibEnrACSxH00JMUnlGgdzpkyBCqgRA+Vtx9992G1HHVqlW1atWy99JJSUlZtmzZ9u3bt8UGl+edO3eK2otTlnAK4AjNRF8p0MHTF8WqFl2v6HCKzR82bJiNvQ7ZAJy7+K1RowZiY9++fceMGbNw4UJsZhnfmEE4pfoBNUftWoKr28UXX4wJWhmCFunoMxEe8/LyErzZgw2hO1LRNcQCrb/00ks7duwQBzsGW7duRbUlupFx7goV4RRpm77fxZ6wAkthZhNO0Tu1qYFXz6hateqiRYuEGwddr/vvv5+upomAviWCAI4rzv5YNGnSpE2bNvPnzxdtRBGrZ6jPMcw3gKWIJ6NGjaLQhHCBlRHLrIA9Nm3s2LHUOrF3716ksnpz2LFknDjwgmibNm165513hkIhdP/27Nkjak+YTZs2IR+m1SgRNi7YlkqVKqFHbTluKRYTJkzAXhVVxANNuN1unAC4FojjbQXOAeyfGTNmiDYS4NwVKqVtiRwq2CCcWj4RwSk7dOhQYWcLKrnrrrsMzzawK+nZqTCKBywJ8XcMYGB43Af279/fuXNn8jXXwCpNbFfggkWh7JlnnrF3wVKcNFu2bKEVILAadL8XwAC/wrokkCN+K1eujItF+/btsTLI6qEQy6G8Zp577rnSNR0LrAxOEvSkCgpK8M/vEfpopISoJQHQECH+tgJLPR5Pia4X56hQ6TE3bZL9NgMY3HjjjTjDhHMUq1evRjoatwZw2WWXvf3228KNg3BKQ5EIYRcPWNI5asPll19uGPYEcKHRb1kBUV0RNJMGbIhZJsgGQj116hR6hg0aNLAxBljPl19+WTRfBHzT0tIQabGUNkRYlxCDI/5ENKtXr94dd9zxxhtv2KedX331VenCqQ2oDdpAZ0q0kRjYFVhtUUUCoBUietoMduzIkSNFG4nxuwi1++sFO0omVHrMHb3xNG1JrJu9OOcGDRoEA+wXsrSE6scJZLjYz5w5k+6pEMI6HsKaI2YVB/PNT8ORtEePZAbCmkN/Iq+uX78+cmOaaYYcIVRsCBJg+hOIxSYaN2682Wp86a5du3r37i2cE95wA7ovTRBc+8oll1zywgsv2Gj1+eefJ0uq6kyhaVqJhIrOZKtWrbAaWHNRhS20jYSYZQWW4hq6ceNG0UxinA2h8lr4Py1nniqEOr1EQkU4ffrpp+23NpoOHTrQEFMcewLTSP/Q+9LHjglTK7AUvVNDOEVHv3v37nF9AdkQYpYJfREmatas+f7774tmikjk1ZaOHTsGAgGsKmspRluYj9MRZtHviNCiaDDz0ksvNQ9/1yksLBwwYEDt2rWj4wm8dMSsIsxzYkGWuNy89NJLhvt2xNdff92oUSPYlEgh9Gtvj9xKH7eUCOnp6YmMOaULSlyzaEaMGCHaSJizIVT+75DVsIIJFlFDLbrPKJFQox9ziy2zBadmnz597rnnHv23b9++f/vb36BSOtiEsDaBRfbhVNjFgJrACQ2SYoDjjV/kk7BEODU8uNPDqagxBji66E/SeDpLY5qPhhB4sfL6TJrQIbPrr7/e/mMlWMnly5dPmTJlyJAhzZs3j07LQeI32GLh9XotowqCLZ36AA3RhCW0JvpEXGEjJTE/qo0FLv0Ip1ShTbWsYb43cIhtTgAduFx11VU2AxVjcdaFiojasvvMgh3xP2Cj88wzz9A5DWh32EOWOpij61Nfyg2tQSZm+GwHwmmPHj2wSK+BG1pz/vnnDx48eNKkSXnxiEQiOTk55kEw06ZNIxmIGq2oXr06xeG7776bbY+VMc3EtutDmgEt0qGZ2L0vvviizecUooHZDz/8MH369AkTJnTp0qVOnTpwJy1R/fRbUizvpqxcuVJ/8Etm9rCNKcqogb0XDIYOHSpaikdGRoYeToGowgos7dSpE45sfn6+ONKxCYfDixYtQs4omkmY3yGiIvUtgVBxsYl7F8QSvj+FF01HQ/PNYBH6sYbxsbNmzUI01g1oIhadO3cuxeMHHYTTuMP9sei+++6jhy733nuvmGsCZtGVGP4kaKZ5sF6CYG0//PBDv98P0SIL0Mf6A6o/cdxut+F9NPRWevXqhUWJVKgbkERBXC8sbd++fSKfgCsoKLjmmmtgn0i16Mu88847wvOs8bukvj3eSFyoI0eOpHCKXWCzg3QD3UafIOhPvlxMGP4k+vXrZ7hdjHDas2dPWgpLS2gRfpFhonspPEsFDffnrRVrjuYQNWrUWLJkCdk/9thjmCOMSg58oS7LV9JKyu7du6dOnTpmzJhhw4bRnT9UjjObGrKEbUwRTZs2NdzKevPNN2nQgj3Cnyf5rVu3Rqo8fPjwuB+LoaVXXHGF+aVCM5mZmQinuiNNREO1EbiGnvGRvWbOLaGi04IMnnYE7REbaDfRNU/Mig3ZcA8BMt6BAwciRIi2i5g9ezbdgiJHS7CUXcP5Wxe7du0SniUHrd8S+8UgagW/iKL6qbBw4cJLL72UlpJZSendu7f5Vbgy8vHHH7dp04ZWWDRjBd9ngocffjg6A0Q4/fvf/475wtQEKqdNpgmfzzd+/Hh6CIydA7XQfDK2BEvRT8nNzaUWY6GHU5vasAiril90SfRr6Fnl9xLqzoSEqg/Cpn1BO8USLEU0Q/qUUkJq167dsmXLRx99dN68eeY3whIMp8R5552H7vSJMrx2qA/3F1UXh1rBqfDuu+8Kh99+++ijjxA9sNTmnLYBIjd8lGjx4sUvv/wyTvpxtowdO3b06NE2b28NGTIE9cfaFgJL6fjiUvjGG28ITw4OBy6dNu5YRKAGBEbDGLL09HRhFxtyf+ihh4RPDLKysqh3KtxMUD1E3759f4dwCs4hoX711VfonUbvC5q2BCJ5/vnnP/vss3UlZM2aNYaxONHMnTs3wSc6AIIvSzg9cOAAvT2HMw+IqouD+YZT4YMPPqhatSoWwZFsSsTtt98efX/7888/p2GGCdY2atQo4WnigQceYDvFth5sDhl07doVmy88eTjFipGNDVQ/Khk8eLDhfgwuNLRImFpB7p06dbL55DfCadzUgOoBhmvoWeUcEio95sb2i/1hS8eOHfXvrJ4pEE579eqVyArABh0kdI0SvHFqyfTp022GIhHVqlUz3KhAv44eG8RyMaMbI2QZvn6mj6YmSxtgo2larA4erpj03EhYx4CtB/+WgmGYK4I8Qn0i7lhb5EQrVqwQnkVgu+gJszC1grXNO/zRn/80EAgE6OVnINysIANcQy0fBZ8NzhWhIpw2atQokb2DQ4VwmpeXJzzPHG+++aZ+s9cGWofOnTtbDlpMEMQT+0+l0aI+ffqYTwUkb2STIGyv8drQCYzO9imF0ZfaQAaGXmU0Tz75JNWDPUMuZmgpfrt162YIp3feeSf3ZghrK8h94MCB5u7G9u3bmzZtau8OYHDBBRfEuv9XWFjYtm1b3ZImzGARQAdk2bJlwvPsc64IFeGUtl/sDCvIACCcJv4PSxLkyJEjt912G7VCzdmAK0VGRgbCKft0WjxEA8VBSKEBFaJGE1iEEGF4OZYYMGAA2wsJrCdBxhdffLEhnE6dOpW+igSEqRVkAAzv2eisX7/e5/MJI47wNIFF2GrDt3IQTi+77DJaSpCxGQgVvVNzOAUHDx7EZQg2Nu565f379xduxcnOzq5UqRKZEeRoBmuC5nASimMcG3Q0ypJ26ZwTQv36669pELb99ZiASOLeuCsFdDNDNBbveONwXnfddXfccQeOlg1IpHv37m2+AYN4gqjCt8aulbvvvhtHWvhEQQOYE4dawcogdokq+DjNfv360SKb3a4DmxdffFE4RwGF6L1TQjhYgaXolkffaTeEUyBMrcBSXKToebKZzMzMuO70e9NNN5mzoR07dtD7fTrkZQaLsDeQjCDfueuuu9C7FsfbBC79ONCJD4ey4ZwQavSoMRtoB3Xo0KEst3AsQTjF7o4+NvbHiZba2AAyQ3/M/DQ8kfGJCKeGG5s6iMb02a7EQUpv+P4YLvP33HMPrQMQdra0a9cOl7P//ve/H3CWL1/+3nvvPfjggzgoeg32xxEB3BBO3377beqdUg16PZbYfzQM3Ut7d30puqnYCuFWRCgUos8ssVXhkHEsYICNtdleqgQ89dRToo0y8McL9ZtvvmncuDG2R2xfbLBTqlSpEolEhOeZI8GbGSWCakNUjI5jACEo1nB/mknA0TD8WGfNmjX0ZRnhFg9YGsIpgFDvvfde3pToOgprW5B0VK9evVq1avjF6Y4JmzOViG7CEE7RYUZEwnxhagX3FpLARSFWOAWJX7/M14sS/ZufBKE11zRt3bp1opky8McLFQkVjoHYOFtcLhf2ZqzvmJQahFMksVgH7FbR0pkAtVlGxdmzZ6O7yA9iTKGizxbrm/dg5cqVcQfiRIPm5syZI5yjwMkKvdGGJ1gVmZG9Di2yRFhwpbVu3RqXGNE2B9uY4K1acPnll5vDYDQFBQXNmjUTbragNsObhuFwGN0ZsfgMQWe1+QsBpeMPFurGjRujP2aJPSimrEhOTj4b4RTKoc842LdeUlAb+jCGqIh4csMNN8S6KPBVYODCYR6MobNhwwafz5f4laVHjx6xXpSZPHkyAiOdUokQ3SJfU4GYZQKLUDmASg3/B/HQoUPowtm7A1qK34ceesgmnAKkKojY5BWXnj176k+nofBWrVphpv2alBRsNcJpiV6ss+EPFuqyZcsaNWpE/xMW4PyjCQMqZ9iwYZbfjy0jWVlZKfw/I8dqvRRgixo2bGi+Z4vtRZ7v8XjMbWEOgCPCgv2oNJyvw4cP13eaDbBp0qSJ4VVbA3Pnzu3WrVvt2rUTPE1hFm1p+NMMYmbnzp0NsRRAHjfffDP2vFjX2MAGnQV0kYRnbCZOnAh7nCrkaAkOdJ3i//QZqWnLli2xr8wHpdSgFVT47LPPUhNl5w8WKuLGl4n9s3f8xuqzlZF9+/atX78+7jqUCNS2adMm8+CyXbt22beFpTYDp3QSXGfYWH7DwcCBAwc++eST0aNHP/744+jN4jxGHxjyoKcmBgzKNKi0Vq1aNE6zXr16999//4gRI3DRseytoJOMdcMainWNAbYRNgm+n4R+OLmQryVUYfQ7NMePH//qq6/irkmJoFbK8qTdwB/fR5WcUyCBRPQDiDMLFix49NFHBwwYMCgBkJpCluhGwnH16tU4TcsyClpiQApVIikHSKFKJOUAKVSJpBwghSqRlAOkUCWScoAUqkRSDpBClUjKAVKoEkk5QApVIikHSKFKJOUAKVSJpBwghSqRlAOkUCWSckAZhZpfJNRsKVSJ5OxRXKiQWIZJqNlFQs0rLtRVBTWahR3ekNOTDWuHlg3PIqHiN8z/kTGcc1p0l0KVSMoEhOoUQg06oTUtC7qDvpjiWJhkGmSK9YZqNA1/uKqAvJhQ8UetFhkOLeL0hF3aGEXNcKXksRzYixJU3GGXO+xQgw5tcuues3bslkKVSEpPau6niprGlAW5puQ7PRFFzXR6kboGnO6IU81U1LGIlA5Pfq2r0z5ctY28SKjba10dcXhhlO3SUhFFFXcOoqhDQyAOuNyQOJ/2RhrcMPXLb/aRp0QiKQVpeWudTKh+RU13enKcagiKpQRYQTKsBpgGkfpq+TWbh4pF1A8+LqzacJJDy3UwNSPLhQPr0TpY3uuHShUt1eHNQtJcpW5m5DXj/5aWSCSJk5G/zulJV7zpTKgqy3WdWqbDm4GuKe9jItIGoESHNrFqo/wPPonqo65dv8f7/2Y6tBzFC1nnOFSEU8gdUTQLv8xZwwUAvdtAsjv9+QkfkqdEIikpPx87ee+wdxU15NIg1CwHU1nASVqDUKFPNYwY69TSEVG9101fu0F8YooJ9ZcTp+559H2nFiwSKkyZUFkUZqGVK17LhlaTPVltb526rVB2UyWS0vDu8h9qNctXtDwXslc3u9nLHrKwX/Zk1KmmI0w63WFFS3d6c/o8sgTaJEcmVDDgP+8qGs973dkONduJdFfNwASSZl4de2aD7q9LzTrPnT346XcOHT7D/+haIvk/z+Ejv9w1cH6SO+RQcxFFXZ4wgiI9ZOEPXCBUPwuT7GkNxBh4aPhS4akLNXPip5Xrprs86NcieLInsAp8UIXK4jL3RAKMnm66y51f2TduyIglh4/+Hv+eWSL5v8GRn04Meeb9Klqak92jDfNOZcCBBNbLbwMxobKHNCy0an6XJ1DZG8jIO/2hcyHUzzbsVq+dmOzO4feNWAJMQuX3k0i37MmPwzve6cl1arlJXv+Qke/t3hfzG/ASiURn976jD498L1mNKClToC/0IpGcujzoo4YcvrQkT6aLIqonxO8GpyZ7QmrbKWu/OP0fSYVQf/r5RO9BbysIu96MJHcgyZ3t9Kby7Bk9VdZZ5XEVE350ZXlnN1TZl9m5zxvBaes/Xb/r6E+/oAZeThZNyCJLRS9Hfzrx6frdwWkbbr5ndiV1got1KnN4cgpBcU1hjkb3g0IOHmyZ+qBbNXTHoAU/Hzv9jz+EUEFG/tokX6rTlwFxu9BTZfed+MjBYgXRmenW4c10+tBGMKlulq9juEf/mb0enP23/vN79l8giywVvPyt/4Je/d/u9dD87v3m1u3wSpI3oqgTnSobp1AU9owFMdapZSjuoMsdcGkZUGJ6frF/HXJaqN9tO9jy1lcVL/qofocHlfKk11Tj6aIhT85Dtu3w+R11M5y+gNObz2eGZZGlIhenmqN4cxVflrNumrMuuz/E7x6FuKZMOuKFZ7xZrhT0K5mamt06ZcvWg0KZnNNCBeNDayuxEUiIwjno2ro8MYWahO6vO9uVEnK5g0mqP8mTgQw7yZPrUvVsWRZZKmaB5IIuNjAQE+lJGvqfIcUdQt7rYpEPBkY1sYIEmN37zYH6XD7/mPBqockiign1u62HWt86y6lFIFRXSsTlSePB2lQpipbuZI9z2LTi8Se5s5Kg2Dq4bAQc7KGrXxZZKmrJgFCT6kSS3NnQBY+ivFPqzXJ6M04rqFhBUExzuaHSsOKNtOgye8tW4/86LCZUMGfh5mqNcAHIV1KCLnV8TKHyB7V8ADDWLJOtgRfSTVdUXD/Y7SxZZKmwhd0cYqLIZHmslsWVguw3ghJDUNnJnnGKG/Ev79ImwVkLLf5tn1Gox385OfQ/71dJYaOZWNg01ihKUkokKQXpMR+3xN7NYQOD2XhF1c/uRXkCsshSYQt7tOlLdfjSWQxjYwPZa94udwiSiRX5XNoEJMbwHfzs+8eOW/zvPKNQwb4fj/3zySWKF9pjY/kti4sVhPVMvhJhxR1RkJTzsf9ctLLIUnELy3X5Q1EUNpKBZb8ZLjWd91F1EUGxp0Xr8GYnqen9Hl+0d7/1vw62ECrYWnikVbeZldmg3zC7XcTGTLBxw3wlcM1AcMdlgw0zpBtZrB+sYoWyHEyoCLCyyFKBCxTIVer0hPkvG3UEjbgwTbJkaspAgax4WhquoobbdJlWUHhYKNCEtVDBvEXfNmk3SXFnJalZLjciJ3TIpIiqeSKOViFgSJTNYXeWKTWXEVWWCl9Y6OJPN/l4Pj+728olk8Tu62Ip//wKlmp+pweRFr3FUL2WE+ct+kZoz4qYQgVrN+zt8+g8p3e00xdweNApDSensKcy7GsPdTNZ8WXym0ksC6fxTEyusshSsQtUADlggmsSGoFSMphY6jJZKh4IOFtx5ykpk5LUoEsb1fGu6fOXbBWqi4GdUMGe/Ucff2npFa0mKt5chzfHoeWwYcDusMuDywC/76yyQC/ua2ksI+eKlUWWilugAp4DB9lQXt4XRSTjkslMYt9DwqI8hzZRUV+p3WLKU6OXFu6OmfHqxBEq+PXX3+a9u6XjnTOqNIg4fBH2rRdPKDklmOxmX45Aes0e1SDzRsSnJ6jeLFlkqdAFOS2734u+KBJdJhOXW0iGDRX0Zju13Mr18zreMWveu9+fOvWrUJot8YVK7NxzNPzahut6Tz//qgw2YJA9vUU6HmJhlvWYEWPZ410+uoL9KYssFbZABdACFIFp/sZpmH2L15vtQBeynv/8qzLb9Z4Zfu3LnXtK8PJZokIltu868tpbmwaNXNbs1ml/boCAzpNyRHbN79IyXFq6S8viQ6VkkaUCFyaH1CQowpulaEFFC0Ajnrb51942feCIZVAQdCQUlTAlEyqBYP19wcGpczf6J3+emvtpj3/ObtEl0qZr5JqueS27TWzZLdKya6hl17AsslS8EsL536Jbfuuu+W1vzWl5a06PfnNSc9cEpqxfsWbHrr1HTyaW6JopjVAN7D9wbFvh4e07DrGy83DBjkMFOw7KIktFLYcKoIKdTA7bCg9BHUInZeMMCFUikZxtpFAlknOe3377/z9aKU3x5mb0AAAAAElFTkSuQmCC;strokeColor=none;labelBackgroundColor=none;rounded=0;html=1;whiteSpace=wrap;" parent="1" vertex="1">
          <mxGeometry x="25" y="11" width="84" height="39" as="geometry"/>
        </mxCell>
        <mxCell id="141" value="&lt;font style=&quot;font-size:67px;font-family:Calibri;color:#939393;direction:ltr;letter-spacing:0px;line-height:120%;opacity:1&quot;&gt;̴&lt;/font&gt;&lt;font style=&quot;font-size:67px;font-family:Themed;color:#939393;direction:ltr;letter-spacing:0px;line-height:120%;opacity:1&quot;&gt; &lt;br/&gt;&lt;/font&gt;" style="verticalAlign=middle;align=center;vsdxID=816;fillColor=none;gradientColor=none;shape=stencil(nZBLDoAgDERP0z3SIyjew0SURgSD+Lu9kMZoXLhwN9O+tukAlrNpJg1SzDH4QW/URgNYgZTkjA4UkwJUgGXng+6DX1zLfmoymdXo17xh5zmRJ6Q42BWCfc2oJfdAr+Yv+AP9Cb7OJ3H/2JG1HNGz/84klThPVCc=);strokeColor=none;labelBackgroundColor=none;rounded=0;html=1;whiteSpace=wrap;" parent="1" vertex="1">
          <mxGeometry x="706" y="399" width="90" height="28" as="geometry"/>
        </mxCell>
        <mxCell id="142" style="vsdxID=848;fillColor=none;gradientColor=none;strokeColor=none;spacingTop=-1;spacingBottom=-1;spacingLeft=-1;spacingRight=-1;labelBackgroundColor=none;rounded=1;html=1;whiteSpace=wrap;" parent="1" vertex="1">
          <mxGeometry x="492" y="504" width="187" height="54" as="geometry"/>
        </mxCell>
        <mxCell id="143" style="vsdxID=849;fillColor=#c7a0e2;gradientColor=none;shape=stencil(nZFLDsIwDERP4y0KyQKxLuUCnCAihliEpEpL+ZyetANS6YJFs7JnXmxpTKZqvW2YtGq7nC58F9d5MjvSWqLnLF2pyNRkqlPKfM7pFh36xhZSq1Fhhz/rgdbK5uNBXgxts9r+PjAYck39sPwBVMF6foYp9HugQeIE/ZqL4D/oQnC2vhRjPAhOQkC6U38eZ5FwClO/AQ==);strokeColor=#939393;spacingTop=-1;spacingBottom=-1;spacingLeft=-1;spacingRight=-1;labelBackgroundColor=none;rounded=1;html=1;whiteSpace=wrap;" parent="142" vertex="1">
          <mxGeometry width="187" height="54" as="geometry"/>
        </mxCell>
        <mxCell id="150" value="&lt;font style=&quot;direction: ltr ; line-height: 120% ; opacity: 1 ; font-size: 11px&quot; color=&quot;#feffff&quot; face=&quot;calibri&quot;&gt;&lt;div&gt;SAP PARAMETER SETTING&lt;/div&gt;&lt;div&gt;(PLANNING CALENDAR, MSQ, MOQ ...)&lt;/div&gt;&lt;/font&gt;" style="text;vsdxID=848;fillColor=none;gradientColor=none;strokeColor=none;spacingTop=-1;spacingBottom=-1;spacingLeft=-1;spacingRight=-1;labelBackgroundColor=none;rounded=1;html=1;whiteSpace=wrap;verticalAlign=middle;align=center;;html=1;" parent="142" vertex="1">
          <mxGeometry y="27" width="187.12" as="geometry"/>
        </mxCell>
        <mxCell id="151" value="&lt;font style=&quot;direction: ltr ; line-height: 120% ; opacity: 1&quot;&gt;&lt;div&gt;&lt;font color=&quot;#feffff&quot; face=&quot;calibri&quot;&gt;&lt;span style=&quot;font-size: 11px&quot;&gt;&lt;br&gt;&lt;/span&gt;&lt;/font&gt;&lt;/div&gt;&lt;div&gt;&lt;font color=&quot;#feffff&quot; face=&quot;calibri&quot;&gt;&lt;span style=&quot;font-size: 11px&quot;&gt;SAVE STUDY EVIDENCE, CONTRACTS, INCOTERMS, PRICES ...&lt;/span&gt;&lt;/font&gt;&lt;/div&gt;&lt;/font&gt;" style="verticalAlign=middle;align=center;vsdxID=889;fillColor=#c7a0e2;gradientColor=none;shape=stencil(1VTJDoIwEP2aHiGlDS5n1P9opEBjpWRaBf7eYpEtQRMVE2+zvFnezGQQjXTGCo4I1gbUiZciNhmiO0SIyDMOwlgJ0T2iUaKAp6Aueez0gjXIRjqra5OhcnEBxk0MwbXTN1uf3g0Hh2ZwtE5o0WELhvoR7a+dpQXMJMOVxyqhPVCGGaHyEVgySLlnC3mJZOnIpUvOi4E5GLYmRc7nKneNvUdjOpUBYHEirzZihX6ZiZDS3ULnn9v0fw0ID5t7RoQQn35ysVMmfb6fUwlWfhh8kUqfbxEqo0OcHKEVph/Imtz3ovsb);strokeColor=#939393;shadow=1;labelBackgroundColor=none;rounded=0;html=1;whiteSpace=wrap;" parent="1" vertex="1">
          <mxGeometry x="926" y="56" width="188" height="80" as="geometry"/>
        </mxCell>
        <mxCell id="152" style="vsdxID=904;fillColor=#7baedd;gradientColor=none;shape=stencil(nZFbDoQgDEVX03+GxhX42IeJODQyYBDnsXshjc7Ih5nwdy89pS/AetH9rECKJXg3qRcNQQM2ICVZrTyFqABbwHp0Xt29W+3Afu4TmdTDPdMPb84TKUOKD7ubYN8xasj+oHuwCL5AC8GsfBTfGUcyhld0xP9bwEX16kxWpcOfGs2ajCI/XHzio2O7AQ==);strokeColor=#939393;labelBackgroundColor=none;rounded=0;html=1;whiteSpace=wrap;" parent="1" vertex="1">
          <mxGeometry x="239" y="694" width="42" height="25" as="geometry"/>
        </mxCell>
        <mxCell id="153" style="vsdxID=908;fillColor=none;gradientColor=none;strokeColor=none;spacingTop=-1;spacingBottom=-1;spacingLeft=-1;spacingRight=-1;labelBackgroundColor=none;rounded=1;html=1;whiteSpace=wrap;" parent="1" vertex="1">
          <mxGeometry x="430" y="115" width="72" height="41" as="geometry"/>
        </mxCell>
        <mxCell id="154" style="vsdxID=909;fillColor=#c7a0e2;gradientColor=none;shape=stencil(nZFLDsIwDERP4y0KyQKxLuUCnCAihliEpEpL+ZyetANS6YJFs7JnXmxpTKZqvW2YtGq7nC58F9d5MjvSWqLnLF2pyNRkqlPKfM7pFh36xhZSq1Fhhz/rgdbK5uNBXgxts9r+PjAYck39sPwBVMF6foYp9HugQeIE/ZqL4D/oQnC2vhRjPAhOQkC6U38eZ5FwClO/AQ==);strokeColor=#939393;spacingTop=-1;spacingBottom=-1;spacingLeft=-1;spacingRight=-1;labelBackgroundColor=none;rounded=1;html=1;whiteSpace=wrap;" parent="153" vertex="1">
          <mxGeometry width="72" height="41" as="geometry"/>
        </mxCell>
        <mxCell id="161" value="&lt;font style=&quot;direction: ltr ; line-height: 120% ; opacity: 1&quot;&gt;&lt;div&gt;&lt;font color=&quot;#feffff&quot; face=&quot;calibri&quot;&gt;&lt;span style=&quot;font-size: 11px&quot;&gt;DISCLOSURE&lt;/span&gt;&lt;/font&gt;&lt;/div&gt;&lt;/font&gt;" style="text;vsdxID=908;fillColor=none;gradientColor=none;strokeColor=none;spacingTop=-1;spacingBottom=-1;spacingLeft=-1;spacingRight=-1;labelBackgroundColor=none;rounded=1;html=1;whiteSpace=wrap;verticalAlign=middle;align=center;;html=1;" parent="153" vertex="1">
          <mxGeometry y="20" width="72" as="geometry"/>
        </mxCell>
        <mxCell id="162" style="vsdxID=932;fillColor=#ffca2b;gradientColor=none;shape=stencil(nZFbDoQgDEVX03+GxhX42IeJODQyYBDnsXshjc7Ih5nwdy89pS/AetH9rECKJXg3qRcNQQM2ICVZrTyFqABbwHp0Xt29W+3Afu4TmdTDPdMPb84TKUOKD7ubYN8xasj+oHuwCL5AC8GsfBTfGUcyhld0xP9bwEX16kxWpcOfGs2ajCI/XHzio2O7AQ==);strokeColor=#7f7f7f;labelBackgroundColor=none;rounded=0;html=1;whiteSpace=wrap;" parent="1" vertex="1">
          <mxGeometry x="420" y="359" width="42" height="25" as="geometry"/>
        </mxCell>
        <mxCell id="163" style="vsdxID=933;fillColor=#ffca2b;gradientColor=none;shape=stencil(nZFbDoQgDEVX03+GxhX42IeJODQyYBDnsXshjc7Ih5nwdy89pS/AetH9rECKJXg3qRcNQQM2ICVZrTyFqABbwHp0Xt29W+3Afu4TmdTDPdMPb84TKUOKD7ubYN8xasj+oHuwCL5AC8GsfBTfGUcyhld0xP9bwEX16kxWpcOfGs2ajCI/XHzio2O7AQ==);strokeColor=#7f7f7f;labelBackgroundColor=none;rounded=0;html=1;whiteSpace=wrap;" parent="1" vertex="1">
          <mxGeometry x="419" y="518" width="42" height="25" as="geometry"/>
        </mxCell>
        <mxCell id="164" style="vsdxID=934;fillColor=#ffca2b;gradientColor=none;shape=stencil(nZFbDoQgDEVX03+GxhX42IeJODQyYBDnsXshjc7Ih5nwdy89pS/AetH9rECKJXg3qRcNQQM2ICVZrTyFqABbwHp0Xt29W+3Afu4TmdTDPdMPb84TKUOKD7ubYN8xasj+oHuwCL5AC8GsfBTfGUcyhld0xP9bwEX16kxWpcOfGs2ajCI/XHzio2O7AQ==);strokeColor=#7f7f7f;labelBackgroundColor=none;rounded=0;html=1;whiteSpace=wrap;" parent="1" vertex="1">
          <mxGeometry x="423" y="611" width="42" height="25" as="geometry"/>
        </mxCell>
        <mxCell id="2" value="Conector" parent="0"/>
        <mxCell id="171" style="vsdxID=938;edgeStyle=none;startArrow=none;endArrow=block;startSize=5;endSize=5;strokeColor=#c7a0e2;spacingTop=0;spacingBottom=0;spacingLeft=0;spacingRight=0;verticalAlign=middle;html=1;labelBackgroundColor=#ffffff;rounded=0;exitX=1.0238095238095237;exitY=0.52;exitDx=0;exitDy=0;exitPerimeter=0;entryX=0;entryY=0.5;entryDx=0;entryDy=0;entryPerimeter=0;" parent="2" source="164" target="107" edge="1">
          <mxGeometry relative="1" as="geometry">
            <mxPoint x="-1" as="offset"/>
            <Array as="points">
              <mxPoint x="481" y="624"/>
              <mxPoint x="481" y="623.43"/>
            </Array>
          </mxGeometry>
        </mxCell>
        <mxCell id="172" style="vsdxID=937;edgeStyle=none;startArrow=none;endArrow=block;startSize=5;endSize=5;strokeColor=#c7a0e2;spacingTop=0;spacingBottom=0;spacingLeft=0;spacingRight=0;verticalAlign=middle;html=1;labelBackgroundColor=#ffffff;rounded=0;exitX=1.0238095238095237;exitY=0.52;exitDx=0;exitDy=0;exitPerimeter=0;entryX=0;entryY=0.5;entryDx=0;entryDy=0;entryPerimeter=0;" parent="2" source="163" target="142" edge="1">
          <mxGeometry relative="1" as="geometry">
            <mxPoint y="-1" as="offset"/>
            <Array as="points">
              <mxPoint x="477" y="531"/>
              <mxPoint x="477" y="531.22"/>
            </Array>
          </mxGeometry>
        </mxCell>
        <mxCell id="173" value="" style="vsdxID=936;edgeStyle=none;dashed=1;startFill=0;startArrow=oval;endFill=0;endArrow=block;startSize=3;endSize=3;strokeColor=#000000;spacingTop=0;spacingBottom=0;spacingLeft=0;spacingRight=0;verticalAlign=middle;html=1;labelBackgroundColor=#ffffff;rounded=1;align=center;exitX=0.5;exitY=1.024390243902439;exitDx=0;exitDy=0;exitPerimeter=0;entryX=0;entryY=0.52;entryDx=0;entryDy=0;entryPerimeter=0;" parent="2" source="153" target="164" edge="1">
          <mxGeometry relative="1" as="geometry">
            <mxPoint y="1" as="offset"/>
            <Array as="points">
              <mxPoint x="466" y="338.88"/>
              <mxPoint x="400" y="338.88"/>
              <mxPoint x="400" y="623.51"/>
            </Array>
          </mxGeometry>
        </mxCell>
        <mxCell id="174" value="" style="vsdxID=935;edgeStyle=none;dashed=1;startFill=0;startArrow=oval;endFill=0;endArrow=block;startSize=3;endSize=3;strokeColor=#000000;spacingTop=0;spacingBottom=0;spacingLeft=0;spacingRight=0;verticalAlign=middle;html=1;labelBackgroundColor=#ffffff;rounded=1;align=center;exitX=0.5;exitY=1.024390243902439;exitDx=0;exitDy=0;exitPerimeter=0;entryX=0;entryY=0.52;entryDx=0;entryDy=0;entryPerimeter=0;" parent="2" source="153" target="163" edge="1">
          <mxGeometry relative="1" as="geometry">
            <mxPoint x="2" as="offset"/>
            <Array as="points">
              <mxPoint x="466" y="338.88"/>
              <mxPoint x="400" y="338.88"/>
              <mxPoint x="400" y="530.31"/>
            </Array>
          </mxGeometry>
        </mxCell>
        <mxCell id="175" value="" style="vsdxID=931;edgeStyle=none;dashed=1;startFill=0;startArrow=oval;endFill=0;endArrow=block;startSize=3;endSize=3;strokeColor=#000000;spacingTop=0;spacingBottom=0;spacingLeft=0;spacingRight=0;verticalAlign=middle;html=1;labelBackgroundColor=#ffffff;rounded=1;align=center;exitX=0.5;exitY=1.024390243902439;exitDx=0;exitDy=0;exitPerimeter=0;entryX=0;entryY=0.52;entryDx=0;entryDy=0;entryPerimeter=0;" parent="2" source="153" target="162" edge="1">
          <mxGeometry relative="1" as="geometry">
            <mxPoint y="-5" as="offset"/>
            <Array as="points">
              <mxPoint x="466" y="338.88"/>
              <mxPoint x="400" y="338.88"/>
              <mxPoint x="400" y="371.74"/>
            </Array>
          </mxGeometry>
        </mxCell>
        <mxCell id="176" style="vsdxID=907;edgeStyle=none;startArrow=none;endArrow=block;startSize=5;endSize=5;strokeColor=#c7a0e2;spacingTop=0;spacingBottom=0;spacingLeft=0;spacingRight=0;verticalAlign=middle;html=1;labelBackgroundColor=#ffffff;rounded=0;exitX=1.0238095238095237;exitY=0.48;exitDx=0;exitDy=0;exitPerimeter=0;entryX=0;entryY=0.5121951219512195;entryDx=0;entryDy=0;entryPerimeter=0;" parent="2" source="78" target="153" edge="1">
          <mxGeometry relative="1" as="geometry">
            <mxPoint x="-1" as="offset"/>
            <Array as="points"/>
          </mxGeometry>
        </mxCell>
        <mxCell id="177" value="" style="vsdxID=905;edgeStyle=none;dashed=1;startFill=0;startArrow=oval;endFill=0;endArrow=block;startSize=3;endSize=3;strokeColor=#000000;spacingTop=0;spacingBottom=0;spacingLeft=0;spacingRight=0;verticalAlign=middle;html=1;labelBackgroundColor=#ffffff;rounded=1;align=center;exitX=0.5;exitY=1;exitDx=0;exitDy=0;exitPerimeter=0;entryX=0;entryY=0.52;entryDx=0;entryDy=0;entryPerimeter=0;" parent="2" source="47" target="152" edge="1">
          <mxGeometry relative="1" as="geometry">
            <mxPoint y="-2" as="offset"/>
            <Array as="points">
              <mxPoint x="221" y="707.05"/>
            </Array>
          </mxGeometry>
        </mxCell>
        <mxCell id="178" style="vsdxID=895;edgeStyle=none;startArrow=none;endArrow=block;startSize=5;endSize=5;strokeColor=#c7a0e2;spacingTop=0;spacingBottom=0;spacingLeft=0;spacingRight=0;verticalAlign=middle;html=1;labelBackgroundColor=#ffffff;rounded=0;exitX=1.0238095238095237;exitY=0.48;exitDx=0;exitDy=0;exitPerimeter=0;entryX=0;entryY=0.5;entryDx=0;entryDy=0;entryPerimeter=0;" parent="2" source="58" target="151" edge="1">
          <mxGeometry relative="1" as="geometry">
            <mxPoint x="-1" as="offset"/>
            <Array as="points">
              <mxPoint x="297" y="96"/>
              <mxPoint x="297" y="96.02"/>
            </Array>
          </mxGeometry>
        </mxCell>
        <mxCell id="179" value="" style="vsdxID=891;edgeStyle=none;dashed=1;startFill=0;startArrow=oval;endFill=0;endArrow=block;startSize=3;endSize=3;strokeColor=#000000;spacingTop=0;spacingBottom=0;spacingLeft=0;spacingRight=0;verticalAlign=middle;html=1;labelBackgroundColor=#ffffff;rounded=1;align=center;exitX=1;exitY=0.4977973568281938;exitDx=0;exitDy=0;exitPerimeter=0;entryX=0.6648936170212766;entryY=1;entryDx=0;entryDy=0;entryPerimeter=0;" parent="2" source="33" target="151" edge="1">
          <mxGeometry relative="1" as="geometry">
            <mxPoint y="-6" as="offset"/>
            <Array as="points">
              <mxPoint x="1005.05" y="371"/>
              <mxPoint x="1005.05" y="334.56"/>
              <mxPoint x="1050.77" y="334.56"/>
            </Array>
          </mxGeometry>
        </mxCell>
        <mxCell id="180" value="" style="vsdxID=872;edgeStyle=none;dashed=1;startFill=0;startArrow=oval;endFill=0;endArrow=block;startSize=3;endSize=3;strokeColor=#000000;spacingTop=0;spacingBottom=0;spacingLeft=0;spacingRight=0;verticalAlign=middle;html=1;labelBackgroundColor=#ffffff;rounded=1;align=center;exitX=1.0053475935828877;exitY=0.5;exitDx=0;exitDy=0;exitPerimeter=0;entryX=0.5010141987829615;entryY=1;entryDx=0;entryDy=0;entryPerimeter=0;" parent="2" source="142" target="33" edge="1">
          <mxGeometry relative="1" as="geometry">
            <mxPoint x="-2" as="offset"/>
            <Array as="points">
              <mxPoint x="740" y="531"/>
            </Array>
          </mxGeometry>
        </mxCell>
        <mxCell id="181" style="vsdxID=820;edgeStyle=none;startArrow=none;endArrow=block;startSize=5;endSize=5;strokeColor=#5b9bd5;spacingTop=0;spacingBottom=0;spacingLeft=0;spacingRight=0;verticalAlign=middle;html=1;labelBackgroundColor=#ffffff;rounded=0;exitX=1;exitY=0.4977973568281938;exitDx=0;exitDy=0;exitPerimeter=0;entryX=0;entryY=0.5;entryDx=0;entryDy=0;entryPerimeter=0;" parent="2" source="33" target="125" edge="1">
          <mxGeometry relative="1" as="geometry">
            <mxPoint x="-1" as="offset"/>
            <Array as="points">
              <mxPoint x="1001" y="371"/>
              <mxPoint x="1001" y="370.99"/>
            </Array>
          </mxGeometry>
        </mxCell>
        <mxCell id="182" value="" style="vsdxID=817;edgeStyle=none;dashed=1;startFill=0;startArrow=oval;endFill=0;endArrow=block;startSize=3;endSize=3;strokeColor=#000000;spacingTop=0;spacingBottom=0;spacingLeft=0;spacingRight=0;verticalAlign=middle;html=1;labelBackgroundColor=#ffffff;rounded=1;align=center;exitX=1;exitY=0.5087719298245614;exitDx=0;exitDy=0;exitPerimeter=0;entryX=0.5010141987829615;entryY=0;entryDx=0;entryDy=0;entryPerimeter=0;" parent="2" source="60" target="33" edge="1">
          <mxGeometry relative="1" as="geometry">
            <mxPoint x="-3" as="offset"/>
            <Array as="points">
              <mxPoint x="739.42" y="199"/>
            </Array>
          </mxGeometry>
        </mxCell>
        <mxCell id="183" style="vsdxID=810;edgeStyle=none;startArrow=none;endArrow=block;startSize=5;endSize=5;strokeColor=#5b9bd5;spacingTop=0;spacingBottom=0;spacingLeft=0;spacingRight=0;verticalAlign=middle;html=1;labelBackgroundColor=#ffffff;rounded=0;exitX=1;exitY=0.5;exitDx=0;exitDy=0;exitPerimeter=0;entryX=0;entryY=0.5;entryDx=0;entryDy=0;entryPerimeter=0;" parent="2" source="125" target="134" edge="1">
          <mxGeometry relative="1" as="geometry">
            <mxPoint x="3" as="offset"/>
            <Array as="points">
              <mxPoint x="1113.5" y="371"/>
              <mxPoint x="1113.5" y="371.85"/>
            </Array>
          </mxGeometry>
        </mxCell>
        <mxCell id="184" style="vsdxID=641;edgeStyle=none;startArrow=none;endArrow=block;startSize=5;endSize=5;strokeColor=#c7a0e2;spacingTop=0;spacingBottom=0;spacingLeft=0;spacingRight=0;verticalAlign=middle;html=1;labelBackgroundColor=#ffffff;rounded=0;exitX=1.007462686567164;exitY=0.5;exitDx=0;exitDy=0;exitPerimeter=0;entryX=0;entryY=0.5087719298245614;entryDx=0;entryDy=0;entryPerimeter=0;" parent="2" source="107" target="116" edge="1">
          <mxGeometry relative="1" as="geometry">
            <mxPoint x="-1" as="offset"/>
            <Array as="points">
              <mxPoint x="642" y="623"/>
              <mxPoint x="642" y="623.59"/>
            </Array>
          </mxGeometry>
        </mxCell>
        <mxCell id="185" value="" style="vsdxID=617;edgeStyle=none;dashed=1;startFill=0;startArrow=oval;endFill=0;endArrow=block;startSize=3;endSize=3;strokeColor=#000000;spacingTop=0;spacingBottom=0;spacingLeft=0;spacingRight=0;verticalAlign=middle;html=1;labelBackgroundColor=#ffffff;rounded=1;align=center;exitX=0.5;exitY=0;exitDx=0;exitDy=0;exitPerimeter=0;entryX=0.5010141987829615;entryY=1;entryDx=0;entryDy=0;entryPerimeter=0;" parent="2" source="116" target="33" edge="1">
          <mxGeometry relative="1" as="geometry">
            <mxPoint y="-4" as="offset"/>
            <Array as="points">
              <mxPoint x="720" y="580"/>
              <mxPoint x="739.12" y="580"/>
            </Array>
          </mxGeometry>
        </mxCell>
        <mxCell id="186" style="vsdxID=515;edgeStyle=none;startArrow=none;endArrow=block;startSize=5;endSize=5;strokeColor=#5b9bd5;spacingTop=0;spacingBottom=0;spacingLeft=0;spacingRight=0;verticalAlign=middle;html=1;labelBackgroundColor=#ffffff;rounded=0;exitX=1;exitY=0.52;exitDx=0;exitDy=0;exitPerimeter=0;entryX=0;entryY=0.4977973568281938;entryDx=0;entryDy=0;entryPerimeter=0;" parent="2" source="162" target="33" edge="1">
          <mxGeometry relative="1" as="geometry">
            <mxPoint y="-1" as="offset"/>
            <Array as="points">
              <mxPoint x="477" y="372"/>
              <mxPoint x="477" y="371.3"/>
            </Array>
          </mxGeometry>
        </mxCell>
        <mxCell id="187" value="" style="vsdxID=491;edgeStyle=none;dashed=1;startFill=0;startArrow=oval;endFill=0;endArrow=block;startSize=3;endSize=3;strokeColor=#000000;spacingTop=0;spacingBottom=0;spacingLeft=0;spacingRight=0;verticalAlign=middle;html=1;labelBackgroundColor=#ffffff;rounded=1;align=center;exitX=0.5;exitY=1;exitDx=0;exitDy=0;exitPerimeter=0;entryX=0;entryY=0.52;entryDx=0;entryDy=0;entryPerimeter=0;" parent="2" source="69" target="79" edge="1">
          <mxGeometry relative="1" as="geometry">
            <mxPoint y="-2" as="offset"/>
            <Array as="points">
              <mxPoint x="367" y="778.57"/>
            </Array>
          </mxGeometry>
        </mxCell>
        <mxCell id="188" style="vsdxID=454;edgeStyle=none;startArrow=none;endArrow=block;startSize=5;endSize=5;strokeColor=#c7a0e2;spacingTop=0;spacingBottom=0;spacingLeft=0;spacingRight=0;verticalAlign=middle;html=1;labelBackgroundColor=#ffffff;rounded=0;exitX=1;exitY=0.5087719298245614;exitDx=0;exitDy=0;exitPerimeter=0;entryX=0;entryY=0.5087719298245614;entryDx=0;entryDy=0;entryPerimeter=0;" parent="2" source="69" target="60" edge="1">
          <mxGeometry relative="1" as="geometry">
            <mxPoint x="-1" as="offset"/>
            <Array as="points">
              <mxPoint x="462.44" y="199"/>
            </Array>
          </mxGeometry>
        </mxCell>
        <mxCell id="189" value="" style="vsdxID=451;edgeStyle=none;dashed=1;startFill=0;startArrow=oval;endFill=0;endArrow=block;startSize=3;endSize=3;strokeColor=#000000;spacingTop=0;spacingBottom=0;spacingLeft=0;spacingRight=0;verticalAlign=middle;html=1;labelBackgroundColor=#ffffff;rounded=1;align=center;exitX=0.5;exitY=0;exitDx=0;exitDy=0;exitPerimeter=0;entryX=0.5238095238095238;entryY=1;entryDx=0;entryDy=0;entryPerimeter=0;" parent="2" source="69" target="78" edge="1">
          <mxGeometry relative="1" as="geometry">
            <mxPoint x="10" as="offset"/>
            <Array as="points"/>
          </mxGeometry>
        </mxCell>
        <mxCell id="190" value="" style="vsdxID=448;edgeStyle=none;dashed=1;startFill=0;startArrow=oval;endFill=0;endArrow=block;startSize=3;endSize=3;strokeColor=#000000;spacingTop=0;spacingBottom=0;spacingLeft=0;spacingRight=0;verticalAlign=middle;html=1;labelBackgroundColor=#ffffff;rounded=1;align=center;exitX=0.5;exitY=0;exitDx=0;exitDy=0;exitPerimeter=0;entryX=0;entryY=0.52;entryDx=0;entryDy=0;entryPerimeter=0;" parent="2" source="47" target="59" edge="1">
          <mxGeometry relative="1" as="geometry">
            <mxPoint y="1" as="offset"/>
            <Array as="points">
              <mxPoint x="221" y="199.04"/>
            </Array>
          </mxGeometry>
        </mxCell>
        <mxCell id="191" style="vsdxID=415;edgeStyle=none;startArrow=none;endArrow=block;startSize=5;endSize=5;strokeColor=#c7a0e2;spacingTop=0;spacingBottom=0;spacingLeft=0;spacingRight=0;verticalAlign=middle;html=1;labelBackgroundColor=#ffffff;rounded=0;exitX=1.0238095238095237;exitY=0.52;exitDx=0;exitDy=0;exitPerimeter=0;entryX=0;entryY=0.5087719298245614;entryDx=0;entryDy=0;entryPerimeter=0;" parent="2" source="59" target="69" edge="1">
          <mxGeometry relative="1" as="geometry">
            <mxPoint x="1" as="offset"/>
            <Array as="points">
              <mxPoint x="289.5" y="199"/>
              <mxPoint x="289.5" y="199.24"/>
            </Array>
          </mxGeometry>
        </mxCell>
        <mxCell id="192" style="vsdxID=341;edgeStyle=none;startArrow=none;endArrow=block;startSize=5;endSize=5;strokeColor=#5b9bd5;spacingTop=0;spacingBottom=0;spacingLeft=0;spacingRight=0;verticalAlign=middle;html=1;labelBackgroundColor=#ffffff;rounded=0;exitX=1;exitY=0.5;exitDx=0;exitDy=0;exitPerimeter=0;entryX=0;entryY=0.5;entryDx=0;entryDy=0;entryPerimeter=0;" parent="2" source="41" target="47" edge="1">
          <mxGeometry relative="1" as="geometry">
            <mxPoint x="2" as="offset"/>
            <Array as="points"/>
          </mxGeometry>
        </mxCell>
        <mxCell id="193" value="" style="vsdxID=360;edgeStyle=none;dashed=1;startFill=0;startArrow=oval;endFill=0;endArrow=block;startSize=3;endSize=3;strokeColor=#000000;spacingTop=0;spacingBottom=0;spacingLeft=0;spacingRight=0;verticalAlign=middle;html=1;labelBackgroundColor=#ffffff;rounded=1;align=center;exitX=0.5;exitY=0;exitDx=0;exitDy=0;exitPerimeter=0;entryX=0;entryY=0.48;entryDx=0;entryDy=0;entryPerimeter=0;" parent="2" source="47" target="58" edge="1">
          <mxGeometry relative="1" as="geometry">
            <mxPoint y="1" as="offset"/>
            <Array as="points">
              <mxPoint x="221" y="96.82"/>
            </Array>
          </mxGeometry>
        </mxCell>
        <mxCell id="194" value="" style="vsdxID=361;edgeStyle=none;dashed=1;startFill=0;startArrow=oval;endFill=0;endArrow=block;startSize=3;endSize=3;strokeColor=#000000;spacingTop=0;spacingBottom=0;spacingLeft=0;spacingRight=0;verticalAlign=middle;html=1;labelBackgroundColor=#ffffff;rounded=1;align=center;exitX=0.5;exitY=1;exitDx=0;exitDy=0;exitPerimeter=0;entryX=0;entryY=0.52;entryDx=0;entryDy=0;entryPerimeter=0;" parent="2" source="47" target="56" edge="1">
          <mxGeometry relative="1" as="geometry">
            <mxPoint y="-2" as="offset"/>
            <Array as="points">
              <mxPoint x="221" y="623.52"/>
            </Array>
          </mxGeometry>
        </mxCell>
        <mxCell id="195" value="" style="vsdxID=362;edgeStyle=none;dashed=1;startFill=0;startArrow=oval;endFill=0;endArrow=block;startSize=3;endSize=3;strokeColor=#000000;spacingTop=0;spacingBottom=0;spacingLeft=0;spacingRight=0;verticalAlign=middle;html=1;labelBackgroundColor=#ffffff;rounded=1;align=center;exitX=0.5;exitY=1;exitDx=0;exitDy=0;exitPerimeter=0;entryX=0;entryY=0.52;entryDx=0;entryDy=0;entryPerimeter=0;" parent="2" source="47" target="57" edge="1">
          <mxGeometry relative="1" as="geometry">
            <mxPoint y="-2" as="offset"/>
            <Array as="points">
              <mxPoint x="221" y="529.7"/>
            </Array>
          </mxGeometry>
        </mxCell>
        <mxCell id="3" value="Texto Explicativo" parent="0"/>
        <mxCell id="165" value="&lt;p style=&quot;margin: 0px ; direction: ltr&quot;&gt;&lt;font color=&quot;#7f7f7f&quot; face=&quot;calibri&quot;&gt;&lt;span style=&quot;font-size: 8px&quot;&gt;Opening hours and windows&lt;/span&gt;&lt;/font&gt;&lt;/p&gt;&lt;p style=&quot;margin: 0px ; direction: ltr&quot;&gt;&lt;font color=&quot;#7f7f7f&quot; face=&quot;calibri&quot;&gt;&lt;span style=&quot;font-size: 8px&quot;&gt;Address&lt;/span&gt;&lt;/font&gt;&lt;/p&gt;&lt;p style=&quot;margin: 0px ; direction: ltr&quot;&gt;&lt;font color=&quot;#7f7f7f&quot; face=&quot;calibri&quot;&gt;&lt;span style=&quot;font-size: 8px&quot;&gt;Masterlist&lt;/span&gt;&lt;/font&gt;&lt;/p&gt;&lt;p style=&quot;margin: 0px ; direction: ltr&quot;&gt;&lt;font color=&quot;#7f7f7f&quot; face=&quot;calibri&quot;&gt;&lt;span style=&quot;font-size: 8px&quot;&gt;Charging peculiarities&lt;/span&gt;&lt;/font&gt;&lt;/p&gt;&lt;p style=&quot;margin: 0px ; direction: ltr&quot;&gt;&lt;span style=&quot;font-size: 8px&quot;&gt;&lt;font style=&quot;direction: ltr ; line-height: 120% ; opacity: 1&quot; color=&quot;#7f7f7f&quot; face=&quot;calibri&quot;&gt;&lt;/font&gt;&lt;/span&gt;&lt;/p&gt;&lt;p style=&quot;margin: 0px ; direction: ltr&quot;&gt;&lt;font color=&quot;#7f7f7f&quot; face=&quot;calibri&quot;&gt;&lt;span style=&quot;font-size: 8px&quot;&gt;Shipping Registration&lt;/span&gt;&lt;/font&gt;&lt;/p&gt;" style="verticalAlign=middle;align=left;vsdxID=557;fillColor=#ffffff;gradientColor=none;shape=stencil(dY9LDoAgDERP06WG0LhgrXgPE1GICgTxd3shXWhM3M20r+0UsF515xVwtsbgJnWYPmrABjg3VqtgYlKAErAeXFBjcJvtyfsuk1ktbs8bTpqrWB7h7CJLriVyNvafLFCUonrjSTxXKOC7902USvQNyhs=);strokeColor=#5b9bd5;strokeWidth=2;labelBackgroundColor=none;rounded=0;html=1;whiteSpace=wrap;" parent="3" vertex="1">
          <mxGeometry x="527" y="377" width="122" height="84" as="geometry"/>
        </mxCell>
        <mxCell id="166" value="&lt;p style=&quot;margin: 0px ; direction: ltr&quot;&gt;&lt;span style=&quot;font-size: 8px ; color: rgb(127 , 127 , 127) ; font-family: &amp;#34;calibri&amp;#34;&quot;&gt;User creation in OTM&lt;/span&gt;&lt;br&gt;&lt;/p&gt;&lt;p style=&quot;margin: 0px ; direction: ltr&quot;&gt;&lt;span style=&quot;font-size: 8px&quot;&gt;&lt;font style=&quot;direction: ltr ; line-height: 120% ; opacity: 1&quot; color=&quot;#7f7f7f&quot; face=&quot;calibri&quot;&gt;&lt;/font&gt;&lt;/span&gt;&lt;/p&gt;&lt;p style=&quot;margin: 0px ; direction: ltr&quot;&gt;&lt;font color=&quot;#7f7f7f&quot; face=&quot;calibri&quot;&gt;&lt;span style=&quot;font-size: 8px&quot;&gt;Meeting with the Supplier&lt;/span&gt;&lt;/font&gt;&lt;/p&gt;" style="verticalAlign=middle;align=left;vsdxID=591;fillColor=#ffffff;gradientColor=none;shape=stencil(UzV2Ls5ILEhVNTIoLinKz04tz0wpyVA1dlE1MsrMy0gtyiwBslSNXVWNndPyi1LTi/JL81Ig/IJEkEoQKze/DGRCBUSfqQFIi5FBJYQL4blBVOZk5uFWqWtoomdkiawcyEDYAnEgshy6i4BCEN8YuwIA);strokeColor=#5b9bd5;strokeWidth=2;labelBackgroundColor=none;rounded=0;html=1;whiteSpace=wrap;" parent="3" vertex="1">
          <mxGeometry x="674" y="349" width="122" height="42" as="geometry"/>
        </mxCell>
        <mxCell id="167" value="&lt;p style=&quot;margin: 0px ; direction: ltr&quot;&gt;&lt;font color=&quot;#7f7f7f&quot; face=&quot;calibri&quot;&gt;&lt;span style=&quot;font-size: 8px&quot;&gt;User creation in OTM&lt;/span&gt;&lt;/font&gt;&lt;/p&gt;&lt;p style=&quot;margin: 0px ; direction: ltr&quot;&gt;&lt;span style=&quot;font-size: 8px&quot;&gt;&lt;font style=&quot;direction: ltr ; line-height: 120% ; opacity: 1&quot; color=&quot;#7f7f7f&quot; face=&quot;calibri&quot;&gt;&lt;/font&gt;&lt;/span&gt;&lt;/p&gt;&lt;p style=&quot;margin: 0px ; direction: ltr&quot;&gt;&lt;font color=&quot;#7f7f7f&quot; face=&quot;calibri&quot;&gt;&lt;span style=&quot;font-size: 8px&quot;&gt;Meeting with the Carrier&lt;/span&gt;&lt;/font&gt;&lt;/p&gt;" style="verticalAlign=middle;align=left;vsdxID=592;fillColor=#ffffff;gradientColor=none;shape=stencil(UzV2Ls5ILEhVNTIoLinKz04tz0wpyVA1dlE1MsrMy0gtyiwBslSNXVWNndPyi1LTi/JL81Ig/IJEkEoQKze/DGRCBUSfqQFIi5FBJYQL4blBVOZk5uFWqWtoomdkiawcyEDYAnEgshy6i4BCEN8YuwIA);strokeColor=#5b9bd5;strokeWidth=2;labelBackgroundColor=none;rounded=0;html=1;whiteSpace=wrap;" parent="3" vertex="1">
          <mxGeometry x="838" y="349" width="122" height="42" as="geometry"/>
        </mxCell>
        <mxCell id="168" value="&lt;p style=&quot;margin-left: 0 ; margin-right: 0 ; margin-top: 0px ; margin-bottom: 0px ; text-indent: 0 ; direction: ltr&quot;&gt;&lt;font style=&quot;font-size: 8px ; font-family: &amp;#34;themed&amp;#34; ; color: #7f7f7f ; direction: ltr ; letter-spacing: 0px ; line-height: 120% ; opacity: 1&quot;&gt;&lt;/font&gt;&lt;/p&gt;&lt;p style=&quot;margin: 0px ; direction: ltr&quot;&gt;&lt;font color=&quot;#7f7f7f&quot; face=&quot;calibri&quot;&gt;&lt;span style=&quot;font-size: 8px&quot;&gt;2 weeks of monitoring the operation&lt;/span&gt;&lt;/font&gt;&lt;/p&gt;" style="verticalAlign=middle;align=left;vsdxID=796;fillColor=#ffffff;gradientColor=none;shape=stencil(dY9LDoAgDERP06UGqZzAzz1MRCEqGMTf7YV0ITFxN9O+tlPAalPdKoGzzTs7yVP3XgHWwLk2SjrtgwJsAKvBOjk6u5ue/NpFMqrFHnHDRXOCxRHObrLkWiJnbf7JTIi8KFM8iPcKBUx730ShRN9g8wA=);strokeColor=#5b9bd5;strokeWidth=2;labelBackgroundColor=none;rounded=0;html=1;whiteSpace=wrap;" parent="3" vertex="1">
          <mxGeometry x="1016" y="421" width="90" height="42" as="geometry"/>
        </mxCell>
        <mxCell id="169" value="&lt;font style=&quot;direction: ltr ; line-height: 120% ; opacity: 1&quot;&gt;&lt;div&gt;&lt;font color=&quot;#7030a0&quot; face=&quot;calibri&quot;&gt;&lt;span style=&quot;font-size: 11px&quot;&gt;&lt;br&gt;&lt;/span&gt;&lt;/font&gt;&lt;/div&gt;&lt;div&gt;&lt;font color=&quot;#7030a0&quot; face=&quot;calibri&quot;&gt;&lt;span style=&quot;font-size: 11px&quot;&gt;INCOTERM, CONTRACT, COD. SELLING, PRICE OF PRODUCT ....&lt;/span&gt;&lt;/font&gt;&lt;/div&gt;&lt;/font&gt;" style="verticalAlign=middle;align=center;vsdxID=903;fillColor=#e9daf3;gradientColor=none;shape=stencil(vVjLlpswDP0alujYlp/r6fQ/OB2ScJqGHEI707+vKGAqB0hnEe8cP5R7JVu6osCX26m61oUSt75rv9fvzVt/KvBLoVRzOdVd09OowNcCXw5tVx+79uflbfx9rYadw+hH+2uw8DGeKzVIOZxS4vc4I4WFYP5OfR1PVN03Wu6mEyhAhvFENx3RBpQfp+ZNCrznZqUFg9OmsvpobmXX9lXftJdxgxjXzlV3rEv6y/Jwro5s6fZe19e76VWQSoOVHCQSLclAOgPGbnHPAVKCTTAq0AziAMgbhtEjCJULogwQkGNUAXzgIImIcAwkGpA2G0gLIrmRFH+JiScDcIzk/Wyhlh6cSyB6kIZBdH6O/rSllAIwX6z/x41GgQscpIOQDaOiTJP4EV36rpWKl3bGKMDpbBjxLtb0HCyPdSllChIlGJct2Ajok2CL+IojSAdWMZA2xHyUAaQGlWCUwO/jbv16CsSkfjoBgRcRHy/bOqmE0ZIoJ4vWblv8NCP5eac/wrfH+Cn4Eo8byqW8JDo339z1B8kZ6SWnzhbFtsUMHn+Mb4dxDo9rDYJH3FEZsNuMEslgQXPFUJLQ2bSYweMP8e0xfgo+GiwS/dCcz6PCj+ub+n0vRa+/b3EnjaVZSvhklmxw+iTxsiVVXPJJ7B4EmD1SFK9Up/6DOKrrzE0Jp7Xbb6zTUvGZx1iRbGSsnAXLhUQgpetzkdrtUNZJybSqUxR4+xh8zIHzpUbwTxRHCacBEFcVWgHuFPXF45ETdaBcTeVvkzgr5WLjHiuN2H9TmPYDJFF5pAatzSP1ZK3NEmWSJGmQfvegqfGbCb7+AQ==);strokeColor=#7030a0;strokeWidth=2;labelBackgroundColor=none;rounded=0;html=1;whiteSpace=wrap;" parent="3" vertex="1">
          <mxGeometry x="772" y="138" width="134" height="62" as="geometry"/>
        </mxCell>
        <mxCell id="170" value="&lt;font style=&quot;font-size: 11px ; font-family: &amp;#34;calibri&amp;#34; ; color: #7030a0 ; direction: ltr ; letter-spacing: 0px ; line-height: 120% ; opacity: 1&quot;&gt;&lt;b&gt;SMARTSHEET&lt;/b&gt;&lt;/font&gt;&lt;font style=&quot;direction: ltr ; line-height: 120% ; opacity: 1&quot;&gt; &lt;br&gt;&lt;div&gt;&lt;font color=&quot;#7030a0&quot; face=&quot;themed&quot;&gt;&lt;span style=&quot;font-size: 11px&quot;&gt;LIQ FREIGHT / TOLL / TAXES, SHARE&lt;/span&gt;&lt;/font&gt;&lt;/div&gt;&lt;/font&gt;" style="verticalAlign=middle;align=center;vsdxID=906;fillColor=#e9daf3;gradientColor=none;shape=stencil(vVjbkpswDP0aHtHYlq/P2+1/MF2SME1DhrDd7d9XlGAqB0jTmfjN8S3nSJZ0RIEvl0N1rgslLn3Xfq8/mrf+UOCXQqnmdKi7pqdRga8Fvuzart537fvpbfx9roadw+hH+3O44XM8V2qQcjilxK9xRgoLwfyZ+jqeqLpvtNxdT6AAGcYT3fWINqD8ODVtUuA9v1ZaMHjdVFafzaXs2r7qm/Y0bhDj2rHq9nVJf1nujtWeLV0+6vp8M70IUmmwkoNEoiUZSGfA2DXuOUBKsAlGBZpBHAB5wzB6BKFyQZQBAnKMKoAPHCQREY6BRAPSZgNpQSQvkvwvMbFkAI6RrJ/N1dKDcwlED9IwiM5P3r9uKaUAzOfrfzGjUeACB+kgZMOoKNMkdkSXxrVS8dFOGAU4nQ0j3viawsFyX5dSpiBRgnHZnI2APnG2iFEcQTqwioG0IeajDCA1qASjBP4eN+vXUyAm9TMosLyIODFBWibFGdEzSIzu/fqNDzOSjxv9Hr4txk/Bl1jc0avgKci6SZIsB2QSjBB4kS2tXb8xg8Xv4ttinMPilPSRqzlLOc6vM0okgwEuGEot1i/MYPB78Lb4PgUeDWaBvmuOx1Hfx/VV9b6VoJejW9wIY2nmAj6FOHD6jgRetpSKc7GOvYMAs0VKg0hV6l+Io7bO3JJwWpvdxjItFQty9BWJRsbKWbBcRoTw30/1cVKb/ckyKZnWdPICbx6Dj6p3Dj//RGmUcBoAcU2hKSHodU6zxSMn6j952czfJHFWaq4YE6kpQtZiCtNugAQq99SgtLmnnqy0WaJMkiQN0q8eNDV+McHX3w==);strokeColor=#7030a0;strokeWidth=2;labelBackgroundColor=none;rounded=0;html=1;whiteSpace=wrap;" parent="3" vertex="1">
          <mxGeometry x="925" y="574" width="122" height="62" as="geometry"/>
        </mxCell>
      </root>
    </mxGraphModel>
  </diagram>
</mxfile>
